M48
; DRILL file {KiCad 8.0.7} date 2025-05-12T19:40:54+0300
; FORMAT={-:-/ absolute / inch / decimal}
; #@! TF.CreationDate,2025-05-12T19:40:54+03:00
; #@! TF.GenerationSoftware,Kicad,Pcbnew,8.0.7
; #@! TF.FileFunction,Plated,1,2,PTH
FMAT,2
INCH
; #@! TA.AperFunction,Plated,PTH,ViaDrill
T1C0.0079
; #@! TA.AperFunction,Plated,PTH,ComponentDrill
T2C0.0315
; #@! TA.AperFunction,Plated,PTH,ComponentDrill
T3C0.0394
; #@! TA.AperFunction,Plated,PTH,ComponentDrill
T4C0.0433
; #@! TA.AperFunction,Plated,PTH,ComponentDrill
T5C0.1260
%
G90
G05
T1
X4.13Y-3.35
X4.19Y-2.5
X4.21Y-2.3214
X4.311Y-3.0906
X4.38Y-2.27
X4.38Y-2.31
X4.38Y-2.35
X4.38Y-2.39
X4.38Y-2.44
X4.38Y-2.48
X4.38Y-2.52
X4.38Y-2.56
X4.38Y-2.6
X4.42Y-2.27
X4.42Y-2.31
X4.42Y-2.35
X4.42Y-2.39
X4.42Y-2.44
X4.42Y-2.48
X4.42Y-2.52
X4.42Y-2.56
X4.42Y-2.6
X4.46Y-2.27
X4.46Y-2.31
X4.46Y-2.35
X4.46Y-2.39
X4.46Y-2.44
X4.46Y-2.48
X4.46Y-2.52
X4.46Y-2.56
X4.46Y-2.6
X4.5Y-2.27
X4.5Y-2.31
X4.5Y-2.52
X4.5Y-2.56
X4.5Y-2.6
X4.54Y-2.52
X4.54Y-2.56
X4.54Y-2.6
X4.57Y-2.28
X4.57Y-2.32
X4.58Y-2.52
X4.58Y-2.56
X4.58Y-2.6
X4.59Y-2.0595
X4.62Y-2.28
X4.62Y-2.32
X4.62Y-2.36
X4.62Y-2.4
X4.62Y-2.44
X4.6248Y-3.1848
X4.66Y-2.28
X4.66Y-2.32
X4.66Y-2.36
X4.66Y-2.4
X4.66Y-2.44
X4.66Y-2.48
X4.66Y-2.52
X4.66Y-2.56
X4.66Y-2.6
X4.825Y-3.22
X4.875Y-2.745
X4.995Y-2.74
X5.015Y-3.545
X5.025Y-3.305
X5.06Y-2.9203
X5.12Y-2.875
X5.145Y-2.74
X5.2Y-3.19
X5.22Y-3.24
X5.512Y-2.774
X5.525Y-2.844
X5.529Y-2.993
X5.529Y-3.071
X5.53Y-3.61
X5.535Y-3.15
X5.5957Y-3.066
X5.6Y-2.992
X5.6Y-3.15
X5.66Y-3.225
X5.725Y-3.19
X5.725Y-3.385
X5.795Y-3.48
X5.855Y-3.54
X5.858Y-3.109
X5.86Y-2.56
X5.86Y-3.04
X5.88Y-2.7
X5.88Y-3.02
X5.887Y-3.419
X5.9Y-3.398
X5.913Y-3.534
X5.921Y-3.27
X5.9245Y-2.4154
X5.9245Y-2.8454
X5.985Y-3.074
X5.987Y-2.704
X5.998Y-3.419
X6.0245Y-2.4354
X6.0245Y-2.8254
X6.1245Y-2.5604
X6.135Y-3.322
X6.14Y-3.398
X6.17Y-3.398
X6.198Y-3.632
X6.2245Y-2.4554
X6.2245Y-2.8054
X6.237Y-3.322
X6.247Y-3.114
X6.287Y-3.442
X6.313Y-3.08
X6.3245Y-2.4754
X6.3245Y-2.7854
X6.331Y-3.235
X6.387Y-2.521
X6.426Y-3.329
X6.43Y-3.398
X6.435Y-3.265
X6.44Y-3.07
X6.44Y-3.225
X6.44Y-3.59
X6.4445Y-2.4154
X6.4445Y-2.8454
X6.45Y-3.04
X6.495Y-3.08
X6.515Y-3.398
X6.525Y-3.17
X6.5445Y-2.4354
X6.5445Y-2.8254
X6.578Y-3.49
X6.585Y-3.08
X6.587Y-2.715
X6.61Y-3.297
X6.61Y-3.36
X6.6445Y-2.6054
X6.65Y-3.61
X6.6507Y-3.3807
X6.68Y-2.765
X6.68Y-3.59
X6.682Y-3.4617
X6.7323Y-3.294
X6.744Y-3.4617
X6.7445Y-2.4554
X6.7445Y-2.8054
X6.77Y-3.225
X6.775Y-3.125
X6.807Y-3.24
X6.8071Y-3.5729
X6.809Y-3.265
X6.837Y-3.442
X6.841Y-3.044
X6.8445Y-2.4754
X6.8445Y-2.7854
X6.887Y-3.205
X6.938Y-3.329
X6.938Y-3.36
X6.944Y-3.4203
X6.957Y-3.628
X6.9645Y-2.4154
X6.9645Y-2.8454
X6.986Y-3.361
X7.008Y-3.52
X7.01Y-2.715
X7.01Y-3.17
X7.017Y-3.262
X7.036Y-3.616
X7.045Y-3.4203
X7.0645Y-2.4354
X7.0645Y-2.8254
X7.1475Y-3.2275
X7.15Y-3.436
X7.1645Y-2.5604
X7.201Y-3.4815
X7.222Y-2.6
X7.257Y-3.4617
X7.264Y-2.4951
X7.264Y-2.763
X7.2645Y-2.4554
X7.2645Y-2.8054
X7.301Y-2.675
X7.355Y-3.19
X7.355Y-3.22
X7.3645Y-2.4754
X7.3645Y-2.7854
X7.4Y-2.588
X7.417Y-2.671
T2
X4.363Y-2.0566
X4.363Y-2.155
X4.4303Y-2.7943
X4.4567Y-2.8573
X4.5551Y-2.8573
X4.5815Y-2.9203
X4.6736Y-3.357
X4.7Y-3.42
X4.7984Y-3.42
X4.8248Y-3.483
X4.8524Y-2.3033
X4.9154Y-2.1784
X4.9154Y-2.2769
X4.9783Y-2.152
X5.2228Y-3.4193
X5.2492Y-3.4823
X5.3476Y-3.4823
X5.374Y-3.5453
X5.9245Y-2.3354
X5.9245Y-2.9354
X6.0245Y-2.3354
X6.0245Y-2.9354
X6.1245Y-2.3354
X6.1245Y-2.9354
X6.2245Y-2.3354
X6.2245Y-2.9354
X6.3245Y-2.3354
X6.3245Y-2.9354
X6.4445Y-2.3354
X6.4445Y-2.9354
X6.5445Y-2.3354
X6.5445Y-2.9354
X6.6445Y-2.3354
X6.6445Y-2.9354
X6.7445Y-2.3354
X6.7445Y-2.9354
X6.8445Y-2.3354
X6.8445Y-2.9354
X6.9645Y-2.3354
X6.9645Y-2.9354
X7.0645Y-2.3354
X7.0645Y-2.9354
X7.1645Y-2.3354
X7.1645Y-2.9354
X7.2645Y-2.3354
X7.2645Y-2.9354
X7.3645Y-2.3354
X7.3645Y-2.9354
T3
X4.0167Y-2.7573
X4.1152Y-2.9541
X4.2136Y-2.7573
T4
X4.29Y-3.22
X4.29Y-3.62
X4.45Y-3.22
X4.45Y-3.62
X7.19Y-3.1241
X7.19Y-3.38
X7.3672Y-3.1241
X7.3672Y-3.38
T5
X4.0728Y-3.6043
X4.077Y-2.108
X7.3465Y-3.6073
X7.3524Y-2.0984
M30
