%TF.GenerationSoftware,KiCad,Pcbnew,8.0.7*%
%TF.CreationDate,2025-05-12T19:41:04+03:00*%
%TF.ProjectId,esr_pr4,6573725f-7072-4342-9e6b-696361645f70,rev?*%
%TF.SameCoordinates,Original*%
%TF.FileFunction,Legend,Bot*%
%TF.FilePolarity,Positive*%
%FSLAX46Y46*%
G04 Gerber Fmt 4.6, Leading zero omitted, Abs format (unit mm)*
G04 Created by KiCad (PCBNEW 8.0.7) date 2025-05-12 19:41:04*
%MOMM*%
%LPD*%
G01*
G04 APERTURE LIST*
%ADD10C,0.150000*%
%ADD11C,0.120000*%
G04 APERTURE END LIST*
D10*
X186082819Y-68011142D02*
X185606628Y-67677809D01*
X186082819Y-67439714D02*
X185082819Y-67439714D01*
X185082819Y-67439714D02*
X185082819Y-67820666D01*
X185082819Y-67820666D02*
X185130438Y-67915904D01*
X185130438Y-67915904D02*
X185178057Y-67963523D01*
X185178057Y-67963523D02*
X185273295Y-68011142D01*
X185273295Y-68011142D02*
X185416152Y-68011142D01*
X185416152Y-68011142D02*
X185511390Y-67963523D01*
X185511390Y-67963523D02*
X185559009Y-67915904D01*
X185559009Y-67915904D02*
X185606628Y-67820666D01*
X185606628Y-67820666D02*
X185606628Y-67439714D01*
X185082819Y-68344476D02*
X185082819Y-68963523D01*
X185082819Y-68963523D02*
X185463771Y-68630190D01*
X185463771Y-68630190D02*
X185463771Y-68773047D01*
X185463771Y-68773047D02*
X185511390Y-68868285D01*
X185511390Y-68868285D02*
X185559009Y-68915904D01*
X185559009Y-68915904D02*
X185654247Y-68963523D01*
X185654247Y-68963523D02*
X185892342Y-68963523D01*
X185892342Y-68963523D02*
X185987580Y-68915904D01*
X185987580Y-68915904D02*
X186035200Y-68868285D01*
X186035200Y-68868285D02*
X186082819Y-68773047D01*
X186082819Y-68773047D02*
X186082819Y-68487333D01*
X186082819Y-68487333D02*
X186035200Y-68392095D01*
X186035200Y-68392095D02*
X185987580Y-68344476D01*
X185511390Y-69534952D02*
X185463771Y-69439714D01*
X185463771Y-69439714D02*
X185416152Y-69392095D01*
X185416152Y-69392095D02*
X185320914Y-69344476D01*
X185320914Y-69344476D02*
X185273295Y-69344476D01*
X185273295Y-69344476D02*
X185178057Y-69392095D01*
X185178057Y-69392095D02*
X185130438Y-69439714D01*
X185130438Y-69439714D02*
X185082819Y-69534952D01*
X185082819Y-69534952D02*
X185082819Y-69725428D01*
X185082819Y-69725428D02*
X185130438Y-69820666D01*
X185130438Y-69820666D02*
X185178057Y-69868285D01*
X185178057Y-69868285D02*
X185273295Y-69915904D01*
X185273295Y-69915904D02*
X185320914Y-69915904D01*
X185320914Y-69915904D02*
X185416152Y-69868285D01*
X185416152Y-69868285D02*
X185463771Y-69820666D01*
X185463771Y-69820666D02*
X185511390Y-69725428D01*
X185511390Y-69725428D02*
X185511390Y-69534952D01*
X185511390Y-69534952D02*
X185559009Y-69439714D01*
X185559009Y-69439714D02*
X185606628Y-69392095D01*
X185606628Y-69392095D02*
X185701866Y-69344476D01*
X185701866Y-69344476D02*
X185892342Y-69344476D01*
X185892342Y-69344476D02*
X185987580Y-69392095D01*
X185987580Y-69392095D02*
X186035200Y-69439714D01*
X186035200Y-69439714D02*
X186082819Y-69534952D01*
X186082819Y-69534952D02*
X186082819Y-69725428D01*
X186082819Y-69725428D02*
X186035200Y-69820666D01*
X186035200Y-69820666D02*
X185987580Y-69868285D01*
X185987580Y-69868285D02*
X185892342Y-69915904D01*
X185892342Y-69915904D02*
X185701866Y-69915904D01*
X185701866Y-69915904D02*
X185606628Y-69868285D01*
X185606628Y-69868285D02*
X185559009Y-69820666D01*
X185559009Y-69820666D02*
X185511390Y-69725428D01*
X154906819Y-63439142D02*
X154430628Y-63105809D01*
X154906819Y-62867714D02*
X153906819Y-62867714D01*
X153906819Y-62867714D02*
X153906819Y-63248666D01*
X153906819Y-63248666D02*
X153954438Y-63343904D01*
X153954438Y-63343904D02*
X154002057Y-63391523D01*
X154002057Y-63391523D02*
X154097295Y-63439142D01*
X154097295Y-63439142D02*
X154240152Y-63439142D01*
X154240152Y-63439142D02*
X154335390Y-63391523D01*
X154335390Y-63391523D02*
X154383009Y-63343904D01*
X154383009Y-63343904D02*
X154430628Y-63248666D01*
X154430628Y-63248666D02*
X154430628Y-62867714D01*
X154240152Y-64296285D02*
X154906819Y-64296285D01*
X153859200Y-64058190D02*
X154573485Y-63820095D01*
X154573485Y-63820095D02*
X154573485Y-64439142D01*
X154002057Y-64772476D02*
X153954438Y-64820095D01*
X153954438Y-64820095D02*
X153906819Y-64915333D01*
X153906819Y-64915333D02*
X153906819Y-65153428D01*
X153906819Y-65153428D02*
X153954438Y-65248666D01*
X153954438Y-65248666D02*
X154002057Y-65296285D01*
X154002057Y-65296285D02*
X154097295Y-65343904D01*
X154097295Y-65343904D02*
X154192533Y-65343904D01*
X154192533Y-65343904D02*
X154335390Y-65296285D01*
X154335390Y-65296285D02*
X154906819Y-64724857D01*
X154906819Y-64724857D02*
X154906819Y-65343904D01*
X158871857Y-70855819D02*
X159205190Y-70379628D01*
X159443285Y-70855819D02*
X159443285Y-69855819D01*
X159443285Y-69855819D02*
X159062333Y-69855819D01*
X159062333Y-69855819D02*
X158967095Y-69903438D01*
X158967095Y-69903438D02*
X158919476Y-69951057D01*
X158919476Y-69951057D02*
X158871857Y-70046295D01*
X158871857Y-70046295D02*
X158871857Y-70189152D01*
X158871857Y-70189152D02*
X158919476Y-70284390D01*
X158919476Y-70284390D02*
X158967095Y-70332009D01*
X158967095Y-70332009D02*
X159062333Y-70379628D01*
X159062333Y-70379628D02*
X159443285Y-70379628D01*
X158490904Y-69951057D02*
X158443285Y-69903438D01*
X158443285Y-69903438D02*
X158348047Y-69855819D01*
X158348047Y-69855819D02*
X158109952Y-69855819D01*
X158109952Y-69855819D02*
X158014714Y-69903438D01*
X158014714Y-69903438D02*
X157967095Y-69951057D01*
X157967095Y-69951057D02*
X157919476Y-70046295D01*
X157919476Y-70046295D02*
X157919476Y-70141533D01*
X157919476Y-70141533D02*
X157967095Y-70284390D01*
X157967095Y-70284390D02*
X158538523Y-70855819D01*
X158538523Y-70855819D02*
X157919476Y-70855819D01*
X157586142Y-69855819D02*
X156967095Y-69855819D01*
X156967095Y-69855819D02*
X157300428Y-70236771D01*
X157300428Y-70236771D02*
X157157571Y-70236771D01*
X157157571Y-70236771D02*
X157062333Y-70284390D01*
X157062333Y-70284390D02*
X157014714Y-70332009D01*
X157014714Y-70332009D02*
X156967095Y-70427247D01*
X156967095Y-70427247D02*
X156967095Y-70665342D01*
X156967095Y-70665342D02*
X157014714Y-70760580D01*
X157014714Y-70760580D02*
X157062333Y-70808200D01*
X157062333Y-70808200D02*
X157157571Y-70855819D01*
X157157571Y-70855819D02*
X157443285Y-70855819D01*
X157443285Y-70855819D02*
X157538523Y-70808200D01*
X157538523Y-70808200D02*
X157586142Y-70760580D01*
X182388057Y-65495309D02*
X182340438Y-65400071D01*
X182340438Y-65400071D02*
X182245200Y-65304833D01*
X182245200Y-65304833D02*
X182102342Y-65161976D01*
X182102342Y-65161976D02*
X182054723Y-65066738D01*
X182054723Y-65066738D02*
X182054723Y-64971500D01*
X182292819Y-65019119D02*
X182245200Y-64923881D01*
X182245200Y-64923881D02*
X182149961Y-64828643D01*
X182149961Y-64828643D02*
X181959485Y-64781024D01*
X181959485Y-64781024D02*
X181626152Y-64781024D01*
X181626152Y-64781024D02*
X181435676Y-64828643D01*
X181435676Y-64828643D02*
X181340438Y-64923881D01*
X181340438Y-64923881D02*
X181292819Y-65019119D01*
X181292819Y-65019119D02*
X181292819Y-65209595D01*
X181292819Y-65209595D02*
X181340438Y-65304833D01*
X181340438Y-65304833D02*
X181435676Y-65400071D01*
X181435676Y-65400071D02*
X181626152Y-65447690D01*
X181626152Y-65447690D02*
X181959485Y-65447690D01*
X181959485Y-65447690D02*
X182149961Y-65400071D01*
X182149961Y-65400071D02*
X182245200Y-65304833D01*
X182245200Y-65304833D02*
X182292819Y-65209595D01*
X182292819Y-65209595D02*
X182292819Y-65019119D01*
X181292819Y-65733405D02*
X181292819Y-66304833D01*
X182292819Y-66019119D02*
X181292819Y-66019119D01*
X181292819Y-66542929D02*
X181292819Y-67161976D01*
X181292819Y-67161976D02*
X181673771Y-66828643D01*
X181673771Y-66828643D02*
X181673771Y-66971500D01*
X181673771Y-66971500D02*
X181721390Y-67066738D01*
X181721390Y-67066738D02*
X181769009Y-67114357D01*
X181769009Y-67114357D02*
X181864247Y-67161976D01*
X181864247Y-67161976D02*
X182102342Y-67161976D01*
X182102342Y-67161976D02*
X182197580Y-67114357D01*
X182197580Y-67114357D02*
X182245200Y-67066738D01*
X182245200Y-67066738D02*
X182292819Y-66971500D01*
X182292819Y-66971500D02*
X182292819Y-66685786D01*
X182292819Y-66685786D02*
X182245200Y-66590548D01*
X182245200Y-66590548D02*
X182197580Y-66542929D01*
X152046819Y-68773142D02*
X151570628Y-68439809D01*
X152046819Y-68201714D02*
X151046819Y-68201714D01*
X151046819Y-68201714D02*
X151046819Y-68582666D01*
X151046819Y-68582666D02*
X151094438Y-68677904D01*
X151094438Y-68677904D02*
X151142057Y-68725523D01*
X151142057Y-68725523D02*
X151237295Y-68773142D01*
X151237295Y-68773142D02*
X151380152Y-68773142D01*
X151380152Y-68773142D02*
X151475390Y-68725523D01*
X151475390Y-68725523D02*
X151523009Y-68677904D01*
X151523009Y-68677904D02*
X151570628Y-68582666D01*
X151570628Y-68582666D02*
X151570628Y-68201714D01*
X151046819Y-69106476D02*
X151046819Y-69725523D01*
X151046819Y-69725523D02*
X151427771Y-69392190D01*
X151427771Y-69392190D02*
X151427771Y-69535047D01*
X151427771Y-69535047D02*
X151475390Y-69630285D01*
X151475390Y-69630285D02*
X151523009Y-69677904D01*
X151523009Y-69677904D02*
X151618247Y-69725523D01*
X151618247Y-69725523D02*
X151856342Y-69725523D01*
X151856342Y-69725523D02*
X151951580Y-69677904D01*
X151951580Y-69677904D02*
X151999200Y-69630285D01*
X151999200Y-69630285D02*
X152046819Y-69535047D01*
X152046819Y-69535047D02*
X152046819Y-69249333D01*
X152046819Y-69249333D02*
X151999200Y-69154095D01*
X151999200Y-69154095D02*
X151951580Y-69106476D01*
X151046819Y-70582666D02*
X151046819Y-70392190D01*
X151046819Y-70392190D02*
X151094438Y-70296952D01*
X151094438Y-70296952D02*
X151142057Y-70249333D01*
X151142057Y-70249333D02*
X151284914Y-70154095D01*
X151284914Y-70154095D02*
X151475390Y-70106476D01*
X151475390Y-70106476D02*
X151856342Y-70106476D01*
X151856342Y-70106476D02*
X151951580Y-70154095D01*
X151951580Y-70154095D02*
X151999200Y-70201714D01*
X151999200Y-70201714D02*
X152046819Y-70296952D01*
X152046819Y-70296952D02*
X152046819Y-70487428D01*
X152046819Y-70487428D02*
X151999200Y-70582666D01*
X151999200Y-70582666D02*
X151951580Y-70630285D01*
X151951580Y-70630285D02*
X151856342Y-70677904D01*
X151856342Y-70677904D02*
X151618247Y-70677904D01*
X151618247Y-70677904D02*
X151523009Y-70630285D01*
X151523009Y-70630285D02*
X151475390Y-70582666D01*
X151475390Y-70582666D02*
X151427771Y-70487428D01*
X151427771Y-70487428D02*
X151427771Y-70296952D01*
X151427771Y-70296952D02*
X151475390Y-70201714D01*
X151475390Y-70201714D02*
X151523009Y-70154095D01*
X151523009Y-70154095D02*
X151618247Y-70106476D01*
X171720057Y-65495309D02*
X171672438Y-65400071D01*
X171672438Y-65400071D02*
X171577200Y-65304833D01*
X171577200Y-65304833D02*
X171434342Y-65161976D01*
X171434342Y-65161976D02*
X171386723Y-65066738D01*
X171386723Y-65066738D02*
X171386723Y-64971500D01*
X171624819Y-65019119D02*
X171577200Y-64923881D01*
X171577200Y-64923881D02*
X171481961Y-64828643D01*
X171481961Y-64828643D02*
X171291485Y-64781024D01*
X171291485Y-64781024D02*
X170958152Y-64781024D01*
X170958152Y-64781024D02*
X170767676Y-64828643D01*
X170767676Y-64828643D02*
X170672438Y-64923881D01*
X170672438Y-64923881D02*
X170624819Y-65019119D01*
X170624819Y-65019119D02*
X170624819Y-65209595D01*
X170624819Y-65209595D02*
X170672438Y-65304833D01*
X170672438Y-65304833D02*
X170767676Y-65400071D01*
X170767676Y-65400071D02*
X170958152Y-65447690D01*
X170958152Y-65447690D02*
X171291485Y-65447690D01*
X171291485Y-65447690D02*
X171481961Y-65400071D01*
X171481961Y-65400071D02*
X171577200Y-65304833D01*
X171577200Y-65304833D02*
X171624819Y-65209595D01*
X171624819Y-65209595D02*
X171624819Y-65019119D01*
X170624819Y-65733405D02*
X170624819Y-66304833D01*
X171624819Y-66019119D02*
X170624819Y-66019119D01*
X170720057Y-66590548D02*
X170672438Y-66638167D01*
X170672438Y-66638167D02*
X170624819Y-66733405D01*
X170624819Y-66733405D02*
X170624819Y-66971500D01*
X170624819Y-66971500D02*
X170672438Y-67066738D01*
X170672438Y-67066738D02*
X170720057Y-67114357D01*
X170720057Y-67114357D02*
X170815295Y-67161976D01*
X170815295Y-67161976D02*
X170910533Y-67161976D01*
X170910533Y-67161976D02*
X171053390Y-67114357D01*
X171053390Y-67114357D02*
X171624819Y-66542929D01*
X171624819Y-66542929D02*
X171624819Y-67161976D01*
X186402819Y-64201142D02*
X185926628Y-63867809D01*
X186402819Y-63629714D02*
X185402819Y-63629714D01*
X185402819Y-63629714D02*
X185402819Y-64010666D01*
X185402819Y-64010666D02*
X185450438Y-64105904D01*
X185450438Y-64105904D02*
X185498057Y-64153523D01*
X185498057Y-64153523D02*
X185593295Y-64201142D01*
X185593295Y-64201142D02*
X185736152Y-64201142D01*
X185736152Y-64201142D02*
X185831390Y-64153523D01*
X185831390Y-64153523D02*
X185879009Y-64105904D01*
X185879009Y-64105904D02*
X185926628Y-64010666D01*
X185926628Y-64010666D02*
X185926628Y-63629714D01*
X185736152Y-65058285D02*
X186402819Y-65058285D01*
X185355200Y-64820190D02*
X186069485Y-64582095D01*
X186069485Y-64582095D02*
X186069485Y-65201142D01*
X186402819Y-66105904D02*
X186402819Y-65534476D01*
X186402819Y-65820190D02*
X185402819Y-65820190D01*
X185402819Y-65820190D02*
X185545676Y-65724952D01*
X185545676Y-65724952D02*
X185640914Y-65629714D01*
X185640914Y-65629714D02*
X185688533Y-65534476D01*
X149506819Y-68773142D02*
X149030628Y-68439809D01*
X149506819Y-68201714D02*
X148506819Y-68201714D01*
X148506819Y-68201714D02*
X148506819Y-68582666D01*
X148506819Y-68582666D02*
X148554438Y-68677904D01*
X148554438Y-68677904D02*
X148602057Y-68725523D01*
X148602057Y-68725523D02*
X148697295Y-68773142D01*
X148697295Y-68773142D02*
X148840152Y-68773142D01*
X148840152Y-68773142D02*
X148935390Y-68725523D01*
X148935390Y-68725523D02*
X148983009Y-68677904D01*
X148983009Y-68677904D02*
X149030628Y-68582666D01*
X149030628Y-68582666D02*
X149030628Y-68201714D01*
X148506819Y-69106476D02*
X148506819Y-69725523D01*
X148506819Y-69725523D02*
X148887771Y-69392190D01*
X148887771Y-69392190D02*
X148887771Y-69535047D01*
X148887771Y-69535047D02*
X148935390Y-69630285D01*
X148935390Y-69630285D02*
X148983009Y-69677904D01*
X148983009Y-69677904D02*
X149078247Y-69725523D01*
X149078247Y-69725523D02*
X149316342Y-69725523D01*
X149316342Y-69725523D02*
X149411580Y-69677904D01*
X149411580Y-69677904D02*
X149459200Y-69630285D01*
X149459200Y-69630285D02*
X149506819Y-69535047D01*
X149506819Y-69535047D02*
X149506819Y-69249333D01*
X149506819Y-69249333D02*
X149459200Y-69154095D01*
X149459200Y-69154095D02*
X149411580Y-69106476D01*
X148506819Y-70058857D02*
X148506819Y-70725523D01*
X148506819Y-70725523D02*
X149506819Y-70296952D01*
X188942819Y-64264142D02*
X188466628Y-63930809D01*
X188942819Y-63692714D02*
X187942819Y-63692714D01*
X187942819Y-63692714D02*
X187942819Y-64073666D01*
X187942819Y-64073666D02*
X187990438Y-64168904D01*
X187990438Y-64168904D02*
X188038057Y-64216523D01*
X188038057Y-64216523D02*
X188133295Y-64264142D01*
X188133295Y-64264142D02*
X188276152Y-64264142D01*
X188276152Y-64264142D02*
X188371390Y-64216523D01*
X188371390Y-64216523D02*
X188419009Y-64168904D01*
X188419009Y-64168904D02*
X188466628Y-64073666D01*
X188466628Y-64073666D02*
X188466628Y-63692714D01*
X188276152Y-65121285D02*
X188942819Y-65121285D01*
X187895200Y-64883190D02*
X188609485Y-64645095D01*
X188609485Y-64645095D02*
X188609485Y-65264142D01*
X187942819Y-65549857D02*
X187942819Y-66168904D01*
X187942819Y-66168904D02*
X188323771Y-65835571D01*
X188323771Y-65835571D02*
X188323771Y-65978428D01*
X188323771Y-65978428D02*
X188371390Y-66073666D01*
X188371390Y-66073666D02*
X188419009Y-66121285D01*
X188419009Y-66121285D02*
X188514247Y-66168904D01*
X188514247Y-66168904D02*
X188752342Y-66168904D01*
X188752342Y-66168904D02*
X188847580Y-66121285D01*
X188847580Y-66121285D02*
X188895200Y-66073666D01*
X188895200Y-66073666D02*
X188942819Y-65978428D01*
X188942819Y-65978428D02*
X188942819Y-65692714D01*
X188942819Y-65692714D02*
X188895200Y-65597476D01*
X188895200Y-65597476D02*
X188847580Y-65549857D01*
X161052057Y-65495309D02*
X161004438Y-65400071D01*
X161004438Y-65400071D02*
X160909200Y-65304833D01*
X160909200Y-65304833D02*
X160766342Y-65161976D01*
X160766342Y-65161976D02*
X160718723Y-65066738D01*
X160718723Y-65066738D02*
X160718723Y-64971500D01*
X160956819Y-65019119D02*
X160909200Y-64923881D01*
X160909200Y-64923881D02*
X160813961Y-64828643D01*
X160813961Y-64828643D02*
X160623485Y-64781024D01*
X160623485Y-64781024D02*
X160290152Y-64781024D01*
X160290152Y-64781024D02*
X160099676Y-64828643D01*
X160099676Y-64828643D02*
X160004438Y-64923881D01*
X160004438Y-64923881D02*
X159956819Y-65019119D01*
X159956819Y-65019119D02*
X159956819Y-65209595D01*
X159956819Y-65209595D02*
X160004438Y-65304833D01*
X160004438Y-65304833D02*
X160099676Y-65400071D01*
X160099676Y-65400071D02*
X160290152Y-65447690D01*
X160290152Y-65447690D02*
X160623485Y-65447690D01*
X160623485Y-65447690D02*
X160813961Y-65400071D01*
X160813961Y-65400071D02*
X160909200Y-65304833D01*
X160909200Y-65304833D02*
X160956819Y-65209595D01*
X160956819Y-65209595D02*
X160956819Y-65019119D01*
X159956819Y-65733405D02*
X159956819Y-66304833D01*
X160956819Y-66019119D02*
X159956819Y-66019119D01*
X160956819Y-67161976D02*
X160956819Y-66590548D01*
X160956819Y-66876262D02*
X159956819Y-66876262D01*
X159956819Y-66876262D02*
X160099676Y-66781024D01*
X160099676Y-66781024D02*
X160194914Y-66685786D01*
X160194914Y-66685786D02*
X160242533Y-66590548D01*
X183542819Y-68074142D02*
X183066628Y-67740809D01*
X183542819Y-67502714D02*
X182542819Y-67502714D01*
X182542819Y-67502714D02*
X182542819Y-67883666D01*
X182542819Y-67883666D02*
X182590438Y-67978904D01*
X182590438Y-67978904D02*
X182638057Y-68026523D01*
X182638057Y-68026523D02*
X182733295Y-68074142D01*
X182733295Y-68074142D02*
X182876152Y-68074142D01*
X182876152Y-68074142D02*
X182971390Y-68026523D01*
X182971390Y-68026523D02*
X183019009Y-67978904D01*
X183019009Y-67978904D02*
X183066628Y-67883666D01*
X183066628Y-67883666D02*
X183066628Y-67502714D01*
X182542819Y-68407476D02*
X182542819Y-69026523D01*
X182542819Y-69026523D02*
X182923771Y-68693190D01*
X182923771Y-68693190D02*
X182923771Y-68836047D01*
X182923771Y-68836047D02*
X182971390Y-68931285D01*
X182971390Y-68931285D02*
X183019009Y-68978904D01*
X183019009Y-68978904D02*
X183114247Y-69026523D01*
X183114247Y-69026523D02*
X183352342Y-69026523D01*
X183352342Y-69026523D02*
X183447580Y-68978904D01*
X183447580Y-68978904D02*
X183495200Y-68931285D01*
X183495200Y-68931285D02*
X183542819Y-68836047D01*
X183542819Y-68836047D02*
X183542819Y-68550333D01*
X183542819Y-68550333D02*
X183495200Y-68455095D01*
X183495200Y-68455095D02*
X183447580Y-68407476D01*
X183542819Y-69502714D02*
X183542819Y-69693190D01*
X183542819Y-69693190D02*
X183495200Y-69788428D01*
X183495200Y-69788428D02*
X183447580Y-69836047D01*
X183447580Y-69836047D02*
X183304723Y-69931285D01*
X183304723Y-69931285D02*
X183114247Y-69978904D01*
X183114247Y-69978904D02*
X182733295Y-69978904D01*
X182733295Y-69978904D02*
X182638057Y-69931285D01*
X182638057Y-69931285D02*
X182590438Y-69883666D01*
X182590438Y-69883666D02*
X182542819Y-69788428D01*
X182542819Y-69788428D02*
X182542819Y-69597952D01*
X182542819Y-69597952D02*
X182590438Y-69502714D01*
X182590438Y-69502714D02*
X182638057Y-69455095D01*
X182638057Y-69455095D02*
X182733295Y-69407476D01*
X182733295Y-69407476D02*
X182971390Y-69407476D01*
X182971390Y-69407476D02*
X183066628Y-69455095D01*
X183066628Y-69455095D02*
X183114247Y-69502714D01*
X183114247Y-69502714D02*
X183161866Y-69597952D01*
X183161866Y-69597952D02*
X183161866Y-69788428D01*
X183161866Y-69788428D02*
X183114247Y-69883666D01*
X183114247Y-69883666D02*
X183066628Y-69931285D01*
X183066628Y-69931285D02*
X182971390Y-69978904D01*
X152366819Y-63439142D02*
X151890628Y-63105809D01*
X152366819Y-62867714D02*
X151366819Y-62867714D01*
X151366819Y-62867714D02*
X151366819Y-63248666D01*
X151366819Y-63248666D02*
X151414438Y-63343904D01*
X151414438Y-63343904D02*
X151462057Y-63391523D01*
X151462057Y-63391523D02*
X151557295Y-63439142D01*
X151557295Y-63439142D02*
X151700152Y-63439142D01*
X151700152Y-63439142D02*
X151795390Y-63391523D01*
X151795390Y-63391523D02*
X151843009Y-63343904D01*
X151843009Y-63343904D02*
X151890628Y-63248666D01*
X151890628Y-63248666D02*
X151890628Y-62867714D01*
X151700152Y-64296285D02*
X152366819Y-64296285D01*
X151319200Y-64058190D02*
X152033485Y-63820095D01*
X152033485Y-63820095D02*
X152033485Y-64439142D01*
X151366819Y-65010571D02*
X151366819Y-65105809D01*
X151366819Y-65105809D02*
X151414438Y-65201047D01*
X151414438Y-65201047D02*
X151462057Y-65248666D01*
X151462057Y-65248666D02*
X151557295Y-65296285D01*
X151557295Y-65296285D02*
X151747771Y-65343904D01*
X151747771Y-65343904D02*
X151985866Y-65343904D01*
X151985866Y-65343904D02*
X152176342Y-65296285D01*
X152176342Y-65296285D02*
X152271580Y-65248666D01*
X152271580Y-65248666D02*
X152319200Y-65201047D01*
X152319200Y-65201047D02*
X152366819Y-65105809D01*
X152366819Y-65105809D02*
X152366819Y-65010571D01*
X152366819Y-65010571D02*
X152319200Y-64915333D01*
X152319200Y-64915333D02*
X152271580Y-64867714D01*
X152271580Y-64867714D02*
X152176342Y-64820095D01*
X152176342Y-64820095D02*
X151985866Y-64772476D01*
X151985866Y-64772476D02*
X151747771Y-64772476D01*
X151747771Y-64772476D02*
X151557295Y-64820095D01*
X151557295Y-64820095D02*
X151462057Y-64867714D01*
X151462057Y-64867714D02*
X151414438Y-64915333D01*
X151414438Y-64915333D02*
X151366819Y-65010571D01*
X180144857Y-70728819D02*
X180478190Y-70252628D01*
X180716285Y-70728819D02*
X180716285Y-69728819D01*
X180716285Y-69728819D02*
X180335333Y-69728819D01*
X180335333Y-69728819D02*
X180240095Y-69776438D01*
X180240095Y-69776438D02*
X180192476Y-69824057D01*
X180192476Y-69824057D02*
X180144857Y-69919295D01*
X180144857Y-69919295D02*
X180144857Y-70062152D01*
X180144857Y-70062152D02*
X180192476Y-70157390D01*
X180192476Y-70157390D02*
X180240095Y-70205009D01*
X180240095Y-70205009D02*
X180335333Y-70252628D01*
X180335333Y-70252628D02*
X180716285Y-70252628D01*
X179763904Y-69824057D02*
X179716285Y-69776438D01*
X179716285Y-69776438D02*
X179621047Y-69728819D01*
X179621047Y-69728819D02*
X179382952Y-69728819D01*
X179382952Y-69728819D02*
X179287714Y-69776438D01*
X179287714Y-69776438D02*
X179240095Y-69824057D01*
X179240095Y-69824057D02*
X179192476Y-69919295D01*
X179192476Y-69919295D02*
X179192476Y-70014533D01*
X179192476Y-70014533D02*
X179240095Y-70157390D01*
X179240095Y-70157390D02*
X179811523Y-70728819D01*
X179811523Y-70728819D02*
X179192476Y-70728819D01*
X178335333Y-69728819D02*
X178525809Y-69728819D01*
X178525809Y-69728819D02*
X178621047Y-69776438D01*
X178621047Y-69776438D02*
X178668666Y-69824057D01*
X178668666Y-69824057D02*
X178763904Y-69966914D01*
X178763904Y-69966914D02*
X178811523Y-70157390D01*
X178811523Y-70157390D02*
X178811523Y-70538342D01*
X178811523Y-70538342D02*
X178763904Y-70633580D01*
X178763904Y-70633580D02*
X178716285Y-70681200D01*
X178716285Y-70681200D02*
X178621047Y-70728819D01*
X178621047Y-70728819D02*
X178430571Y-70728819D01*
X178430571Y-70728819D02*
X178335333Y-70681200D01*
X178335333Y-70681200D02*
X178287714Y-70633580D01*
X178287714Y-70633580D02*
X178240095Y-70538342D01*
X178240095Y-70538342D02*
X178240095Y-70300247D01*
X178240095Y-70300247D02*
X178287714Y-70205009D01*
X178287714Y-70205009D02*
X178335333Y-70157390D01*
X178335333Y-70157390D02*
X178430571Y-70109771D01*
X178430571Y-70109771D02*
X178621047Y-70109771D01*
X178621047Y-70109771D02*
X178716285Y-70157390D01*
X178716285Y-70157390D02*
X178763904Y-70205009D01*
X178763904Y-70205009D02*
X178811523Y-70300247D01*
X169539857Y-70855819D02*
X169873190Y-70379628D01*
X170111285Y-70855819D02*
X170111285Y-69855819D01*
X170111285Y-69855819D02*
X169730333Y-69855819D01*
X169730333Y-69855819D02*
X169635095Y-69903438D01*
X169635095Y-69903438D02*
X169587476Y-69951057D01*
X169587476Y-69951057D02*
X169539857Y-70046295D01*
X169539857Y-70046295D02*
X169539857Y-70189152D01*
X169539857Y-70189152D02*
X169587476Y-70284390D01*
X169587476Y-70284390D02*
X169635095Y-70332009D01*
X169635095Y-70332009D02*
X169730333Y-70379628D01*
X169730333Y-70379628D02*
X170111285Y-70379628D01*
X169158904Y-69951057D02*
X169111285Y-69903438D01*
X169111285Y-69903438D02*
X169016047Y-69855819D01*
X169016047Y-69855819D02*
X168777952Y-69855819D01*
X168777952Y-69855819D02*
X168682714Y-69903438D01*
X168682714Y-69903438D02*
X168635095Y-69951057D01*
X168635095Y-69951057D02*
X168587476Y-70046295D01*
X168587476Y-70046295D02*
X168587476Y-70141533D01*
X168587476Y-70141533D02*
X168635095Y-70284390D01*
X168635095Y-70284390D02*
X169206523Y-70855819D01*
X169206523Y-70855819D02*
X168587476Y-70855819D01*
X167730333Y-70189152D02*
X167730333Y-70855819D01*
X167968428Y-69808200D02*
X168206523Y-70522485D01*
X168206523Y-70522485D02*
X167587476Y-70522485D01*
D11*
%TO.C,R38*%
X186535500Y-68416742D02*
X186535500Y-68891258D01*
X187580500Y-68416742D02*
X187580500Y-68891258D01*
%TO.C,R42*%
X152499500Y-64319258D02*
X152499500Y-63844742D01*
X153544500Y-64319258D02*
X153544500Y-63844742D01*
%TO.C,R23*%
X157991742Y-68448500D02*
X158466258Y-68448500D01*
X157991742Y-69493500D02*
X158466258Y-69493500D01*
%TO.C,QT3*%
X177878000Y-65321500D02*
X177878000Y-65971500D01*
X177878000Y-66621500D02*
X177878000Y-65971500D01*
X180998000Y-65321500D02*
X180998000Y-65971500D01*
X180998000Y-66621500D02*
X180998000Y-65971500D01*
X181278000Y-67374000D02*
X180948000Y-67134000D01*
X181278000Y-66894000D01*
X181278000Y-67374000D01*
G36*
X181278000Y-67374000D02*
G01*
X180948000Y-67134000D01*
X181278000Y-66894000D01*
X181278000Y-67374000D01*
G37*
%TO.C,R36*%
X152499500Y-69178742D02*
X152499500Y-69653258D01*
X153544500Y-69178742D02*
X153544500Y-69653258D01*
%TO.C,QT2*%
X167210000Y-65321500D02*
X167210000Y-65971500D01*
X167210000Y-66621500D02*
X167210000Y-65971500D01*
X170330000Y-65321500D02*
X170330000Y-65971500D01*
X170330000Y-66621500D02*
X170330000Y-65971500D01*
X170610000Y-67374000D02*
X170280000Y-67134000D01*
X170610000Y-66894000D01*
X170610000Y-67374000D01*
G36*
X170610000Y-67374000D02*
G01*
X170280000Y-67134000D01*
X170610000Y-66894000D01*
X170610000Y-67374000D01*
G37*
%TO.C,R41*%
X183995500Y-65081258D02*
X183995500Y-64606742D01*
X185040500Y-65081258D02*
X185040500Y-64606742D01*
%TO.C,R37*%
X149959500Y-69178742D02*
X149959500Y-69653258D01*
X151004500Y-69178742D02*
X151004500Y-69653258D01*
%TO.C,R43*%
X186535500Y-65144258D02*
X186535500Y-64669742D01*
X187580500Y-65144258D02*
X187580500Y-64669742D01*
%TO.C,QT1*%
X156542000Y-65321500D02*
X156542000Y-65971500D01*
X156542000Y-66621500D02*
X156542000Y-65971500D01*
X159662000Y-65321500D02*
X159662000Y-65971500D01*
X159662000Y-66621500D02*
X159662000Y-65971500D01*
X159942000Y-67374000D02*
X159612000Y-67134000D01*
X159942000Y-66894000D01*
X159942000Y-67374000D01*
G36*
X159942000Y-67374000D02*
G01*
X159612000Y-67134000D01*
X159942000Y-66894000D01*
X159942000Y-67374000D01*
G37*
%TO.C,R39*%
X183995500Y-68479742D02*
X183995500Y-68954258D01*
X185040500Y-68479742D02*
X185040500Y-68954258D01*
%TO.C,R40*%
X149959500Y-64319258D02*
X149959500Y-63844742D01*
X151004500Y-64319258D02*
X151004500Y-63844742D01*
%TO.C,R26*%
X179264742Y-68321500D02*
X179739258Y-68321500D01*
X179264742Y-69366500D02*
X179739258Y-69366500D01*
%TO.C,R24*%
X168659742Y-68448500D02*
X169134258Y-68448500D01*
X168659742Y-69493500D02*
X169134258Y-69493500D01*
%TD*%
M02*
