%TF.GenerationSoftware,KiCad,Pcbnew,8.0.7*%
%TF.CreationDate,2025-05-12T19:41:04+03:00*%
%TF.ProjectId,esr_pr4,6573725f-7072-4342-9e6b-696361645f70,rev?*%
%TF.SameCoordinates,Original*%
%TF.FileFunction,Soldermask,Bot*%
%TF.FilePolarity,Negative*%
%FSLAX46Y46*%
G04 Gerber Fmt 4.6, Leading zero omitted, Abs format (unit mm)*
G04 Created by KiCad (PCBNEW 8.0.7) date 2025-05-12 19:41:04*
%MOMM*%
%LPD*%
G01*
G04 APERTURE LIST*
G04 Aperture macros list*
%AMRoundRect*
0 Rectangle with rounded corners*
0 $1 Rounding radius*
0 $2 $3 $4 $5 $6 $7 $8 $9 X,Y pos of 4 corners*
0 Add a 4 corners polygon primitive as box body*
4,1,4,$2,$3,$4,$5,$6,$7,$8,$9,$2,$3,0*
0 Add four circle primitives for the rounded corners*
1,1,$1+$1,$2,$3*
1,1,$1+$1,$4,$5*
1,1,$1+$1,$6,$7*
1,1,$1+$1,$8,$9*
0 Add four rect primitives between the rounded corners*
20,1,$1+$1,$2,$3,$4,$5,0*
20,1,$1+$1,$4,$5,$6,$7,0*
20,1,$1+$1,$6,$7,$8,$9,0*
20,1,$1+$1,$8,$9,$2,$3,0*%
G04 Aperture macros list end*
%ADD10C,3.600000*%
%ADD11C,5.600000*%
%ADD12R,1.524000X2.524000*%
%ADD13O,1.524000X2.524000*%
%ADD14R,1.600000X1.600000*%
%ADD15C,1.600000*%
%ADD16R,1.560000X1.560000*%
%ADD17C,1.560000*%
%ADD18C,2.000000*%
%ADD19R,2.200000X2.200000*%
%ADD20O,2.200000X2.200000*%
%ADD21RoundRect,0.200000X-0.275000X0.200000X-0.275000X-0.200000X0.275000X-0.200000X0.275000X0.200000X0*%
%ADD22RoundRect,0.200000X0.275000X-0.200000X0.275000X0.200000X-0.275000X0.200000X-0.275000X-0.200000X0*%
%ADD23RoundRect,0.200000X-0.200000X-0.275000X0.200000X-0.275000X0.200000X0.275000X-0.200000X0.275000X0*%
%ADD24RoundRect,0.150000X0.150000X-0.587500X0.150000X0.587500X-0.150000X0.587500X-0.150000X-0.587500X0*%
G04 APERTURE END LIST*
D10*
%TO.C,H1*%
X103555800Y-53543200D03*
D11*
X103555800Y-53543200D03*
%TD*%
D10*
%TO.C,H4*%
X186750000Y-53300000D03*
D11*
X186750000Y-53300000D03*
%TD*%
D12*
%TO.C,AFF2*%
X163690000Y-74559000D03*
D13*
X166230000Y-74559000D03*
X168770000Y-74559000D03*
X171310000Y-74559000D03*
X173850000Y-74559000D03*
X173850000Y-59319000D03*
X171310000Y-59319000D03*
X168770000Y-59319000D03*
X166230000Y-59319000D03*
X163690000Y-59319000D03*
%TD*%
D10*
%TO.C,H2*%
X186600000Y-91625000D03*
D11*
X186600000Y-91625000D03*
%TD*%
D14*
%TO.C,CP4*%
X132658126Y-86850000D03*
X133329063Y-88450000D03*
D15*
X135829063Y-88450000D03*
X136500000Y-90050000D03*
%TD*%
D16*
%TO.C,RV21*%
X102025000Y-70035000D03*
D17*
X104525000Y-75035000D03*
X107025000Y-70035000D03*
%TD*%
D18*
%TO.C,SW1*%
X182626000Y-85852000D03*
X182626000Y-79352000D03*
X187126000Y-85852000D03*
X187126000Y-79352000D03*
%TD*%
D14*
%TO.C,CP6*%
X118709063Y-85268000D03*
X119380000Y-86868000D03*
D15*
X121880000Y-86868000D03*
X122550937Y-88468000D03*
%TD*%
D19*
%TO.C,D7*%
X108966000Y-81788000D03*
D20*
X108966000Y-91948000D03*
%TD*%
D19*
%TO.C,D8*%
X113030000Y-91948000D03*
D20*
X113030000Y-81788000D03*
%TD*%
D14*
%TO.C,CP3*%
X110820200Y-52236488D03*
D15*
X110820200Y-54736488D03*
%TD*%
D10*
%TO.C,H3*%
X103450000Y-91550000D03*
D11*
X103450000Y-91550000D03*
%TD*%
D14*
%TO.C,CP5*%
X116370937Y-74175000D03*
X115700000Y-72575000D03*
D15*
X113200000Y-72575000D03*
X112529063Y-70975000D03*
%TD*%
D12*
%TO.C,AFF3*%
X176898000Y-74559000D03*
D13*
X179438000Y-74559000D03*
X181978000Y-74559000D03*
X184518000Y-74559000D03*
X187058000Y-74559000D03*
X187058000Y-59319000D03*
X184518000Y-59319000D03*
X181978000Y-59319000D03*
X179438000Y-59319000D03*
X176898000Y-59319000D03*
%TD*%
D14*
%TO.C,CP10*%
X126450000Y-54661386D03*
X124850000Y-55332323D03*
D15*
X124850000Y-57832323D03*
X123250000Y-58503260D03*
%TD*%
D12*
%TO.C,AFF1*%
X150482000Y-74559000D03*
D13*
X153022000Y-74559000D03*
X155562000Y-74559000D03*
X158102000Y-74559000D03*
X160642000Y-74559000D03*
X160642000Y-59319000D03*
X158102000Y-59319000D03*
X155562000Y-59319000D03*
X153022000Y-59319000D03*
X150482000Y-59319000D03*
%TD*%
D21*
%TO.C,R38*%
X187058000Y-67829000D03*
X187058000Y-69479000D03*
%TD*%
D22*
%TO.C,R42*%
X153022000Y-64907000D03*
X153022000Y-63257000D03*
%TD*%
D23*
%TO.C,R23*%
X157404000Y-68971000D03*
X159054000Y-68971000D03*
%TD*%
D24*
%TO.C,QT3*%
X180388000Y-66909000D03*
X178488000Y-66909000D03*
X179438000Y-65034000D03*
%TD*%
D21*
%TO.C,R36*%
X153022000Y-68591000D03*
X153022000Y-70241000D03*
%TD*%
D24*
%TO.C,QT2*%
X169720000Y-66909000D03*
X167820000Y-66909000D03*
X168770000Y-65034000D03*
%TD*%
D22*
%TO.C,R41*%
X184518000Y-65669000D03*
X184518000Y-64019000D03*
%TD*%
D21*
%TO.C,R37*%
X150482000Y-68591000D03*
X150482000Y-70241000D03*
%TD*%
D22*
%TO.C,R43*%
X187058000Y-65732000D03*
X187058000Y-64082000D03*
%TD*%
D24*
%TO.C,QT1*%
X159052000Y-66909000D03*
X157152000Y-66909000D03*
X158102000Y-65034000D03*
%TD*%
D21*
%TO.C,R39*%
X184518000Y-67892000D03*
X184518000Y-69542000D03*
%TD*%
D22*
%TO.C,R40*%
X150482000Y-64907000D03*
X150482000Y-63257000D03*
%TD*%
D23*
%TO.C,R26*%
X178677000Y-68844000D03*
X180327000Y-68844000D03*
%TD*%
%TO.C,R24*%
X168072000Y-68971000D03*
X169722000Y-68971000D03*
%TD*%
M02*
