%TF.GenerationSoftware,KiCad,Pcbnew,8.0.7*%
%TF.CreationDate,2025-05-12T19:41:04+03:00*%
%TF.ProjectId,esr_pr4,6573725f-7072-4342-9e6b-696361645f70,rev?*%
%TF.SameCoordinates,Original*%
%TF.FileFunction,Soldermask,Top*%
%TF.FilePolarity,Negative*%
%FSLAX46Y46*%
G04 Gerber Fmt 4.6, Leading zero omitted, Abs format (unit mm)*
G04 Created by KiCad (PCBNEW 8.0.7) date 2025-05-12 19:41:04*
%MOMM*%
%LPD*%
G01*
G04 APERTURE LIST*
G04 Aperture macros list*
%AMRoundRect*
0 Rectangle with rounded corners*
0 $1 Rounding radius*
0 $2 $3 $4 $5 $6 $7 $8 $9 X,Y pos of 4 corners*
0 Add a 4 corners polygon primitive as box body*
4,1,4,$2,$3,$4,$5,$6,$7,$8,$9,$2,$3,0*
0 Add four circle primitives for the rounded corners*
1,1,$1+$1,$2,$3*
1,1,$1+$1,$4,$5*
1,1,$1+$1,$6,$7*
1,1,$1+$1,$8,$9*
0 Add four rect primitives between the rounded corners*
20,1,$1+$1,$2,$3,$4,$5,0*
20,1,$1+$1,$4,$5,$6,$7,0*
20,1,$1+$1,$6,$7,$8,$9,0*
20,1,$1+$1,$8,$9,$2,$3,0*%
G04 Aperture macros list end*
%ADD10C,3.600000*%
%ADD11C,5.600000*%
%ADD12RoundRect,0.150000X0.587500X0.150000X-0.587500X0.150000X-0.587500X-0.150000X0.587500X-0.150000X0*%
%ADD13RoundRect,0.200000X-0.200000X-0.275000X0.200000X-0.275000X0.200000X0.275000X-0.200000X0.275000X0*%
%ADD14RoundRect,0.225000X-0.225000X-0.250000X0.225000X-0.250000X0.225000X0.250000X-0.225000X0.250000X0*%
%ADD15RoundRect,0.200000X0.275000X-0.200000X0.275000X0.200000X-0.275000X0.200000X-0.275000X-0.200000X0*%
%ADD16RoundRect,0.225000X-0.375000X0.225000X-0.375000X-0.225000X0.375000X-0.225000X0.375000X0.225000X0*%
%ADD17R,1.524000X2.524000*%
%ADD18O,1.524000X2.524000*%
%ADD19RoundRect,0.200000X0.200000X0.275000X-0.200000X0.275000X-0.200000X-0.275000X0.200000X-0.275000X0*%
%ADD20C,1.500000*%
%ADD21R,1.600000X1.600000*%
%ADD22C,1.600000*%
%ADD23R,1.560000X1.560000*%
%ADD24C,1.560000*%
%ADD25RoundRect,0.200000X-0.275000X0.200000X-0.275000X-0.200000X0.275000X-0.200000X0.275000X0.200000X0*%
%ADD26RoundRect,0.225000X-0.225000X-0.375000X0.225000X-0.375000X0.225000X0.375000X-0.225000X0.375000X0*%
%ADD27RoundRect,0.150000X0.150000X-0.587500X0.150000X0.587500X-0.150000X0.587500X-0.150000X-0.587500X0*%
%ADD28C,2.000000*%
%ADD29RoundRect,0.225000X0.250000X-0.225000X0.250000X0.225000X-0.250000X0.225000X-0.250000X-0.225000X0*%
%ADD30R,2.200000X2.200000*%
%ADD31O,2.200000X2.200000*%
%ADD32C,3.000000*%
%ADD33R,1.600000X0.550000*%
%ADD34R,0.550000X1.600000*%
%ADD35RoundRect,0.225000X0.225000X0.250000X-0.225000X0.250000X-0.225000X-0.250000X0.225000X-0.250000X0*%
%ADD36RoundRect,0.225000X-0.250000X0.225000X-0.250000X-0.225000X0.250000X-0.225000X0.250000X0.225000X0*%
%ADD37RoundRect,0.375000X-0.625000X-0.375000X0.625000X-0.375000X0.625000X0.375000X-0.625000X0.375000X0*%
%ADD38RoundRect,0.500000X-0.500000X-1.400000X0.500000X-1.400000X0.500000X1.400000X-0.500000X1.400000X0*%
%ADD39RoundRect,0.150000X-0.587500X-0.150000X0.587500X-0.150000X0.587500X0.150000X-0.587500X0.150000X0*%
G04 APERTURE END LIST*
D10*
%TO.C,H1*%
X103555800Y-53543200D03*
D11*
X103555800Y-53543200D03*
%TD*%
D10*
%TO.C,H4*%
X186750000Y-53300000D03*
D11*
X186750000Y-53300000D03*
%TD*%
D12*
%TO.C,QT7*%
X140321400Y-73584000D03*
X140321400Y-71684000D03*
X138446400Y-72634000D03*
%TD*%
D13*
%TO.C,R32*%
X167894000Y-78232000D03*
X169544000Y-78232000D03*
%TD*%
%TO.C,R12*%
X125984000Y-92964000D03*
X127634000Y-92964000D03*
%TD*%
D14*
%TO.C,C12*%
X138446400Y-69713000D03*
X139996400Y-69713000D03*
%TD*%
D15*
%TO.C,R7*%
X159689800Y-90309200D03*
X159689800Y-88659200D03*
%TD*%
D13*
%TO.C,R8*%
X148513800Y-82321400D03*
X150163800Y-82321400D03*
%TD*%
D15*
%TO.C,R15*%
X123952000Y-72009000D03*
X123952000Y-70359000D03*
%TD*%
D16*
%TO.C,D2*%
X127625000Y-87700000D03*
X127625000Y-91000000D03*
%TD*%
D17*
%TO.C,AFF2*%
X163690000Y-74559000D03*
D18*
X166230000Y-74559000D03*
X168770000Y-74559000D03*
X171310000Y-74559000D03*
X173850000Y-74559000D03*
X173850000Y-59319000D03*
X171310000Y-59319000D03*
X168770000Y-59319000D03*
X166230000Y-59319000D03*
X163690000Y-59319000D03*
%TD*%
D19*
%TO.C,R1*%
X156717000Y-82448400D03*
X155067000Y-82448400D03*
%TD*%
D20*
%TO.C,TP6*%
X170434000Y-93218000D03*
%TD*%
%TO.C,TP5*%
X173228000Y-93218000D03*
%TD*%
D10*
%TO.C,H2*%
X186600000Y-91625000D03*
D11*
X186600000Y-91625000D03*
%TD*%
D21*
%TO.C,CP4*%
X132658126Y-86850000D03*
X133329063Y-88450000D03*
D22*
X135829063Y-88450000D03*
X136500000Y-90050000D03*
%TD*%
D23*
%TO.C,RV21*%
X102025000Y-70035000D03*
D24*
X104525000Y-75035000D03*
X107025000Y-70035000D03*
%TD*%
D25*
%TO.C,R4*%
X152374600Y-89218000D03*
X152374600Y-90868000D03*
%TD*%
D15*
%TO.C,R2*%
X152400000Y-84328000D03*
X152400000Y-82678000D03*
%TD*%
D12*
%TO.C,Q5*%
X140321400Y-81204000D03*
X140321400Y-79304000D03*
X138446400Y-80254000D03*
%TD*%
D26*
%TO.C,D6*%
X155068000Y-80010000D03*
X158368000Y-80010000D03*
%TD*%
D27*
%TO.C,Q3*%
X148513800Y-86283800D03*
X150413800Y-86283800D03*
X149463800Y-84408800D03*
%TD*%
D28*
%TO.C,SW1*%
X182626000Y-85852000D03*
X182626000Y-79352000D03*
X187126000Y-85852000D03*
X187126000Y-79352000D03*
%TD*%
D16*
%TO.C,D1*%
X127625000Y-82775000D03*
X127625000Y-86075000D03*
%TD*%
D20*
%TO.C,TP3*%
X167640000Y-93218000D03*
%TD*%
D21*
%TO.C,CP6*%
X118709063Y-85268000D03*
X119380000Y-86868000D03*
D22*
X121880000Y-86868000D03*
X122550937Y-88468000D03*
%TD*%
D29*
%TO.C,C13*%
X178231800Y-88468200D03*
X178231800Y-86918200D03*
%TD*%
D13*
%TO.C,R18*%
X142825200Y-77698600D03*
X144475200Y-77698600D03*
%TD*%
D29*
%TO.C,C4*%
X178225000Y-85344000D03*
X178225000Y-83794000D03*
%TD*%
D30*
%TO.C,D7*%
X108966000Y-81788000D03*
D31*
X108966000Y-91948000D03*
%TD*%
D30*
%TO.C,D8*%
X113030000Y-91948000D03*
D31*
X113030000Y-81788000D03*
%TD*%
D32*
%TO.C,TP8*%
X102800000Y-59550000D03*
%TD*%
D12*
%TO.C,Q4*%
X140321400Y-77394000D03*
X140321400Y-75494000D03*
X138446400Y-76444000D03*
%TD*%
D26*
%TO.C,D5*%
X149100000Y-80010000D03*
X152400000Y-80010000D03*
%TD*%
D32*
%TO.C,TP9*%
X102675000Y-85875000D03*
%TD*%
D27*
%TO.C,Q6*%
X125862000Y-72771000D03*
X127762000Y-72771000D03*
X126812000Y-70896000D03*
%TD*%
D12*
%TO.C,Q2*%
X156715700Y-90434200D03*
X156715700Y-88534200D03*
X154840700Y-89484200D03*
%TD*%
D29*
%TO.C,C7*%
X115570000Y-53861000D03*
X115570000Y-52311000D03*
%TD*%
D13*
%TO.C,R19*%
X142901400Y-81254600D03*
X144551400Y-81254600D03*
%TD*%
D12*
%TO.C,QT4*%
X150645100Y-92237600D03*
X150645100Y-90337600D03*
X148770100Y-91287600D03*
%TD*%
D32*
%TO.C,TP10*%
X102625000Y-80375000D03*
%TD*%
D15*
%TO.C,R14*%
X123952000Y-78740000D03*
X123952000Y-77090000D03*
%TD*%
D33*
%TO.C,U1*%
X166650000Y-82144000D03*
X166650000Y-82944000D03*
X166650000Y-83744000D03*
X166650000Y-84544000D03*
X166650000Y-85344000D03*
X166650000Y-86144000D03*
X166650000Y-86944000D03*
X166650000Y-87744000D03*
D34*
X168100000Y-89194000D03*
X168900000Y-89194000D03*
X169700000Y-89194000D03*
X170500000Y-89194000D03*
X171300000Y-89194000D03*
X172100000Y-89194000D03*
X172900000Y-89194000D03*
X173700000Y-89194000D03*
D33*
X175150000Y-87744000D03*
X175150000Y-86944000D03*
X175150000Y-86144000D03*
X175150000Y-85344000D03*
X175150000Y-84544000D03*
X175150000Y-83744000D03*
X175150000Y-82944000D03*
X175150000Y-82144000D03*
D34*
X173700000Y-80694000D03*
X172900000Y-80694000D03*
X172100000Y-80694000D03*
X171300000Y-80694000D03*
X170500000Y-80694000D03*
X169700000Y-80694000D03*
X168900000Y-80694000D03*
X168100000Y-80694000D03*
%TD*%
D13*
%TO.C,R6*%
X158407600Y-82448400D03*
X160057600Y-82448400D03*
%TD*%
D20*
%TO.C,TP4*%
X176022000Y-93218000D03*
%TD*%
D21*
%TO.C,CP3*%
X110820200Y-52236488D03*
D22*
X110820200Y-54736488D03*
%TD*%
D14*
%TO.C,C14*%
X172212000Y-78232000D03*
X173762000Y-78232000D03*
%TD*%
D15*
%TO.C,R10*%
X129667000Y-75311000D03*
X129667000Y-73661000D03*
%TD*%
D13*
%TO.C,R11*%
X107023400Y-77698600D03*
X108673400Y-77698600D03*
%TD*%
D20*
%TO.C,TP1*%
X181610000Y-93218000D03*
%TD*%
D10*
%TO.C,H3*%
X103450000Y-91550000D03*
D11*
X103450000Y-91550000D03*
%TD*%
D19*
%TO.C,R9*%
X156730200Y-92252800D03*
X155080200Y-92252800D03*
%TD*%
D15*
%TO.C,R3*%
X152400000Y-87566000D03*
X152400000Y-85916000D03*
%TD*%
D35*
%TO.C,C2*%
X150330200Y-88392000D03*
X148780200Y-88392000D03*
%TD*%
D36*
%TO.C,C11*%
X164084000Y-84556000D03*
X164084000Y-86106000D03*
%TD*%
D37*
%TO.C,U2*%
X108610000Y-58964800D03*
X108610000Y-61264800D03*
D38*
X114910000Y-61264800D03*
D37*
X108610000Y-63564800D03*
%TD*%
D19*
%TO.C,R13*%
X127634000Y-80772000D03*
X125984000Y-80772000D03*
%TD*%
%TO.C,R17*%
X144474200Y-79400400D03*
X142824200Y-79400400D03*
%TD*%
%TO.C,R22*%
X131317000Y-80772000D03*
X129667000Y-80772000D03*
%TD*%
D20*
%TO.C,TP2*%
X178816000Y-93218000D03*
%TD*%
D27*
%TO.C,QT6*%
X125862000Y-78740000D03*
X127762000Y-78740000D03*
X126812000Y-76865000D03*
%TD*%
D21*
%TO.C,CP5*%
X116370937Y-74175000D03*
X115700000Y-72575000D03*
D22*
X113200000Y-72575000D03*
X112529063Y-70975000D03*
%TD*%
D19*
%TO.C,R16*%
X144499600Y-75768200D03*
X142849600Y-75768200D03*
%TD*%
D29*
%TO.C,C1*%
X123952000Y-75311000D03*
X123952000Y-73761000D03*
%TD*%
D25*
%TO.C,R5*%
X129667000Y-77090000D03*
X129667000Y-78740000D03*
%TD*%
D32*
%TO.C,TP7*%
X102800000Y-64425000D03*
%TD*%
D39*
%TO.C,Q1*%
X154838400Y-84378800D03*
X154838400Y-86278800D03*
X156713400Y-85328800D03*
%TD*%
D17*
%TO.C,AFF3*%
X176898000Y-74559000D03*
D18*
X179438000Y-74559000D03*
X181978000Y-74559000D03*
X184518000Y-74559000D03*
X187058000Y-74559000D03*
X187058000Y-59319000D03*
X184518000Y-59319000D03*
X181978000Y-59319000D03*
X179438000Y-59319000D03*
X176898000Y-59319000D03*
%TD*%
D19*
%TO.C,R20*%
X127635000Y-74803000D03*
X125985000Y-74803000D03*
%TD*%
D21*
%TO.C,CP10*%
X126450000Y-54661386D03*
X124850000Y-55332323D03*
D22*
X124850000Y-57832323D03*
X123250000Y-58503260D03*
%TD*%
D17*
%TO.C,AFF1*%
X150482000Y-74559000D03*
D18*
X153022000Y-74559000D03*
X155562000Y-74559000D03*
X158102000Y-74559000D03*
X160642000Y-74559000D03*
X160642000Y-59319000D03*
X158102000Y-59319000D03*
X155562000Y-59319000D03*
X153022000Y-59319000D03*
X150482000Y-59319000D03*
%TD*%
D29*
%TO.C,C9*%
X117856000Y-53861000D03*
X117856000Y-52311000D03*
%TD*%
M02*
