M48
; DRILL file {KiCad 8.0.5} date 2025-08-20T10:32:44+0300
; FORMAT={-:-/ absolute / inch / decimal}
; #@! TF.CreationDate,2025-08-20T10:32:44+03:00
; #@! TF.GenerationSoftware,Kicad,Pcbnew,8.0.5
; #@! TF.FileFunction,Plated,1,2,PTH
FMAT,2
INCH
; #@! TA.AperFunction,Plated,PTH,ViaDrill
T1C0.0118
; #@! TA.AperFunction,Plated,PTH,ComponentDrill
T2C0.0315
; #@! TA.AperFunction,Plated,PTH,ComponentDrill
T3C0.0394
; #@! TA.AperFunction,Plated,PTH,ComponentDrill
T4C0.0433
; #@! TA.AperFunction,Plated,PTH,ComponentDrill
T5C0.0512
; #@! TA.AperFunction,Plated,PTH,ComponentDrill
T6C0.1260
%
G90
G05
T1
X5.053Y-3.978
X5.075Y-3.275
X5.075Y-3.3
X5.075Y-3.325
X5.075Y-3.45
X5.075Y-3.475
X5.1Y-3.275
X5.1Y-3.3
X5.1Y-3.325
X5.1Y-3.45
X5.1Y-3.475
X5.125Y-3.275
X5.125Y-3.3
X5.125Y-3.325
X5.125Y-3.45
X5.125Y-3.475
X5.15Y-3.45
X5.15Y-3.475
X5.175Y-3.45
X5.175Y-3.475
X5.2Y-3.275
X5.2Y-3.3
X5.2Y-3.325
X5.2Y-3.45
X5.2Y-3.475
X5.225Y-3.275
X5.225Y-3.3
X5.225Y-3.325
X5.225Y-3.45
X5.225Y-3.475
X5.25Y-3.275
X5.25Y-3.3
X5.25Y-3.325
X5.25Y-3.45
X5.25Y-3.475
X5.292Y-3.136
X5.352Y-4.063
X5.3845Y-4.1125
X5.4Y-2.91
X5.4Y-3.23
X5.5Y-2.942
X5.5Y-3.26
X5.57Y-3.785
X5.57Y-3.956
X5.57Y-4.04
X5.574Y-4.11
X5.618Y-4.19
X5.62Y-3.86
X5.648Y-3.909
X5.7Y-2.976
X5.7Y-3.29
X5.725Y-3.472
X5.726Y-3.575
X5.731Y-3.708
X5.755Y-4.109
X5.76Y-3.708
X5.762Y-4.04
X5.7905Y-4.1515
X5.793Y-3.078
X5.8Y-2.878
X5.8Y-3.314
X5.824Y-3.9776
X5.857Y-3.891
X5.866Y-3.4937
X5.866Y-3.575
X5.871Y-3.708
X5.92Y-2.91
X5.92Y-3.23
X6.006Y-3.5094
X6.006Y-3.575
X6.011Y-3.708
X6.02Y-2.942
X6.02Y-3.26
X6.0431Y-4.152
X6.113Y-3.909
X6.146Y-3.465
X6.146Y-3.58
X6.171Y-3.756
X6.193Y-3.61
X6.194Y-3.8
X6.22Y-2.976
X6.22Y-3.29
X6.222Y-3.203
X6.223Y-3.708
X6.228Y-4.123
X6.27Y-3.5339
X6.27Y-3.967
X6.27Y-4.088
X6.295Y-3.738
X6.295Y-3.897
X6.32Y-2.878
X6.32Y-3.314
X6.32Y-4.035
X6.3618Y-3.203
X6.373Y-3.613
X6.398Y-3.584
X6.3981Y-3.1919
X6.415Y-3.706
X6.415Y-3.768
X6.4396Y-2.91
X6.44Y-3.199
X6.44Y-3.23
X6.461Y-3.831
X6.485Y-3.154
X6.485Y-3.676
X6.493Y-3.964
X6.493Y-4.037
X6.5Y-4.109
X6.5067Y-3.65
X6.51Y-3.336
X6.5399Y-3.8629
X6.54Y-2.942
X6.54Y-3.26
X6.5563Y-4.0153
X6.56Y-3.02
X6.5602Y-3.2038
X6.5653Y-3.638
X6.572Y-3.154
X6.587Y-3.866
X6.593Y-2.92
X6.6087Y-3.826
X6.626Y-3.519
X6.626Y-3.642
X6.664Y-3.737
X6.678Y-3.5024
X6.683Y-3.585
X6.701Y-3.4867
X6.705Y-3.619
X6.74Y-2.976
X6.74Y-3.098
X6.74Y-3.29
X6.74Y-3.9887
X6.7617Y-3.831
X6.774Y-4.038
X6.782Y-3.967
X6.783Y-2.92
X6.8035Y-3.465
X6.8035Y-3.674
X6.84Y-2.878
X6.84Y-3.314
X6.88Y-3.341
X6.922Y-3.02
X6.969Y-3.775
X6.993Y-3.818
X7.09Y-3.098
X7.091Y-3.537
T2
X4.74Y-3.1026
X4.74Y-3.201
X4.74Y-3.319
X4.74Y-3.4174
X4.927Y-3.4892
X4.99Y-3.5156
X4.99Y-3.614
X5.053Y-3.6404
X5.32Y-3.5926
X5.32Y-3.691
X5.4Y-2.8
X5.4Y-3.4
X5.5Y-2.8
X5.5Y-3.4
X5.57Y-3.59
X5.57Y-3.6884
X5.6Y-2.8
X5.6Y-3.4
X5.7Y-2.8
X5.7Y-3.4
X5.8Y-2.8
X5.8Y-3.4
X5.92Y-2.8
X5.92Y-3.4
X6.02Y-2.8
X6.02Y-3.4
X6.12Y-2.8
X6.12Y-3.4
X6.22Y-2.8
X6.22Y-3.4
X6.32Y-2.8
X6.32Y-3.4
X6.44Y-2.8
X6.44Y-3.4
X6.54Y-2.8
X6.54Y-3.4
X6.64Y-2.8
X6.64Y-3.4
X6.74Y-2.8
X6.74Y-3.4
X6.84Y-2.8
X6.84Y-3.4
T3
X5.1016Y-3.9218
X5.2Y-4.1187
X5.2984Y-3.9218
T4
X4.88Y-2.99
X5.28Y-2.99
X6.88Y-3.6141
X6.88Y-3.87
X7.0572Y-3.6141
X7.0572Y-3.87
T5
X4.96Y-3.9
X4.96Y-4.13
X5.46Y-3.9
X5.46Y-4.13
T6
X4.75Y-2.83
X4.75Y-4.14
X7.03Y-2.83
X7.03Y-4.14
M30
