%TF.GenerationSoftware,KiCad,Pcbnew,8.0.5*%
%TF.CreationDate,2025-08-20T10:32:38+03:00*%
%TF.ProjectId,esr_pr4_n,6573725f-7072-4345-9f6e-2e6b69636164,rev?*%
%TF.SameCoordinates,Original*%
%TF.FileFunction,Legend,Bot*%
%TF.FilePolarity,Positive*%
%FSLAX46Y46*%
G04 Gerber Fmt 4.6, Leading zero omitted, Abs format (unit mm)*
G04 Created by KiCad (PCBNEW 8.0.5) date 2025-08-20 10:32:38*
%MOMM*%
%LPD*%
G01*
G04 APERTURE LIST*
%ADD10C,0.150000*%
%ADD11C,0.120000*%
G04 APERTURE END LIST*
D10*
X170688000Y-99060000D02*
X170688000Y-103886000D01*
X170688000Y-99060000D01*
X162560000Y-99060000D02*
X170688000Y-99060000D01*
X162560000Y-99060000D01*
X162560000Y-99060000D02*
X162560000Y-103886000D01*
X162560000Y-99060000D01*
X175768000Y-84074000D02*
X170688000Y-99060000D01*
X175768000Y-75438000D02*
X181356000Y-75438000D01*
X181356000Y-84074000D01*
X175768000Y-84074000D01*
X175768000Y-75438000D01*
X162560000Y-103886000D02*
X170688000Y-103886000D01*
X162560000Y-103886000D01*
X165877713Y-103197866D02*
X165115809Y-103197866D01*
X165496761Y-103578819D02*
X165496761Y-102816914D01*
X164163428Y-102578819D02*
X164639618Y-102578819D01*
X164639618Y-102578819D02*
X164687237Y-103055009D01*
X164687237Y-103055009D02*
X164639618Y-103007390D01*
X164639618Y-103007390D02*
X164544380Y-102959771D01*
X164544380Y-102959771D02*
X164306285Y-102959771D01*
X164306285Y-102959771D02*
X164211047Y-103007390D01*
X164211047Y-103007390D02*
X164163428Y-103055009D01*
X164163428Y-103055009D02*
X164115809Y-103150247D01*
X164115809Y-103150247D02*
X164115809Y-103388342D01*
X164115809Y-103388342D02*
X164163428Y-103483580D01*
X164163428Y-103483580D02*
X164211047Y-103531200D01*
X164211047Y-103531200D02*
X164306285Y-103578819D01*
X164306285Y-103578819D02*
X164544380Y-103578819D01*
X164544380Y-103578819D02*
X164639618Y-103531200D01*
X164639618Y-103531200D02*
X164687237Y-103483580D01*
X163830094Y-102578819D02*
X163496761Y-103578819D01*
X163496761Y-103578819D02*
X163163428Y-102578819D01*
X171650819Y-79875142D02*
X171174628Y-79541809D01*
X171650819Y-79303714D02*
X170650819Y-79303714D01*
X170650819Y-79303714D02*
X170650819Y-79684666D01*
X170650819Y-79684666D02*
X170698438Y-79779904D01*
X170698438Y-79779904D02*
X170746057Y-79827523D01*
X170746057Y-79827523D02*
X170841295Y-79875142D01*
X170841295Y-79875142D02*
X170984152Y-79875142D01*
X170984152Y-79875142D02*
X171079390Y-79827523D01*
X171079390Y-79827523D02*
X171127009Y-79779904D01*
X171127009Y-79779904D02*
X171174628Y-79684666D01*
X171174628Y-79684666D02*
X171174628Y-79303714D01*
X170746057Y-80256095D02*
X170698438Y-80303714D01*
X170698438Y-80303714D02*
X170650819Y-80398952D01*
X170650819Y-80398952D02*
X170650819Y-80637047D01*
X170650819Y-80637047D02*
X170698438Y-80732285D01*
X170698438Y-80732285D02*
X170746057Y-80779904D01*
X170746057Y-80779904D02*
X170841295Y-80827523D01*
X170841295Y-80827523D02*
X170936533Y-80827523D01*
X170936533Y-80827523D02*
X171079390Y-80779904D01*
X171079390Y-80779904D02*
X171650819Y-80208476D01*
X171650819Y-80208476D02*
X171650819Y-80827523D01*
X170650819Y-81160857D02*
X170650819Y-81779904D01*
X170650819Y-81779904D02*
X171031771Y-81446571D01*
X171031771Y-81446571D02*
X171031771Y-81589428D01*
X171031771Y-81589428D02*
X171079390Y-81684666D01*
X171079390Y-81684666D02*
X171127009Y-81732285D01*
X171127009Y-81732285D02*
X171222247Y-81779904D01*
X171222247Y-81779904D02*
X171460342Y-81779904D01*
X171460342Y-81779904D02*
X171555580Y-81732285D01*
X171555580Y-81732285D02*
X171603200Y-81684666D01*
X171603200Y-81684666D02*
X171650819Y-81589428D01*
X171650819Y-81589428D02*
X171650819Y-81303714D01*
X171650819Y-81303714D02*
X171603200Y-81208476D01*
X171603200Y-81208476D02*
X171555580Y-81160857D01*
X169610019Y-103451819D02*
X169943352Y-102975628D01*
X170181447Y-103451819D02*
X170181447Y-102451819D01*
X170181447Y-102451819D02*
X169800495Y-102451819D01*
X169800495Y-102451819D02*
X169705257Y-102499438D01*
X169705257Y-102499438D02*
X169657638Y-102547057D01*
X169657638Y-102547057D02*
X169610019Y-102642295D01*
X169610019Y-102642295D02*
X169610019Y-102785152D01*
X169610019Y-102785152D02*
X169657638Y-102880390D01*
X169657638Y-102880390D02*
X169705257Y-102928009D01*
X169705257Y-102928009D02*
X169800495Y-102975628D01*
X169800495Y-102975628D02*
X170181447Y-102975628D01*
X169229066Y-103404200D02*
X169086209Y-103451819D01*
X169086209Y-103451819D02*
X168848114Y-103451819D01*
X168848114Y-103451819D02*
X168752876Y-103404200D01*
X168752876Y-103404200D02*
X168705257Y-103356580D01*
X168705257Y-103356580D02*
X168657638Y-103261342D01*
X168657638Y-103261342D02*
X168657638Y-103166104D01*
X168657638Y-103166104D02*
X168705257Y-103070866D01*
X168705257Y-103070866D02*
X168752876Y-103023247D01*
X168752876Y-103023247D02*
X168848114Y-102975628D01*
X168848114Y-102975628D02*
X169038590Y-102928009D01*
X169038590Y-102928009D02*
X169133828Y-102880390D01*
X169133828Y-102880390D02*
X169181447Y-102832771D01*
X169181447Y-102832771D02*
X169229066Y-102737533D01*
X169229066Y-102737533D02*
X169229066Y-102642295D01*
X169229066Y-102642295D02*
X169181447Y-102547057D01*
X169181447Y-102547057D02*
X169133828Y-102499438D01*
X169133828Y-102499438D02*
X169038590Y-102451819D01*
X169038590Y-102451819D02*
X168800495Y-102451819D01*
X168800495Y-102451819D02*
X168657638Y-102499438D01*
X168371923Y-102451819D02*
X167800495Y-102451819D01*
X168086209Y-103451819D02*
X168086209Y-102451819D01*
X170176627Y-102029419D02*
X170176627Y-101029419D01*
X170176627Y-101029419D02*
X169843294Y-101743704D01*
X169843294Y-101743704D02*
X169509961Y-101029419D01*
X169509961Y-101029419D02*
X169509961Y-102029419D01*
X168843294Y-101029419D02*
X168652818Y-101029419D01*
X168652818Y-101029419D02*
X168557580Y-101077038D01*
X168557580Y-101077038D02*
X168462342Y-101172276D01*
X168462342Y-101172276D02*
X168414723Y-101362752D01*
X168414723Y-101362752D02*
X168414723Y-101696085D01*
X168414723Y-101696085D02*
X168462342Y-101886561D01*
X168462342Y-101886561D02*
X168557580Y-101981800D01*
X168557580Y-101981800D02*
X168652818Y-102029419D01*
X168652818Y-102029419D02*
X168843294Y-102029419D01*
X168843294Y-102029419D02*
X168938532Y-101981800D01*
X168938532Y-101981800D02*
X169033770Y-101886561D01*
X169033770Y-101886561D02*
X169081389Y-101696085D01*
X169081389Y-101696085D02*
X169081389Y-101362752D01*
X169081389Y-101362752D02*
X169033770Y-101172276D01*
X169033770Y-101172276D02*
X168938532Y-101077038D01*
X168938532Y-101077038D02*
X168843294Y-101029419D01*
X168033770Y-101981800D02*
X167890913Y-102029419D01*
X167890913Y-102029419D02*
X167652818Y-102029419D01*
X167652818Y-102029419D02*
X167557580Y-101981800D01*
X167557580Y-101981800D02*
X167509961Y-101934180D01*
X167509961Y-101934180D02*
X167462342Y-101838942D01*
X167462342Y-101838942D02*
X167462342Y-101743704D01*
X167462342Y-101743704D02*
X167509961Y-101648466D01*
X167509961Y-101648466D02*
X167557580Y-101600847D01*
X167557580Y-101600847D02*
X167652818Y-101553228D01*
X167652818Y-101553228D02*
X167843294Y-101505609D01*
X167843294Y-101505609D02*
X167938532Y-101457990D01*
X167938532Y-101457990D02*
X167986151Y-101410371D01*
X167986151Y-101410371D02*
X168033770Y-101315133D01*
X168033770Y-101315133D02*
X168033770Y-101219895D01*
X168033770Y-101219895D02*
X167986151Y-101124657D01*
X167986151Y-101124657D02*
X167938532Y-101077038D01*
X167938532Y-101077038D02*
X167843294Y-101029419D01*
X167843294Y-101029419D02*
X167605199Y-101029419D01*
X167605199Y-101029419D02*
X167462342Y-101077038D01*
X167033770Y-102029419D02*
X167033770Y-101029419D01*
X155924190Y-75226057D02*
X156019428Y-75178438D01*
X156019428Y-75178438D02*
X156114666Y-75083200D01*
X156114666Y-75083200D02*
X156257523Y-74940342D01*
X156257523Y-74940342D02*
X156352761Y-74892723D01*
X156352761Y-74892723D02*
X156447999Y-74892723D01*
X156400380Y-75130819D02*
X156495618Y-75083200D01*
X156495618Y-75083200D02*
X156590856Y-74987961D01*
X156590856Y-74987961D02*
X156638475Y-74797485D01*
X156638475Y-74797485D02*
X156638475Y-74464152D01*
X156638475Y-74464152D02*
X156590856Y-74273676D01*
X156590856Y-74273676D02*
X156495618Y-74178438D01*
X156495618Y-74178438D02*
X156400380Y-74130819D01*
X156400380Y-74130819D02*
X156209904Y-74130819D01*
X156209904Y-74130819D02*
X156114666Y-74178438D01*
X156114666Y-74178438D02*
X156019428Y-74273676D01*
X156019428Y-74273676D02*
X155971809Y-74464152D01*
X155971809Y-74464152D02*
X155971809Y-74797485D01*
X155971809Y-74797485D02*
X156019428Y-74987961D01*
X156019428Y-74987961D02*
X156114666Y-75083200D01*
X156114666Y-75083200D02*
X156209904Y-75130819D01*
X156209904Y-75130819D02*
X156400380Y-75130819D01*
X155686094Y-74130819D02*
X155114666Y-74130819D01*
X155400380Y-75130819D02*
X155400380Y-74130819D01*
X154828951Y-74226057D02*
X154781332Y-74178438D01*
X154781332Y-74178438D02*
X154686094Y-74130819D01*
X154686094Y-74130819D02*
X154447999Y-74130819D01*
X154447999Y-74130819D02*
X154352761Y-74178438D01*
X154352761Y-74178438D02*
X154305142Y-74226057D01*
X154305142Y-74226057D02*
X154257523Y-74321295D01*
X154257523Y-74321295D02*
X154257523Y-74416533D01*
X154257523Y-74416533D02*
X154305142Y-74559390D01*
X154305142Y-74559390D02*
X154876570Y-75130819D01*
X154876570Y-75130819D02*
X154257523Y-75130819D01*
X133813466Y-88497580D02*
X133861085Y-88545200D01*
X133861085Y-88545200D02*
X134003942Y-88592819D01*
X134003942Y-88592819D02*
X134099180Y-88592819D01*
X134099180Y-88592819D02*
X134242037Y-88545200D01*
X134242037Y-88545200D02*
X134337275Y-88449961D01*
X134337275Y-88449961D02*
X134384894Y-88354723D01*
X134384894Y-88354723D02*
X134432513Y-88164247D01*
X134432513Y-88164247D02*
X134432513Y-88021390D01*
X134432513Y-88021390D02*
X134384894Y-87830914D01*
X134384894Y-87830914D02*
X134337275Y-87735676D01*
X134337275Y-87735676D02*
X134242037Y-87640438D01*
X134242037Y-87640438D02*
X134099180Y-87592819D01*
X134099180Y-87592819D02*
X134003942Y-87592819D01*
X134003942Y-87592819D02*
X133861085Y-87640438D01*
X133861085Y-87640438D02*
X133813466Y-87688057D01*
X133384894Y-88592819D02*
X133384894Y-87592819D01*
X133384894Y-87592819D02*
X133003942Y-87592819D01*
X133003942Y-87592819D02*
X132908704Y-87640438D01*
X132908704Y-87640438D02*
X132861085Y-87688057D01*
X132861085Y-87688057D02*
X132813466Y-87783295D01*
X132813466Y-87783295D02*
X132813466Y-87926152D01*
X132813466Y-87926152D02*
X132861085Y-88021390D01*
X132861085Y-88021390D02*
X132908704Y-88069009D01*
X132908704Y-88069009D02*
X133003942Y-88116628D01*
X133003942Y-88116628D02*
X133384894Y-88116628D01*
X132432513Y-87688057D02*
X132384894Y-87640438D01*
X132384894Y-87640438D02*
X132289656Y-87592819D01*
X132289656Y-87592819D02*
X132051561Y-87592819D01*
X132051561Y-87592819D02*
X131956323Y-87640438D01*
X131956323Y-87640438D02*
X131908704Y-87688057D01*
X131908704Y-87688057D02*
X131861085Y-87783295D01*
X131861085Y-87783295D02*
X131861085Y-87878533D01*
X131861085Y-87878533D02*
X131908704Y-88021390D01*
X131908704Y-88021390D02*
X132480132Y-88592819D01*
X132480132Y-88592819D02*
X131861085Y-88592819D01*
X142716190Y-75226057D02*
X142811428Y-75178438D01*
X142811428Y-75178438D02*
X142906666Y-75083200D01*
X142906666Y-75083200D02*
X143049523Y-74940342D01*
X143049523Y-74940342D02*
X143144761Y-74892723D01*
X143144761Y-74892723D02*
X143239999Y-74892723D01*
X143192380Y-75130819D02*
X143287618Y-75083200D01*
X143287618Y-75083200D02*
X143382856Y-74987961D01*
X143382856Y-74987961D02*
X143430475Y-74797485D01*
X143430475Y-74797485D02*
X143430475Y-74464152D01*
X143430475Y-74464152D02*
X143382856Y-74273676D01*
X143382856Y-74273676D02*
X143287618Y-74178438D01*
X143287618Y-74178438D02*
X143192380Y-74130819D01*
X143192380Y-74130819D02*
X143001904Y-74130819D01*
X143001904Y-74130819D02*
X142906666Y-74178438D01*
X142906666Y-74178438D02*
X142811428Y-74273676D01*
X142811428Y-74273676D02*
X142763809Y-74464152D01*
X142763809Y-74464152D02*
X142763809Y-74797485D01*
X142763809Y-74797485D02*
X142811428Y-74987961D01*
X142811428Y-74987961D02*
X142906666Y-75083200D01*
X142906666Y-75083200D02*
X143001904Y-75130819D01*
X143001904Y-75130819D02*
X143192380Y-75130819D01*
X142478094Y-74130819D02*
X141906666Y-74130819D01*
X142192380Y-75130819D02*
X142192380Y-74130819D01*
X141049523Y-75130819D02*
X141620951Y-75130819D01*
X141335237Y-75130819D02*
X141335237Y-74130819D01*
X141335237Y-74130819D02*
X141430475Y-74273676D01*
X141430475Y-74273676D02*
X141525713Y-74368914D01*
X141525713Y-74368914D02*
X141620951Y-74416533D01*
X138334666Y-89767580D02*
X138382285Y-89815200D01*
X138382285Y-89815200D02*
X138525142Y-89862819D01*
X138525142Y-89862819D02*
X138620380Y-89862819D01*
X138620380Y-89862819D02*
X138763237Y-89815200D01*
X138763237Y-89815200D02*
X138858475Y-89719961D01*
X138858475Y-89719961D02*
X138906094Y-89624723D01*
X138906094Y-89624723D02*
X138953713Y-89434247D01*
X138953713Y-89434247D02*
X138953713Y-89291390D01*
X138953713Y-89291390D02*
X138906094Y-89100914D01*
X138906094Y-89100914D02*
X138858475Y-89005676D01*
X138858475Y-89005676D02*
X138763237Y-88910438D01*
X138763237Y-88910438D02*
X138620380Y-88862819D01*
X138620380Y-88862819D02*
X138525142Y-88862819D01*
X138525142Y-88862819D02*
X138382285Y-88910438D01*
X138382285Y-88910438D02*
X138334666Y-88958057D01*
X137906094Y-89862819D02*
X137906094Y-88862819D01*
X137906094Y-88862819D02*
X137525142Y-88862819D01*
X137525142Y-88862819D02*
X137429904Y-88910438D01*
X137429904Y-88910438D02*
X137382285Y-88958057D01*
X137382285Y-88958057D02*
X137334666Y-89053295D01*
X137334666Y-89053295D02*
X137334666Y-89196152D01*
X137334666Y-89196152D02*
X137382285Y-89291390D01*
X137382285Y-89291390D02*
X137429904Y-89339009D01*
X137429904Y-89339009D02*
X137525142Y-89386628D01*
X137525142Y-89386628D02*
X137906094Y-89386628D01*
X136429904Y-88862819D02*
X136906094Y-88862819D01*
X136906094Y-88862819D02*
X136953713Y-89339009D01*
X136953713Y-89339009D02*
X136906094Y-89291390D01*
X136906094Y-89291390D02*
X136810856Y-89243771D01*
X136810856Y-89243771D02*
X136572761Y-89243771D01*
X136572761Y-89243771D02*
X136477523Y-89291390D01*
X136477523Y-89291390D02*
X136429904Y-89339009D01*
X136429904Y-89339009D02*
X136382285Y-89434247D01*
X136382285Y-89434247D02*
X136382285Y-89672342D01*
X136382285Y-89672342D02*
X136429904Y-89767580D01*
X136429904Y-89767580D02*
X136477523Y-89815200D01*
X136477523Y-89815200D02*
X136572761Y-89862819D01*
X136572761Y-89862819D02*
X136810856Y-89862819D01*
X136810856Y-89862819D02*
X136906094Y-89815200D01*
X136906094Y-89815200D02*
X136953713Y-89767580D01*
X144684666Y-89767580D02*
X144732285Y-89815200D01*
X144732285Y-89815200D02*
X144875142Y-89862819D01*
X144875142Y-89862819D02*
X144970380Y-89862819D01*
X144970380Y-89862819D02*
X145113237Y-89815200D01*
X145113237Y-89815200D02*
X145208475Y-89719961D01*
X145208475Y-89719961D02*
X145256094Y-89624723D01*
X145256094Y-89624723D02*
X145303713Y-89434247D01*
X145303713Y-89434247D02*
X145303713Y-89291390D01*
X145303713Y-89291390D02*
X145256094Y-89100914D01*
X145256094Y-89100914D02*
X145208475Y-89005676D01*
X145208475Y-89005676D02*
X145113237Y-88910438D01*
X145113237Y-88910438D02*
X144970380Y-88862819D01*
X144970380Y-88862819D02*
X144875142Y-88862819D01*
X144875142Y-88862819D02*
X144732285Y-88910438D01*
X144732285Y-88910438D02*
X144684666Y-88958057D01*
X144256094Y-89862819D02*
X144256094Y-88862819D01*
X144256094Y-88862819D02*
X143875142Y-88862819D01*
X143875142Y-88862819D02*
X143779904Y-88910438D01*
X143779904Y-88910438D02*
X143732285Y-88958057D01*
X143732285Y-88958057D02*
X143684666Y-89053295D01*
X143684666Y-89053295D02*
X143684666Y-89196152D01*
X143684666Y-89196152D02*
X143732285Y-89291390D01*
X143732285Y-89291390D02*
X143779904Y-89339009D01*
X143779904Y-89339009D02*
X143875142Y-89386628D01*
X143875142Y-89386628D02*
X144256094Y-89386628D01*
X143351332Y-88862819D02*
X142732285Y-88862819D01*
X142732285Y-88862819D02*
X143065618Y-89243771D01*
X143065618Y-89243771D02*
X142922761Y-89243771D01*
X142922761Y-89243771D02*
X142827523Y-89291390D01*
X142827523Y-89291390D02*
X142779904Y-89339009D01*
X142779904Y-89339009D02*
X142732285Y-89434247D01*
X142732285Y-89434247D02*
X142732285Y-89672342D01*
X142732285Y-89672342D02*
X142779904Y-89767580D01*
X142779904Y-89767580D02*
X142827523Y-89815200D01*
X142827523Y-89815200D02*
X142922761Y-89862819D01*
X142922761Y-89862819D02*
X143208475Y-89862819D01*
X143208475Y-89862819D02*
X143303713Y-89815200D01*
X143303713Y-89815200D02*
X143351332Y-89767580D01*
X160982819Y-91813142D02*
X160506628Y-91479809D01*
X160982819Y-91241714D02*
X159982819Y-91241714D01*
X159982819Y-91241714D02*
X159982819Y-91622666D01*
X159982819Y-91622666D02*
X160030438Y-91717904D01*
X160030438Y-91717904D02*
X160078057Y-91765523D01*
X160078057Y-91765523D02*
X160173295Y-91813142D01*
X160173295Y-91813142D02*
X160316152Y-91813142D01*
X160316152Y-91813142D02*
X160411390Y-91765523D01*
X160411390Y-91765523D02*
X160459009Y-91717904D01*
X160459009Y-91717904D02*
X160506628Y-91622666D01*
X160506628Y-91622666D02*
X160506628Y-91241714D01*
X160078057Y-92194095D02*
X160030438Y-92241714D01*
X160030438Y-92241714D02*
X159982819Y-92336952D01*
X159982819Y-92336952D02*
X159982819Y-92575047D01*
X159982819Y-92575047D02*
X160030438Y-92670285D01*
X160030438Y-92670285D02*
X160078057Y-92717904D01*
X160078057Y-92717904D02*
X160173295Y-92765523D01*
X160173295Y-92765523D02*
X160268533Y-92765523D01*
X160268533Y-92765523D02*
X160411390Y-92717904D01*
X160411390Y-92717904D02*
X160982819Y-92146476D01*
X160982819Y-92146476D02*
X160982819Y-92765523D01*
X160982819Y-93717904D02*
X160982819Y-93146476D01*
X160982819Y-93432190D02*
X159982819Y-93432190D01*
X159982819Y-93432190D02*
X160125676Y-93336952D01*
X160125676Y-93336952D02*
X160220914Y-93241714D01*
X160220914Y-93241714D02*
X160268533Y-93146476D01*
X169299857Y-81988819D02*
X169633190Y-81512628D01*
X169871285Y-81988819D02*
X169871285Y-80988819D01*
X169871285Y-80988819D02*
X169490333Y-80988819D01*
X169490333Y-80988819D02*
X169395095Y-81036438D01*
X169395095Y-81036438D02*
X169347476Y-81084057D01*
X169347476Y-81084057D02*
X169299857Y-81179295D01*
X169299857Y-81179295D02*
X169299857Y-81322152D01*
X169299857Y-81322152D02*
X169347476Y-81417390D01*
X169347476Y-81417390D02*
X169395095Y-81465009D01*
X169395095Y-81465009D02*
X169490333Y-81512628D01*
X169490333Y-81512628D02*
X169871285Y-81512628D01*
X168966523Y-80988819D02*
X168347476Y-80988819D01*
X168347476Y-80988819D02*
X168680809Y-81369771D01*
X168680809Y-81369771D02*
X168537952Y-81369771D01*
X168537952Y-81369771D02*
X168442714Y-81417390D01*
X168442714Y-81417390D02*
X168395095Y-81465009D01*
X168395095Y-81465009D02*
X168347476Y-81560247D01*
X168347476Y-81560247D02*
X168347476Y-81798342D01*
X168347476Y-81798342D02*
X168395095Y-81893580D01*
X168395095Y-81893580D02*
X168442714Y-81941200D01*
X168442714Y-81941200D02*
X168537952Y-81988819D01*
X168537952Y-81988819D02*
X168823666Y-81988819D01*
X168823666Y-81988819D02*
X168918904Y-81941200D01*
X168918904Y-81941200D02*
X168966523Y-81893580D01*
X168014142Y-80988819D02*
X167395095Y-80988819D01*
X167395095Y-80988819D02*
X167728428Y-81369771D01*
X167728428Y-81369771D02*
X167585571Y-81369771D01*
X167585571Y-81369771D02*
X167490333Y-81417390D01*
X167490333Y-81417390D02*
X167442714Y-81465009D01*
X167442714Y-81465009D02*
X167395095Y-81560247D01*
X167395095Y-81560247D02*
X167395095Y-81798342D01*
X167395095Y-81798342D02*
X167442714Y-81893580D01*
X167442714Y-81893580D02*
X167490333Y-81941200D01*
X167490333Y-81941200D02*
X167585571Y-81988819D01*
X167585571Y-81988819D02*
X167871285Y-81988819D01*
X167871285Y-81988819D02*
X167966523Y-81941200D01*
X167966523Y-81941200D02*
X168014142Y-81893580D01*
X124057580Y-82645333D02*
X124105200Y-82597714D01*
X124105200Y-82597714D02*
X124152819Y-82454857D01*
X124152819Y-82454857D02*
X124152819Y-82359619D01*
X124152819Y-82359619D02*
X124105200Y-82216762D01*
X124105200Y-82216762D02*
X124009961Y-82121524D01*
X124009961Y-82121524D02*
X123914723Y-82073905D01*
X123914723Y-82073905D02*
X123724247Y-82026286D01*
X123724247Y-82026286D02*
X123581390Y-82026286D01*
X123581390Y-82026286D02*
X123390914Y-82073905D01*
X123390914Y-82073905D02*
X123295676Y-82121524D01*
X123295676Y-82121524D02*
X123200438Y-82216762D01*
X123200438Y-82216762D02*
X123152819Y-82359619D01*
X123152819Y-82359619D02*
X123152819Y-82454857D01*
X123152819Y-82454857D02*
X123200438Y-82597714D01*
X123200438Y-82597714D02*
X123248057Y-82645333D01*
X124152819Y-83073905D02*
X123152819Y-83073905D01*
X123152819Y-83073905D02*
X123152819Y-83454857D01*
X123152819Y-83454857D02*
X123200438Y-83550095D01*
X123200438Y-83550095D02*
X123248057Y-83597714D01*
X123248057Y-83597714D02*
X123343295Y-83645333D01*
X123343295Y-83645333D02*
X123486152Y-83645333D01*
X123486152Y-83645333D02*
X123581390Y-83597714D01*
X123581390Y-83597714D02*
X123629009Y-83550095D01*
X123629009Y-83550095D02*
X123676628Y-83454857D01*
X123676628Y-83454857D02*
X123676628Y-83073905D01*
X123486152Y-84502476D02*
X124152819Y-84502476D01*
X123105200Y-84264381D02*
X123819485Y-84026286D01*
X123819485Y-84026286D02*
X123819485Y-84645333D01*
X145676857Y-80210819D02*
X146010190Y-79734628D01*
X146248285Y-80210819D02*
X146248285Y-79210819D01*
X146248285Y-79210819D02*
X145867333Y-79210819D01*
X145867333Y-79210819D02*
X145772095Y-79258438D01*
X145772095Y-79258438D02*
X145724476Y-79306057D01*
X145724476Y-79306057D02*
X145676857Y-79401295D01*
X145676857Y-79401295D02*
X145676857Y-79544152D01*
X145676857Y-79544152D02*
X145724476Y-79639390D01*
X145724476Y-79639390D02*
X145772095Y-79687009D01*
X145772095Y-79687009D02*
X145867333Y-79734628D01*
X145867333Y-79734628D02*
X146248285Y-79734628D01*
X145343523Y-79210819D02*
X144724476Y-79210819D01*
X144724476Y-79210819D02*
X145057809Y-79591771D01*
X145057809Y-79591771D02*
X144914952Y-79591771D01*
X144914952Y-79591771D02*
X144819714Y-79639390D01*
X144819714Y-79639390D02*
X144772095Y-79687009D01*
X144772095Y-79687009D02*
X144724476Y-79782247D01*
X144724476Y-79782247D02*
X144724476Y-80020342D01*
X144724476Y-80020342D02*
X144772095Y-80115580D01*
X144772095Y-80115580D02*
X144819714Y-80163200D01*
X144819714Y-80163200D02*
X144914952Y-80210819D01*
X144914952Y-80210819D02*
X145200666Y-80210819D01*
X145200666Y-80210819D02*
X145295904Y-80163200D01*
X145295904Y-80163200D02*
X145343523Y-80115580D01*
X144105428Y-79210819D02*
X144010190Y-79210819D01*
X144010190Y-79210819D02*
X143914952Y-79258438D01*
X143914952Y-79258438D02*
X143867333Y-79306057D01*
X143867333Y-79306057D02*
X143819714Y-79401295D01*
X143819714Y-79401295D02*
X143772095Y-79591771D01*
X143772095Y-79591771D02*
X143772095Y-79829866D01*
X143772095Y-79829866D02*
X143819714Y-80020342D01*
X143819714Y-80020342D02*
X143867333Y-80115580D01*
X143867333Y-80115580D02*
X143914952Y-80163200D01*
X143914952Y-80163200D02*
X144010190Y-80210819D01*
X144010190Y-80210819D02*
X144105428Y-80210819D01*
X144105428Y-80210819D02*
X144200666Y-80163200D01*
X144200666Y-80163200D02*
X144248285Y-80115580D01*
X144248285Y-80115580D02*
X144295904Y-80020342D01*
X144295904Y-80020342D02*
X144343523Y-79829866D01*
X144343523Y-79829866D02*
X144343523Y-79591771D01*
X144343523Y-79591771D02*
X144295904Y-79401295D01*
X144295904Y-79401295D02*
X144248285Y-79306057D01*
X144248285Y-79306057D02*
X144200666Y-79258438D01*
X144200666Y-79258438D02*
X144105428Y-79210819D01*
X170195713Y-100483200D02*
X170052856Y-100530819D01*
X170052856Y-100530819D02*
X169814761Y-100530819D01*
X169814761Y-100530819D02*
X169719523Y-100483200D01*
X169719523Y-100483200D02*
X169671904Y-100435580D01*
X169671904Y-100435580D02*
X169624285Y-100340342D01*
X169624285Y-100340342D02*
X169624285Y-100245104D01*
X169624285Y-100245104D02*
X169671904Y-100149866D01*
X169671904Y-100149866D02*
X169719523Y-100102247D01*
X169719523Y-100102247D02*
X169814761Y-100054628D01*
X169814761Y-100054628D02*
X170005237Y-100007009D01*
X170005237Y-100007009D02*
X170100475Y-99959390D01*
X170100475Y-99959390D02*
X170148094Y-99911771D01*
X170148094Y-99911771D02*
X170195713Y-99816533D01*
X170195713Y-99816533D02*
X170195713Y-99721295D01*
X170195713Y-99721295D02*
X170148094Y-99626057D01*
X170148094Y-99626057D02*
X170100475Y-99578438D01*
X170100475Y-99578438D02*
X170005237Y-99530819D01*
X170005237Y-99530819D02*
X169767142Y-99530819D01*
X169767142Y-99530819D02*
X169624285Y-99578438D01*
X168624285Y-100435580D02*
X168671904Y-100483200D01*
X168671904Y-100483200D02*
X168814761Y-100530819D01*
X168814761Y-100530819D02*
X168909999Y-100530819D01*
X168909999Y-100530819D02*
X169052856Y-100483200D01*
X169052856Y-100483200D02*
X169148094Y-100387961D01*
X169148094Y-100387961D02*
X169195713Y-100292723D01*
X169195713Y-100292723D02*
X169243332Y-100102247D01*
X169243332Y-100102247D02*
X169243332Y-99959390D01*
X169243332Y-99959390D02*
X169195713Y-99768914D01*
X169195713Y-99768914D02*
X169148094Y-99673676D01*
X169148094Y-99673676D02*
X169052856Y-99578438D01*
X169052856Y-99578438D02*
X168909999Y-99530819D01*
X168909999Y-99530819D02*
X168814761Y-99530819D01*
X168814761Y-99530819D02*
X168671904Y-99578438D01*
X168671904Y-99578438D02*
X168624285Y-99626057D01*
X168195713Y-100530819D02*
X168195713Y-99530819D01*
X167624285Y-100530819D02*
X168052856Y-99959390D01*
X167624285Y-99530819D02*
X168195713Y-100102247D01*
X129706666Y-78083580D02*
X129754285Y-78131200D01*
X129754285Y-78131200D02*
X129897142Y-78178819D01*
X129897142Y-78178819D02*
X129992380Y-78178819D01*
X129992380Y-78178819D02*
X130135237Y-78131200D01*
X130135237Y-78131200D02*
X130230475Y-78035961D01*
X130230475Y-78035961D02*
X130278094Y-77940723D01*
X130278094Y-77940723D02*
X130325713Y-77750247D01*
X130325713Y-77750247D02*
X130325713Y-77607390D01*
X130325713Y-77607390D02*
X130278094Y-77416914D01*
X130278094Y-77416914D02*
X130230475Y-77321676D01*
X130230475Y-77321676D02*
X130135237Y-77226438D01*
X130135237Y-77226438D02*
X129992380Y-77178819D01*
X129992380Y-77178819D02*
X129897142Y-77178819D01*
X129897142Y-77178819D02*
X129754285Y-77226438D01*
X129754285Y-77226438D02*
X129706666Y-77274057D01*
X128849523Y-77512152D02*
X128849523Y-78178819D01*
X129087618Y-77131200D02*
X129325713Y-77845485D01*
X129325713Y-77845485D02*
X128706666Y-77845485D01*
X172920819Y-74033142D02*
X172444628Y-73699809D01*
X172920819Y-73461714D02*
X171920819Y-73461714D01*
X171920819Y-73461714D02*
X171920819Y-73842666D01*
X171920819Y-73842666D02*
X171968438Y-73937904D01*
X171968438Y-73937904D02*
X172016057Y-73985523D01*
X172016057Y-73985523D02*
X172111295Y-74033142D01*
X172111295Y-74033142D02*
X172254152Y-74033142D01*
X172254152Y-74033142D02*
X172349390Y-73985523D01*
X172349390Y-73985523D02*
X172397009Y-73937904D01*
X172397009Y-73937904D02*
X172444628Y-73842666D01*
X172444628Y-73842666D02*
X172444628Y-73461714D01*
X172016057Y-74414095D02*
X171968438Y-74461714D01*
X171968438Y-74461714D02*
X171920819Y-74556952D01*
X171920819Y-74556952D02*
X171920819Y-74795047D01*
X171920819Y-74795047D02*
X171968438Y-74890285D01*
X171968438Y-74890285D02*
X172016057Y-74937904D01*
X172016057Y-74937904D02*
X172111295Y-74985523D01*
X172111295Y-74985523D02*
X172206533Y-74985523D01*
X172206533Y-74985523D02*
X172349390Y-74937904D01*
X172349390Y-74937904D02*
X172920819Y-74366476D01*
X172920819Y-74366476D02*
X172920819Y-74985523D01*
X172254152Y-75842666D02*
X172920819Y-75842666D01*
X171873200Y-75604571D02*
X172587485Y-75366476D01*
X172587485Y-75366476D02*
X172587485Y-75985523D01*
X157868857Y-82072619D02*
X158202190Y-81596428D01*
X158440285Y-82072619D02*
X158440285Y-81072619D01*
X158440285Y-81072619D02*
X158059333Y-81072619D01*
X158059333Y-81072619D02*
X157964095Y-81120238D01*
X157964095Y-81120238D02*
X157916476Y-81167857D01*
X157916476Y-81167857D02*
X157868857Y-81263095D01*
X157868857Y-81263095D02*
X157868857Y-81405952D01*
X157868857Y-81405952D02*
X157916476Y-81501190D01*
X157916476Y-81501190D02*
X157964095Y-81548809D01*
X157964095Y-81548809D02*
X158059333Y-81596428D01*
X158059333Y-81596428D02*
X158440285Y-81596428D01*
X157535523Y-81072619D02*
X156916476Y-81072619D01*
X156916476Y-81072619D02*
X157249809Y-81453571D01*
X157249809Y-81453571D02*
X157106952Y-81453571D01*
X157106952Y-81453571D02*
X157011714Y-81501190D01*
X157011714Y-81501190D02*
X156964095Y-81548809D01*
X156964095Y-81548809D02*
X156916476Y-81644047D01*
X156916476Y-81644047D02*
X156916476Y-81882142D01*
X156916476Y-81882142D02*
X156964095Y-81977380D01*
X156964095Y-81977380D02*
X157011714Y-82025000D01*
X157011714Y-82025000D02*
X157106952Y-82072619D01*
X157106952Y-82072619D02*
X157392666Y-82072619D01*
X157392666Y-82072619D02*
X157487904Y-82025000D01*
X157487904Y-82025000D02*
X157535523Y-81977380D01*
X155964095Y-82072619D02*
X156535523Y-82072619D01*
X156249809Y-82072619D02*
X156249809Y-81072619D01*
X156249809Y-81072619D02*
X156345047Y-81215476D01*
X156345047Y-81215476D02*
X156440285Y-81310714D01*
X156440285Y-81310714D02*
X156535523Y-81358333D01*
X166570819Y-78859142D02*
X166094628Y-78525809D01*
X166570819Y-78287714D02*
X165570819Y-78287714D01*
X165570819Y-78287714D02*
X165570819Y-78668666D01*
X165570819Y-78668666D02*
X165618438Y-78763904D01*
X165618438Y-78763904D02*
X165666057Y-78811523D01*
X165666057Y-78811523D02*
X165761295Y-78859142D01*
X165761295Y-78859142D02*
X165904152Y-78859142D01*
X165904152Y-78859142D02*
X165999390Y-78811523D01*
X165999390Y-78811523D02*
X166047009Y-78763904D01*
X166047009Y-78763904D02*
X166094628Y-78668666D01*
X166094628Y-78668666D02*
X166094628Y-78287714D01*
X165666057Y-79240095D02*
X165618438Y-79287714D01*
X165618438Y-79287714D02*
X165570819Y-79382952D01*
X165570819Y-79382952D02*
X165570819Y-79621047D01*
X165570819Y-79621047D02*
X165618438Y-79716285D01*
X165618438Y-79716285D02*
X165666057Y-79763904D01*
X165666057Y-79763904D02*
X165761295Y-79811523D01*
X165761295Y-79811523D02*
X165856533Y-79811523D01*
X165856533Y-79811523D02*
X165999390Y-79763904D01*
X165999390Y-79763904D02*
X166570819Y-79192476D01*
X166570819Y-79192476D02*
X166570819Y-79811523D01*
X165999390Y-80382952D02*
X165951771Y-80287714D01*
X165951771Y-80287714D02*
X165904152Y-80240095D01*
X165904152Y-80240095D02*
X165808914Y-80192476D01*
X165808914Y-80192476D02*
X165761295Y-80192476D01*
X165761295Y-80192476D02*
X165666057Y-80240095D01*
X165666057Y-80240095D02*
X165618438Y-80287714D01*
X165618438Y-80287714D02*
X165570819Y-80382952D01*
X165570819Y-80382952D02*
X165570819Y-80573428D01*
X165570819Y-80573428D02*
X165618438Y-80668666D01*
X165618438Y-80668666D02*
X165666057Y-80716285D01*
X165666057Y-80716285D02*
X165761295Y-80763904D01*
X165761295Y-80763904D02*
X165808914Y-80763904D01*
X165808914Y-80763904D02*
X165904152Y-80716285D01*
X165904152Y-80716285D02*
X165951771Y-80668666D01*
X165951771Y-80668666D02*
X165999390Y-80573428D01*
X165999390Y-80573428D02*
X165999390Y-80382952D01*
X165999390Y-80382952D02*
X166047009Y-80287714D01*
X166047009Y-80287714D02*
X166094628Y-80240095D01*
X166094628Y-80240095D02*
X166189866Y-80192476D01*
X166189866Y-80192476D02*
X166380342Y-80192476D01*
X166380342Y-80192476D02*
X166475580Y-80240095D01*
X166475580Y-80240095D02*
X166523200Y-80287714D01*
X166523200Y-80287714D02*
X166570819Y-80382952D01*
X166570819Y-80382952D02*
X166570819Y-80573428D01*
X166570819Y-80573428D02*
X166523200Y-80668666D01*
X166523200Y-80668666D02*
X166475580Y-80716285D01*
X166475580Y-80716285D02*
X166380342Y-80763904D01*
X166380342Y-80763904D02*
X166189866Y-80763904D01*
X166189866Y-80763904D02*
X166094628Y-80716285D01*
X166094628Y-80716285D02*
X166047009Y-80668666D01*
X166047009Y-80668666D02*
X165999390Y-80573428D01*
X166163427Y-100530819D02*
X166163427Y-99530819D01*
X166163427Y-99530819D02*
X165830094Y-100245104D01*
X165830094Y-100245104D02*
X165496761Y-99530819D01*
X165496761Y-99530819D02*
X165496761Y-100530819D01*
X165020570Y-100530819D02*
X165020570Y-99530819D01*
X164591999Y-100483200D02*
X164449142Y-100530819D01*
X164449142Y-100530819D02*
X164211047Y-100530819D01*
X164211047Y-100530819D02*
X164115809Y-100483200D01*
X164115809Y-100483200D02*
X164068190Y-100435580D01*
X164068190Y-100435580D02*
X164020571Y-100340342D01*
X164020571Y-100340342D02*
X164020571Y-100245104D01*
X164020571Y-100245104D02*
X164068190Y-100149866D01*
X164068190Y-100149866D02*
X164115809Y-100102247D01*
X164115809Y-100102247D02*
X164211047Y-100054628D01*
X164211047Y-100054628D02*
X164401523Y-100007009D01*
X164401523Y-100007009D02*
X164496761Y-99959390D01*
X164496761Y-99959390D02*
X164544380Y-99911771D01*
X164544380Y-99911771D02*
X164591999Y-99816533D01*
X164591999Y-99816533D02*
X164591999Y-99721295D01*
X164591999Y-99721295D02*
X164544380Y-99626057D01*
X164544380Y-99626057D02*
X164496761Y-99578438D01*
X164496761Y-99578438D02*
X164401523Y-99530819D01*
X164401523Y-99530819D02*
X164163428Y-99530819D01*
X164163428Y-99530819D02*
X164020571Y-99578438D01*
X163401523Y-99530819D02*
X163211047Y-99530819D01*
X163211047Y-99530819D02*
X163115809Y-99578438D01*
X163115809Y-99578438D02*
X163020571Y-99673676D01*
X163020571Y-99673676D02*
X162972952Y-99864152D01*
X162972952Y-99864152D02*
X162972952Y-100197485D01*
X162972952Y-100197485D02*
X163020571Y-100387961D01*
X163020571Y-100387961D02*
X163115809Y-100483200D01*
X163115809Y-100483200D02*
X163211047Y-100530819D01*
X163211047Y-100530819D02*
X163401523Y-100530819D01*
X163401523Y-100530819D02*
X163496761Y-100483200D01*
X163496761Y-100483200D02*
X163591999Y-100387961D01*
X163591999Y-100387961D02*
X163639618Y-100197485D01*
X163639618Y-100197485D02*
X163639618Y-99864152D01*
X163639618Y-99864152D02*
X163591999Y-99673676D01*
X163591999Y-99673676D02*
X163496761Y-99578438D01*
X163496761Y-99578438D02*
X163401523Y-99530819D01*
X169132190Y-74972057D02*
X169227428Y-74924438D01*
X169227428Y-74924438D02*
X169322666Y-74829200D01*
X169322666Y-74829200D02*
X169465523Y-74686342D01*
X169465523Y-74686342D02*
X169560761Y-74638723D01*
X169560761Y-74638723D02*
X169655999Y-74638723D01*
X169608380Y-74876819D02*
X169703618Y-74829200D01*
X169703618Y-74829200D02*
X169798856Y-74733961D01*
X169798856Y-74733961D02*
X169846475Y-74543485D01*
X169846475Y-74543485D02*
X169846475Y-74210152D01*
X169846475Y-74210152D02*
X169798856Y-74019676D01*
X169798856Y-74019676D02*
X169703618Y-73924438D01*
X169703618Y-73924438D02*
X169608380Y-73876819D01*
X169608380Y-73876819D02*
X169417904Y-73876819D01*
X169417904Y-73876819D02*
X169322666Y-73924438D01*
X169322666Y-73924438D02*
X169227428Y-74019676D01*
X169227428Y-74019676D02*
X169179809Y-74210152D01*
X169179809Y-74210152D02*
X169179809Y-74543485D01*
X169179809Y-74543485D02*
X169227428Y-74733961D01*
X169227428Y-74733961D02*
X169322666Y-74829200D01*
X169322666Y-74829200D02*
X169417904Y-74876819D01*
X169417904Y-74876819D02*
X169608380Y-74876819D01*
X168894094Y-73876819D02*
X168322666Y-73876819D01*
X168608380Y-74876819D02*
X168608380Y-73876819D01*
X168084570Y-73876819D02*
X167465523Y-73876819D01*
X167465523Y-73876819D02*
X167798856Y-74257771D01*
X167798856Y-74257771D02*
X167655999Y-74257771D01*
X167655999Y-74257771D02*
X167560761Y-74305390D01*
X167560761Y-74305390D02*
X167513142Y-74353009D01*
X167513142Y-74353009D02*
X167465523Y-74448247D01*
X167465523Y-74448247D02*
X167465523Y-74686342D01*
X167465523Y-74686342D02*
X167513142Y-74781580D01*
X167513142Y-74781580D02*
X167560761Y-74829200D01*
X167560761Y-74829200D02*
X167655999Y-74876819D01*
X167655999Y-74876819D02*
X167941713Y-74876819D01*
X167941713Y-74876819D02*
X168036951Y-74829200D01*
X168036951Y-74829200D02*
X168084570Y-74781580D01*
X132575238Y-97568819D02*
X132908571Y-97092628D01*
X133146666Y-97568819D02*
X133146666Y-96568819D01*
X133146666Y-96568819D02*
X132765714Y-96568819D01*
X132765714Y-96568819D02*
X132670476Y-96616438D01*
X132670476Y-96616438D02*
X132622857Y-96664057D01*
X132622857Y-96664057D02*
X132575238Y-96759295D01*
X132575238Y-96759295D02*
X132575238Y-96902152D01*
X132575238Y-96902152D02*
X132622857Y-96997390D01*
X132622857Y-96997390D02*
X132670476Y-97045009D01*
X132670476Y-97045009D02*
X132765714Y-97092628D01*
X132765714Y-97092628D02*
X133146666Y-97092628D01*
X132289523Y-96568819D02*
X131956190Y-97568819D01*
X131956190Y-97568819D02*
X131622857Y-96568819D01*
X130765714Y-97568819D02*
X131337142Y-97568819D01*
X131051428Y-97568819D02*
X131051428Y-96568819D01*
X131051428Y-96568819D02*
X131146666Y-96711676D01*
X131146666Y-96711676D02*
X131241904Y-96806914D01*
X131241904Y-96806914D02*
X131337142Y-96854533D01*
X164030819Y-91813142D02*
X163554628Y-91479809D01*
X164030819Y-91241714D02*
X163030819Y-91241714D01*
X163030819Y-91241714D02*
X163030819Y-91622666D01*
X163030819Y-91622666D02*
X163078438Y-91717904D01*
X163078438Y-91717904D02*
X163126057Y-91765523D01*
X163126057Y-91765523D02*
X163221295Y-91813142D01*
X163221295Y-91813142D02*
X163364152Y-91813142D01*
X163364152Y-91813142D02*
X163459390Y-91765523D01*
X163459390Y-91765523D02*
X163507009Y-91717904D01*
X163507009Y-91717904D02*
X163554628Y-91622666D01*
X163554628Y-91622666D02*
X163554628Y-91241714D01*
X163126057Y-92194095D02*
X163078438Y-92241714D01*
X163078438Y-92241714D02*
X163030819Y-92336952D01*
X163030819Y-92336952D02*
X163030819Y-92575047D01*
X163030819Y-92575047D02*
X163078438Y-92670285D01*
X163078438Y-92670285D02*
X163126057Y-92717904D01*
X163126057Y-92717904D02*
X163221295Y-92765523D01*
X163221295Y-92765523D02*
X163316533Y-92765523D01*
X163316533Y-92765523D02*
X163459390Y-92717904D01*
X163459390Y-92717904D02*
X164030819Y-92146476D01*
X164030819Y-92146476D02*
X164030819Y-92765523D01*
X163030819Y-93098857D02*
X163030819Y-93765523D01*
X163030819Y-93765523D02*
X164030819Y-93336952D01*
X121292761Y-91504419D02*
X120721333Y-91504419D01*
X121007047Y-92504419D02*
X121007047Y-91504419D01*
X120007047Y-92456800D02*
X120102285Y-92504419D01*
X120102285Y-92504419D02*
X120292761Y-92504419D01*
X120292761Y-92504419D02*
X120387999Y-92456800D01*
X120387999Y-92456800D02*
X120435618Y-92361561D01*
X120435618Y-92361561D02*
X120435618Y-91980609D01*
X120435618Y-91980609D02*
X120387999Y-91885371D01*
X120387999Y-91885371D02*
X120292761Y-91837752D01*
X120292761Y-91837752D02*
X120102285Y-91837752D01*
X120102285Y-91837752D02*
X120007047Y-91885371D01*
X120007047Y-91885371D02*
X119959428Y-91980609D01*
X119959428Y-91980609D02*
X119959428Y-92075847D01*
X119959428Y-92075847D02*
X120435618Y-92171085D01*
X119578475Y-92456800D02*
X119483237Y-92504419D01*
X119483237Y-92504419D02*
X119292761Y-92504419D01*
X119292761Y-92504419D02*
X119197523Y-92456800D01*
X119197523Y-92456800D02*
X119149904Y-92361561D01*
X119149904Y-92361561D02*
X119149904Y-92313942D01*
X119149904Y-92313942D02*
X119197523Y-92218704D01*
X119197523Y-92218704D02*
X119292761Y-92171085D01*
X119292761Y-92171085D02*
X119435618Y-92171085D01*
X119435618Y-92171085D02*
X119530856Y-92123466D01*
X119530856Y-92123466D02*
X119578475Y-92028228D01*
X119578475Y-92028228D02*
X119578475Y-91980609D01*
X119578475Y-91980609D02*
X119530856Y-91885371D01*
X119530856Y-91885371D02*
X119435618Y-91837752D01*
X119435618Y-91837752D02*
X119292761Y-91837752D01*
X119292761Y-91837752D02*
X119197523Y-91885371D01*
X118864189Y-91837752D02*
X118483237Y-91837752D01*
X118721332Y-91504419D02*
X118721332Y-92361561D01*
X118721332Y-92361561D02*
X118673713Y-92456800D01*
X118673713Y-92456800D02*
X118578475Y-92504419D01*
X118578475Y-92504419D02*
X118483237Y-92504419D01*
X121546761Y-96624819D02*
X120975333Y-96624819D01*
X121261047Y-97624819D02*
X121261047Y-96624819D01*
X120261047Y-97577200D02*
X120356285Y-97624819D01*
X120356285Y-97624819D02*
X120546761Y-97624819D01*
X120546761Y-97624819D02*
X120641999Y-97577200D01*
X120641999Y-97577200D02*
X120689618Y-97481961D01*
X120689618Y-97481961D02*
X120689618Y-97101009D01*
X120689618Y-97101009D02*
X120641999Y-97005771D01*
X120641999Y-97005771D02*
X120546761Y-96958152D01*
X120546761Y-96958152D02*
X120356285Y-96958152D01*
X120356285Y-96958152D02*
X120261047Y-97005771D01*
X120261047Y-97005771D02*
X120213428Y-97101009D01*
X120213428Y-97101009D02*
X120213428Y-97196247D01*
X120213428Y-97196247D02*
X120689618Y-97291485D01*
X119832475Y-97577200D02*
X119737237Y-97624819D01*
X119737237Y-97624819D02*
X119546761Y-97624819D01*
X119546761Y-97624819D02*
X119451523Y-97577200D01*
X119451523Y-97577200D02*
X119403904Y-97481961D01*
X119403904Y-97481961D02*
X119403904Y-97434342D01*
X119403904Y-97434342D02*
X119451523Y-97339104D01*
X119451523Y-97339104D02*
X119546761Y-97291485D01*
X119546761Y-97291485D02*
X119689618Y-97291485D01*
X119689618Y-97291485D02*
X119784856Y-97243866D01*
X119784856Y-97243866D02*
X119832475Y-97148628D01*
X119832475Y-97148628D02*
X119832475Y-97101009D01*
X119832475Y-97101009D02*
X119784856Y-97005771D01*
X119784856Y-97005771D02*
X119689618Y-96958152D01*
X119689618Y-96958152D02*
X119546761Y-96958152D01*
X119546761Y-96958152D02*
X119451523Y-97005771D01*
X119118189Y-96958152D02*
X118737237Y-96958152D01*
X118975332Y-96624819D02*
X118975332Y-97481961D01*
X118975332Y-97481961D02*
X118927713Y-97577200D01*
X118927713Y-97577200D02*
X118832475Y-97624819D01*
X118832475Y-97624819D02*
X118737237Y-97624819D01*
X171650819Y-92067142D02*
X171174628Y-91733809D01*
X171650819Y-91495714D02*
X170650819Y-91495714D01*
X170650819Y-91495714D02*
X170650819Y-91876666D01*
X170650819Y-91876666D02*
X170698438Y-91971904D01*
X170698438Y-91971904D02*
X170746057Y-92019523D01*
X170746057Y-92019523D02*
X170841295Y-92067142D01*
X170841295Y-92067142D02*
X170984152Y-92067142D01*
X170984152Y-92067142D02*
X171079390Y-92019523D01*
X171079390Y-92019523D02*
X171127009Y-91971904D01*
X171127009Y-91971904D02*
X171174628Y-91876666D01*
X171174628Y-91876666D02*
X171174628Y-91495714D01*
X170746057Y-92448095D02*
X170698438Y-92495714D01*
X170698438Y-92495714D02*
X170650819Y-92590952D01*
X170650819Y-92590952D02*
X170650819Y-92829047D01*
X170650819Y-92829047D02*
X170698438Y-92924285D01*
X170698438Y-92924285D02*
X170746057Y-92971904D01*
X170746057Y-92971904D02*
X170841295Y-93019523D01*
X170841295Y-93019523D02*
X170936533Y-93019523D01*
X170936533Y-93019523D02*
X171079390Y-92971904D01*
X171079390Y-92971904D02*
X171650819Y-92400476D01*
X171650819Y-92400476D02*
X171650819Y-93019523D01*
X170650819Y-93924285D02*
X170650819Y-93448095D01*
X170650819Y-93448095D02*
X171127009Y-93400476D01*
X171127009Y-93400476D02*
X171079390Y-93448095D01*
X171079390Y-93448095D02*
X171031771Y-93543333D01*
X171031771Y-93543333D02*
X171031771Y-93781428D01*
X171031771Y-93781428D02*
X171079390Y-93876666D01*
X171079390Y-93876666D02*
X171127009Y-93924285D01*
X171127009Y-93924285D02*
X171222247Y-93971904D01*
X171222247Y-93971904D02*
X171460342Y-93971904D01*
X171460342Y-93971904D02*
X171555580Y-93924285D01*
X171555580Y-93924285D02*
X171603200Y-93876666D01*
X171603200Y-93876666D02*
X171650819Y-93781428D01*
X171650819Y-93781428D02*
X171650819Y-93543333D01*
X171650819Y-93543333D02*
X171603200Y-93448095D01*
X171603200Y-93448095D02*
X171555580Y-93400476D01*
X132754666Y-78083580D02*
X132802285Y-78131200D01*
X132802285Y-78131200D02*
X132945142Y-78178819D01*
X132945142Y-78178819D02*
X133040380Y-78178819D01*
X133040380Y-78178819D02*
X133183237Y-78131200D01*
X133183237Y-78131200D02*
X133278475Y-78035961D01*
X133278475Y-78035961D02*
X133326094Y-77940723D01*
X133326094Y-77940723D02*
X133373713Y-77750247D01*
X133373713Y-77750247D02*
X133373713Y-77607390D01*
X133373713Y-77607390D02*
X133326094Y-77416914D01*
X133326094Y-77416914D02*
X133278475Y-77321676D01*
X133278475Y-77321676D02*
X133183237Y-77226438D01*
X133183237Y-77226438D02*
X133040380Y-77178819D01*
X133040380Y-77178819D02*
X132945142Y-77178819D01*
X132945142Y-77178819D02*
X132802285Y-77226438D01*
X132802285Y-77226438D02*
X132754666Y-77274057D01*
X132421332Y-77178819D02*
X131802285Y-77178819D01*
X131802285Y-77178819D02*
X132135618Y-77559771D01*
X132135618Y-77559771D02*
X131992761Y-77559771D01*
X131992761Y-77559771D02*
X131897523Y-77607390D01*
X131897523Y-77607390D02*
X131849904Y-77655009D01*
X131849904Y-77655009D02*
X131802285Y-77750247D01*
X131802285Y-77750247D02*
X131802285Y-77988342D01*
X131802285Y-77988342D02*
X131849904Y-78083580D01*
X131849904Y-78083580D02*
X131897523Y-78131200D01*
X131897523Y-78131200D02*
X131992761Y-78178819D01*
X131992761Y-78178819D02*
X132278475Y-78178819D01*
X132278475Y-78178819D02*
X132373713Y-78131200D01*
X132373713Y-78131200D02*
X132421332Y-78083580D01*
X140374666Y-102562819D02*
X140707999Y-102086628D01*
X140946094Y-102562819D02*
X140946094Y-101562819D01*
X140946094Y-101562819D02*
X140565142Y-101562819D01*
X140565142Y-101562819D02*
X140469904Y-101610438D01*
X140469904Y-101610438D02*
X140422285Y-101658057D01*
X140422285Y-101658057D02*
X140374666Y-101753295D01*
X140374666Y-101753295D02*
X140374666Y-101896152D01*
X140374666Y-101896152D02*
X140422285Y-101991390D01*
X140422285Y-101991390D02*
X140469904Y-102039009D01*
X140469904Y-102039009D02*
X140565142Y-102086628D01*
X140565142Y-102086628D02*
X140946094Y-102086628D01*
X140041332Y-101562819D02*
X139374666Y-101562819D01*
X139374666Y-101562819D02*
X139803237Y-102562819D01*
X132714904Y-73721238D02*
X132810142Y-73673619D01*
X132810142Y-73673619D02*
X132952999Y-73673619D01*
X132952999Y-73673619D02*
X133095856Y-73721238D01*
X133095856Y-73721238D02*
X133191094Y-73816476D01*
X133191094Y-73816476D02*
X133238713Y-73911714D01*
X133238713Y-73911714D02*
X133286332Y-74102190D01*
X133286332Y-74102190D02*
X133286332Y-74245047D01*
X133286332Y-74245047D02*
X133238713Y-74435523D01*
X133238713Y-74435523D02*
X133191094Y-74530761D01*
X133191094Y-74530761D02*
X133095856Y-74626000D01*
X133095856Y-74626000D02*
X132952999Y-74673619D01*
X132952999Y-74673619D02*
X132857761Y-74673619D01*
X132857761Y-74673619D02*
X132714904Y-74626000D01*
X132714904Y-74626000D02*
X132667285Y-74578380D01*
X132667285Y-74578380D02*
X132667285Y-74245047D01*
X132667285Y-74245047D02*
X132857761Y-74245047D01*
X132238713Y-74673619D02*
X132238713Y-73673619D01*
X132238713Y-73673619D02*
X131667285Y-74673619D01*
X131667285Y-74673619D02*
X131667285Y-73673619D01*
X131191094Y-74673619D02*
X131191094Y-73673619D01*
X131191094Y-73673619D02*
X130952999Y-73673619D01*
X130952999Y-73673619D02*
X130810142Y-73721238D01*
X130810142Y-73721238D02*
X130714904Y-73816476D01*
X130714904Y-73816476D02*
X130667285Y-73911714D01*
X130667285Y-73911714D02*
X130619666Y-74102190D01*
X130619666Y-74102190D02*
X130619666Y-74245047D01*
X130619666Y-74245047D02*
X130667285Y-74435523D01*
X130667285Y-74435523D02*
X130714904Y-74530761D01*
X130714904Y-74530761D02*
X130810142Y-74626000D01*
X130810142Y-74626000D02*
X130952999Y-74673619D01*
X130952999Y-74673619D02*
X131191094Y-74673619D01*
X127871408Y-73622819D02*
X127538075Y-74622819D01*
X127538075Y-74622819D02*
X127204742Y-73622819D01*
X126871408Y-74622819D02*
X126871408Y-73956152D01*
X126871408Y-73622819D02*
X126919027Y-73670438D01*
X126919027Y-73670438D02*
X126871408Y-73718057D01*
X126871408Y-73718057D02*
X126823789Y-73670438D01*
X126823789Y-73670438D02*
X126871408Y-73622819D01*
X126871408Y-73622819D02*
X126871408Y-73718057D01*
X126395218Y-73956152D02*
X126395218Y-74622819D01*
X126395218Y-74051390D02*
X126347599Y-74003771D01*
X126347599Y-74003771D02*
X126252361Y-73956152D01*
X126252361Y-73956152D02*
X126109504Y-73956152D01*
X126109504Y-73956152D02*
X126014266Y-74003771D01*
X126014266Y-74003771D02*
X125966647Y-74099009D01*
X125966647Y-74099009D02*
X125966647Y-74622819D01*
X165099904Y-101102438D02*
X165195142Y-101054819D01*
X165195142Y-101054819D02*
X165337999Y-101054819D01*
X165337999Y-101054819D02*
X165480856Y-101102438D01*
X165480856Y-101102438D02*
X165576094Y-101197676D01*
X165576094Y-101197676D02*
X165623713Y-101292914D01*
X165623713Y-101292914D02*
X165671332Y-101483390D01*
X165671332Y-101483390D02*
X165671332Y-101626247D01*
X165671332Y-101626247D02*
X165623713Y-101816723D01*
X165623713Y-101816723D02*
X165576094Y-101911961D01*
X165576094Y-101911961D02*
X165480856Y-102007200D01*
X165480856Y-102007200D02*
X165337999Y-102054819D01*
X165337999Y-102054819D02*
X165242761Y-102054819D01*
X165242761Y-102054819D02*
X165099904Y-102007200D01*
X165099904Y-102007200D02*
X165052285Y-101959580D01*
X165052285Y-101959580D02*
X165052285Y-101626247D01*
X165052285Y-101626247D02*
X165242761Y-101626247D01*
X164623713Y-102054819D02*
X164623713Y-101054819D01*
X164623713Y-101054819D02*
X164052285Y-102054819D01*
X164052285Y-102054819D02*
X164052285Y-101054819D01*
X163576094Y-102054819D02*
X163576094Y-101054819D01*
X163576094Y-101054819D02*
X163337999Y-101054819D01*
X163337999Y-101054819D02*
X163195142Y-101102438D01*
X163195142Y-101102438D02*
X163099904Y-101197676D01*
X163099904Y-101197676D02*
X163052285Y-101292914D01*
X163052285Y-101292914D02*
X163004666Y-101483390D01*
X163004666Y-101483390D02*
X163004666Y-101626247D01*
X163004666Y-101626247D02*
X163052285Y-101816723D01*
X163052285Y-101816723D02*
X163099904Y-101911961D01*
X163099904Y-101911961D02*
X163195142Y-102007200D01*
X163195142Y-102007200D02*
X163337999Y-102054819D01*
X163337999Y-102054819D02*
X163576094Y-102054819D01*
X166570819Y-91813142D02*
X166094628Y-91479809D01*
X166570819Y-91241714D02*
X165570819Y-91241714D01*
X165570819Y-91241714D02*
X165570819Y-91622666D01*
X165570819Y-91622666D02*
X165618438Y-91717904D01*
X165618438Y-91717904D02*
X165666057Y-91765523D01*
X165666057Y-91765523D02*
X165761295Y-91813142D01*
X165761295Y-91813142D02*
X165904152Y-91813142D01*
X165904152Y-91813142D02*
X165999390Y-91765523D01*
X165999390Y-91765523D02*
X166047009Y-91717904D01*
X166047009Y-91717904D02*
X166094628Y-91622666D01*
X166094628Y-91622666D02*
X166094628Y-91241714D01*
X165666057Y-92194095D02*
X165618438Y-92241714D01*
X165618438Y-92241714D02*
X165570819Y-92336952D01*
X165570819Y-92336952D02*
X165570819Y-92575047D01*
X165570819Y-92575047D02*
X165618438Y-92670285D01*
X165618438Y-92670285D02*
X165666057Y-92717904D01*
X165666057Y-92717904D02*
X165761295Y-92765523D01*
X165761295Y-92765523D02*
X165856533Y-92765523D01*
X165856533Y-92765523D02*
X165999390Y-92717904D01*
X165999390Y-92717904D02*
X166570819Y-92146476D01*
X166570819Y-92146476D02*
X166570819Y-92765523D01*
X165570819Y-93622666D02*
X165570819Y-93432190D01*
X165570819Y-93432190D02*
X165618438Y-93336952D01*
X165618438Y-93336952D02*
X165666057Y-93289333D01*
X165666057Y-93289333D02*
X165808914Y-93194095D01*
X165808914Y-93194095D02*
X165999390Y-93146476D01*
X165999390Y-93146476D02*
X166380342Y-93146476D01*
X166380342Y-93146476D02*
X166475580Y-93194095D01*
X166475580Y-93194095D02*
X166523200Y-93241714D01*
X166523200Y-93241714D02*
X166570819Y-93336952D01*
X166570819Y-93336952D02*
X166570819Y-93527428D01*
X166570819Y-93527428D02*
X166523200Y-93622666D01*
X166523200Y-93622666D02*
X166475580Y-93670285D01*
X166475580Y-93670285D02*
X166380342Y-93717904D01*
X166380342Y-93717904D02*
X166142247Y-93717904D01*
X166142247Y-93717904D02*
X166047009Y-93670285D01*
X166047009Y-93670285D02*
X165999390Y-93622666D01*
X165999390Y-93622666D02*
X165951771Y-93527428D01*
X165951771Y-93527428D02*
X165951771Y-93336952D01*
X165951771Y-93336952D02*
X165999390Y-93241714D01*
X165999390Y-93241714D02*
X166047009Y-93194095D01*
X166047009Y-93194095D02*
X166142247Y-93146476D01*
X124159180Y-78961821D02*
X124206800Y-78914202D01*
X124206800Y-78914202D02*
X124254419Y-78771345D01*
X124254419Y-78771345D02*
X124254419Y-78676107D01*
X124254419Y-78676107D02*
X124206800Y-78533250D01*
X124206800Y-78533250D02*
X124111561Y-78438012D01*
X124111561Y-78438012D02*
X124016323Y-78390393D01*
X124016323Y-78390393D02*
X123825847Y-78342774D01*
X123825847Y-78342774D02*
X123682990Y-78342774D01*
X123682990Y-78342774D02*
X123492514Y-78390393D01*
X123492514Y-78390393D02*
X123397276Y-78438012D01*
X123397276Y-78438012D02*
X123302038Y-78533250D01*
X123302038Y-78533250D02*
X123254419Y-78676107D01*
X123254419Y-78676107D02*
X123254419Y-78771345D01*
X123254419Y-78771345D02*
X123302038Y-78914202D01*
X123302038Y-78914202D02*
X123349657Y-78961821D01*
X124254419Y-79390393D02*
X123254419Y-79390393D01*
X123254419Y-79390393D02*
X123254419Y-79771345D01*
X123254419Y-79771345D02*
X123302038Y-79866583D01*
X123302038Y-79866583D02*
X123349657Y-79914202D01*
X123349657Y-79914202D02*
X123444895Y-79961821D01*
X123444895Y-79961821D02*
X123587752Y-79961821D01*
X123587752Y-79961821D02*
X123682990Y-79914202D01*
X123682990Y-79914202D02*
X123730609Y-79866583D01*
X123730609Y-79866583D02*
X123778228Y-79771345D01*
X123778228Y-79771345D02*
X123778228Y-79390393D01*
X124254419Y-80914202D02*
X124254419Y-80342774D01*
X124254419Y-80628488D02*
X123254419Y-80628488D01*
X123254419Y-80628488D02*
X123397276Y-80533250D01*
X123397276Y-80533250D02*
X123492514Y-80438012D01*
X123492514Y-80438012D02*
X123540133Y-80342774D01*
X164030819Y-78605142D02*
X163554628Y-78271809D01*
X164030819Y-78033714D02*
X163030819Y-78033714D01*
X163030819Y-78033714D02*
X163030819Y-78414666D01*
X163030819Y-78414666D02*
X163078438Y-78509904D01*
X163078438Y-78509904D02*
X163126057Y-78557523D01*
X163126057Y-78557523D02*
X163221295Y-78605142D01*
X163221295Y-78605142D02*
X163364152Y-78605142D01*
X163364152Y-78605142D02*
X163459390Y-78557523D01*
X163459390Y-78557523D02*
X163507009Y-78509904D01*
X163507009Y-78509904D02*
X163554628Y-78414666D01*
X163554628Y-78414666D02*
X163554628Y-78033714D01*
X163126057Y-78986095D02*
X163078438Y-79033714D01*
X163078438Y-79033714D02*
X163030819Y-79128952D01*
X163030819Y-79128952D02*
X163030819Y-79367047D01*
X163030819Y-79367047D02*
X163078438Y-79462285D01*
X163078438Y-79462285D02*
X163126057Y-79509904D01*
X163126057Y-79509904D02*
X163221295Y-79557523D01*
X163221295Y-79557523D02*
X163316533Y-79557523D01*
X163316533Y-79557523D02*
X163459390Y-79509904D01*
X163459390Y-79509904D02*
X164030819Y-78938476D01*
X164030819Y-78938476D02*
X164030819Y-79557523D01*
X164030819Y-80033714D02*
X164030819Y-80224190D01*
X164030819Y-80224190D02*
X163983200Y-80319428D01*
X163983200Y-80319428D02*
X163935580Y-80367047D01*
X163935580Y-80367047D02*
X163792723Y-80462285D01*
X163792723Y-80462285D02*
X163602247Y-80509904D01*
X163602247Y-80509904D02*
X163221295Y-80509904D01*
X163221295Y-80509904D02*
X163126057Y-80462285D01*
X163126057Y-80462285D02*
X163078438Y-80414666D01*
X163078438Y-80414666D02*
X163030819Y-80319428D01*
X163030819Y-80319428D02*
X163030819Y-80128952D01*
X163030819Y-80128952D02*
X163078438Y-80033714D01*
X163078438Y-80033714D02*
X163126057Y-79986095D01*
X163126057Y-79986095D02*
X163221295Y-79938476D01*
X163221295Y-79938476D02*
X163459390Y-79938476D01*
X163459390Y-79938476D02*
X163554628Y-79986095D01*
X163554628Y-79986095D02*
X163602247Y-80033714D01*
X163602247Y-80033714D02*
X163649866Y-80128952D01*
X163649866Y-80128952D02*
X163649866Y-80319428D01*
X163649866Y-80319428D02*
X163602247Y-80414666D01*
X163602247Y-80414666D02*
X163554628Y-80462285D01*
X163554628Y-80462285D02*
X163459390Y-80509904D01*
D11*
%TO.C,+5V*%
X177988000Y-82804000D02*
G75*
G02*
X176088000Y-82804000I-950000J0D01*
G01*
X176088000Y-82804000D02*
G75*
G02*
X177988000Y-82804000I950000J0D01*
G01*
%TO.C,R23*%
X170673500Y-76915742D02*
X170673500Y-77390258D01*
X171718500Y-76915742D02*
X171718500Y-77390258D01*
%TO.C,RST*%
X181036000Y-82804000D02*
G75*
G02*
X179136000Y-82804000I-950000J0D01*
G01*
X179136000Y-82804000D02*
G75*
G02*
X181036000Y-82804000I950000J0D01*
G01*
%TO.C,MOSI*%
X181036000Y-79756000D02*
G75*
G02*
X179136000Y-79756000I-950000J0D01*
G01*
X179136000Y-79756000D02*
G75*
G02*
X181036000Y-79756000I950000J0D01*
G01*
%TO.C,QT2*%
X153888000Y-76741500D02*
X153888000Y-77391500D01*
X153888000Y-78041500D02*
X153888000Y-77391500D01*
X157008000Y-76741500D02*
X157008000Y-77391500D01*
X157008000Y-78041500D02*
X157008000Y-77391500D01*
X157288000Y-78794000D02*
X156958000Y-78554000D01*
X157288000Y-78314000D01*
X157288000Y-78794000D01*
G36*
X157288000Y-78794000D02*
G01*
X156958000Y-78554000D01*
X157288000Y-78314000D01*
X157288000Y-78794000D01*
G37*
%TO.C,CP2*%
X121666000Y-90465677D02*
X131826000Y-90465677D01*
X121666000Y-90505677D02*
X131826000Y-90505677D01*
X121666000Y-90545677D02*
X131826000Y-90545677D01*
X121667000Y-90425677D02*
X131825000Y-90425677D01*
X121668000Y-90385677D02*
X131824000Y-90385677D01*
X121669000Y-90345677D02*
X131823000Y-90345677D01*
X121671000Y-90305677D02*
X125706000Y-90305677D01*
X121673000Y-90265677D02*
X125706000Y-90265677D01*
X121676000Y-90225677D02*
X125706000Y-90225677D01*
X121678000Y-90185677D02*
X125706000Y-90185677D01*
X121681000Y-90145677D02*
X125706000Y-90145677D01*
X121684000Y-90105677D02*
X125706000Y-90105677D01*
X121688000Y-90065677D02*
X125706000Y-90065677D01*
X121692000Y-90025677D02*
X125706000Y-90025677D01*
X121696000Y-89985677D02*
X125706000Y-89985677D01*
X121701000Y-89945677D02*
X125706000Y-89945677D01*
X121706000Y-89905677D02*
X125706000Y-89905677D01*
X121711000Y-89865677D02*
X125706000Y-89865677D01*
X121716000Y-89824677D02*
X125706000Y-89824677D01*
X121722000Y-89784677D02*
X125706000Y-89784677D01*
X121728000Y-89744677D02*
X125706000Y-89744677D01*
X121735000Y-89704677D02*
X125706000Y-89704677D01*
X121742000Y-89664677D02*
X125706000Y-89664677D01*
X121749000Y-89624677D02*
X124106000Y-89624677D01*
X121756000Y-89584677D02*
X124106000Y-89584677D01*
X121764000Y-89544677D02*
X124106000Y-89544677D01*
X121772000Y-89504677D02*
X124106000Y-89504677D01*
X121781000Y-89464677D02*
X124106000Y-89464677D01*
X121790000Y-89424677D02*
X124106000Y-89424677D01*
X121799000Y-89384677D02*
X124106000Y-89384677D01*
X121808000Y-89344677D02*
X124106000Y-89344677D01*
X121818000Y-89304677D02*
X124106000Y-89304677D01*
X121828000Y-89264677D02*
X124106000Y-89264677D01*
X121839000Y-89224677D02*
X124106000Y-89224677D01*
X121849000Y-89184677D02*
X124106000Y-89184677D01*
X121861000Y-89144677D02*
X124106000Y-89144677D01*
X121872000Y-89104677D02*
X124106000Y-89104677D01*
X121884000Y-89064677D02*
X124106000Y-89064677D01*
X121896000Y-89024677D02*
X124106000Y-89024677D01*
X121909000Y-88984677D02*
X124106000Y-88984677D01*
X121922000Y-88944677D02*
X124106000Y-88944677D01*
X121935000Y-88904677D02*
X124106000Y-88904677D01*
X121949000Y-88864677D02*
X124106000Y-88864677D01*
X121963000Y-88824677D02*
X124106000Y-88824677D01*
X121978000Y-88784677D02*
X124106000Y-88784677D01*
X121992000Y-88744677D02*
X124106000Y-88744677D01*
X122008000Y-88704677D02*
X124106000Y-88704677D01*
X122023000Y-88664677D02*
X124106000Y-88664677D01*
X122039000Y-88624677D02*
X124106000Y-88624677D01*
X122056000Y-88584677D02*
X124106000Y-88584677D01*
X122072000Y-88544677D02*
X124106000Y-88544677D01*
X122089000Y-88504677D02*
X124106000Y-88504677D01*
X122107000Y-88464677D02*
X124106000Y-88464677D01*
X122125000Y-88424677D02*
X124106000Y-88424677D01*
X122143000Y-88384677D02*
X124106000Y-88384677D01*
X122162000Y-88344677D02*
X124106000Y-88344677D01*
X122182000Y-88304677D02*
X124106000Y-88304677D01*
X122201000Y-88264677D02*
X124106000Y-88264677D01*
X122221000Y-88224677D02*
X124106000Y-88224677D01*
X122242000Y-88184677D02*
X124106000Y-88184677D01*
X122263000Y-88144677D02*
X124106000Y-88144677D01*
X122284000Y-88104677D02*
X124106000Y-88104677D01*
X122306000Y-88064677D02*
X124106000Y-88064677D01*
X122329000Y-88024677D02*
X124106000Y-88024677D01*
X122351000Y-87984677D02*
X124106000Y-87984677D01*
X122375000Y-87944677D02*
X124106000Y-87944677D01*
X122399000Y-87904677D02*
X124106000Y-87904677D01*
X122423000Y-87864677D02*
X124106000Y-87864677D01*
X122448000Y-87824677D02*
X124106000Y-87824677D01*
X122473000Y-87784677D02*
X124106000Y-87784677D01*
X122499000Y-87744677D02*
X124106000Y-87744677D01*
X122525000Y-87704677D02*
X124106000Y-87704677D01*
X122552000Y-87664677D02*
X124106000Y-87664677D01*
X122580000Y-87624677D02*
X124106000Y-87624677D01*
X122608000Y-87584677D02*
X124106000Y-87584677D01*
X122636000Y-87544677D02*
X130856000Y-87544677D01*
X122666000Y-87504677D02*
X130826000Y-87504677D01*
X122696000Y-87464677D02*
X130796000Y-87464677D01*
X122726000Y-87424677D02*
X130766000Y-87424677D01*
X122757000Y-87384677D02*
X130735000Y-87384677D01*
X122789000Y-87344677D02*
X130703000Y-87344677D01*
X122821000Y-87304677D02*
X130671000Y-87304677D01*
X122854000Y-87264677D02*
X130638000Y-87264677D01*
X122888000Y-87224677D02*
X130604000Y-87224677D01*
X122922000Y-87184677D02*
X130570000Y-87184677D01*
X122957000Y-87144677D02*
X130535000Y-87144677D01*
X122993000Y-87104677D02*
X130499000Y-87104677D01*
X123030000Y-87064677D02*
X130462000Y-87064677D01*
X123067000Y-87024677D02*
X130425000Y-87024677D01*
X123106000Y-86984677D02*
X130386000Y-86984677D01*
X123145000Y-86944677D02*
X130347000Y-86944677D01*
X123185000Y-86904677D02*
X130307000Y-86904677D01*
X123226000Y-86864677D02*
X130266000Y-86864677D01*
X123268000Y-86824677D02*
X130224000Y-86824677D01*
X123310000Y-86784677D02*
X130182000Y-86784677D01*
X123354000Y-86744677D02*
X130138000Y-86744677D01*
X123399000Y-86704677D02*
X130093000Y-86704677D01*
X123445000Y-86664677D02*
X130047000Y-86664677D01*
X123492000Y-86624677D02*
X130000000Y-86624677D01*
X123540000Y-86584677D02*
X129952000Y-86584677D01*
X123590000Y-86544677D02*
X129902000Y-86544677D01*
X123640000Y-86504677D02*
X129852000Y-86504677D01*
X123692000Y-86464677D02*
X129800000Y-86464677D01*
X123746000Y-86424677D02*
X129746000Y-86424677D01*
X123801000Y-86384677D02*
X129691000Y-86384677D01*
X123857000Y-86344677D02*
X129635000Y-86344677D01*
X123916000Y-86304677D02*
X129576000Y-86304677D01*
X123976000Y-86264677D02*
X129516000Y-86264677D01*
X124037000Y-86224677D02*
X129455000Y-86224677D01*
X124101000Y-86184677D02*
X129391000Y-86184677D01*
X124167000Y-86144677D02*
X129325000Y-86144677D01*
X124236000Y-86104677D02*
X129256000Y-86104677D01*
X124307000Y-86064677D02*
X129185000Y-86064677D01*
X124381000Y-86024677D02*
X129111000Y-86024677D01*
X124457000Y-85984677D02*
X129035000Y-85984677D01*
X124537000Y-85944677D02*
X128955000Y-85944677D01*
X124621000Y-85904677D02*
X128871000Y-85904677D01*
X124709000Y-85864677D02*
X128783000Y-85864677D01*
X124802000Y-85824677D02*
X128690000Y-85824677D01*
X124900000Y-85784677D02*
X128592000Y-85784677D01*
X125004000Y-85744677D02*
X128488000Y-85744677D01*
X125116000Y-85704677D02*
X128376000Y-85704677D01*
X125236000Y-85664677D02*
X128256000Y-85664677D01*
X125368000Y-85624677D02*
X128124000Y-85624677D01*
X125516000Y-85584677D02*
X127976000Y-85584677D01*
X125684000Y-85544677D02*
X127808000Y-85544677D01*
X125884000Y-85504677D02*
X127608000Y-85504677D01*
X126147000Y-85464677D02*
X127345000Y-85464677D01*
X126186000Y-87584677D02*
X130884000Y-87584677D01*
X126186000Y-87624677D02*
X130912000Y-87624677D01*
X126186000Y-87664677D02*
X130940000Y-87664677D01*
X126186000Y-87704677D02*
X130967000Y-87704677D01*
X126186000Y-87744677D02*
X130993000Y-87744677D01*
X126186000Y-87784677D02*
X131019000Y-87784677D01*
X126186000Y-87824677D02*
X131044000Y-87824677D01*
X126186000Y-87864677D02*
X131069000Y-87864677D01*
X126186000Y-87904677D02*
X131093000Y-87904677D01*
X126186000Y-87944677D02*
X131117000Y-87944677D01*
X126186000Y-87984677D02*
X131141000Y-87984677D01*
X126186000Y-88024677D02*
X131163000Y-88024677D01*
X126186000Y-88064677D02*
X131186000Y-88064677D01*
X126186000Y-88104677D02*
X131208000Y-88104677D01*
X126186000Y-88144677D02*
X131229000Y-88144677D01*
X126186000Y-88184677D02*
X131250000Y-88184677D01*
X126186000Y-88224677D02*
X131271000Y-88224677D01*
X127786000Y-88264677D02*
X131291000Y-88264677D01*
X127786000Y-88304677D02*
X131310000Y-88304677D01*
X127786000Y-88344677D02*
X131330000Y-88344677D01*
X127786000Y-88384677D02*
X131349000Y-88384677D01*
X127786000Y-88424677D02*
X131367000Y-88424677D01*
X127786000Y-88464677D02*
X131385000Y-88464677D01*
X127786000Y-88504677D02*
X131403000Y-88504677D01*
X127786000Y-88544677D02*
X131420000Y-88544677D01*
X127786000Y-88584677D02*
X131436000Y-88584677D01*
X127786000Y-88624677D02*
X131453000Y-88624677D01*
X127786000Y-88664677D02*
X131469000Y-88664677D01*
X127786000Y-88704677D02*
X131484000Y-88704677D01*
X127786000Y-88744677D02*
X131500000Y-88744677D01*
X127786000Y-88784677D02*
X131514000Y-88784677D01*
X127786000Y-88824677D02*
X131529000Y-88824677D01*
X127786000Y-88864677D02*
X131543000Y-88864677D01*
X127786000Y-88904677D02*
X131557000Y-88904677D01*
X127786000Y-88944677D02*
X131570000Y-88944677D01*
X127786000Y-88984677D02*
X131583000Y-88984677D01*
X127786000Y-89024677D02*
X131596000Y-89024677D01*
X127786000Y-89064677D02*
X131608000Y-89064677D01*
X127786000Y-89104677D02*
X131620000Y-89104677D01*
X127786000Y-89144677D02*
X131631000Y-89144677D01*
X127786000Y-89184677D02*
X131643000Y-89184677D01*
X127786000Y-89224677D02*
X131653000Y-89224677D01*
X127786000Y-89264677D02*
X131664000Y-89264677D01*
X127786000Y-89304677D02*
X131674000Y-89304677D01*
X127786000Y-89344677D02*
X131684000Y-89344677D01*
X127786000Y-89384677D02*
X131693000Y-89384677D01*
X127786000Y-89424677D02*
X131702000Y-89424677D01*
X127786000Y-89464677D02*
X131711000Y-89464677D01*
X127786000Y-89504677D02*
X131720000Y-89504677D01*
X127786000Y-89544677D02*
X131728000Y-89544677D01*
X127786000Y-89584677D02*
X131736000Y-89584677D01*
X127786000Y-89624677D02*
X131743000Y-89624677D01*
X127786000Y-89664677D02*
X131750000Y-89664677D01*
X127786000Y-89704677D02*
X131757000Y-89704677D01*
X127786000Y-89744677D02*
X131764000Y-89744677D01*
X127786000Y-89784677D02*
X131770000Y-89784677D01*
X127786000Y-89824677D02*
X131776000Y-89824677D01*
X127786000Y-89865677D02*
X131781000Y-89865677D01*
X127786000Y-89905677D02*
X131786000Y-89905677D01*
X127786000Y-89945677D02*
X131791000Y-89945677D01*
X127786000Y-89985677D02*
X131796000Y-89985677D01*
X127786000Y-90025677D02*
X131800000Y-90025677D01*
X127786000Y-90065677D02*
X131804000Y-90065677D01*
X127786000Y-90105677D02*
X131808000Y-90105677D01*
X127786000Y-90145677D02*
X131811000Y-90145677D01*
X127786000Y-90185677D02*
X131814000Y-90185677D01*
X127786000Y-90225677D02*
X131816000Y-90225677D01*
X127786000Y-90265677D02*
X131819000Y-90265677D01*
X127786000Y-90305677D02*
X131821000Y-90305677D01*
X129121000Y-95525323D02*
X130121000Y-95525323D01*
X129621000Y-95025323D02*
X129621000Y-96025323D01*
X131866000Y-90545677D02*
G75*
G02*
X121626000Y-90545677I-5120000J0D01*
G01*
X121626000Y-90545677D02*
G75*
G02*
X131866000Y-90545677I5120000J0D01*
G01*
%TO.C,QT1*%
X140680000Y-76820000D02*
X140680000Y-77470000D01*
X140680000Y-78120000D02*
X140680000Y-77470000D01*
X143800000Y-76820000D02*
X143800000Y-77470000D01*
X143800000Y-78120000D02*
X143800000Y-77470000D01*
X144080000Y-78872500D02*
X143750000Y-78632500D01*
X144080000Y-78392500D01*
X144080000Y-78872500D01*
G36*
X144080000Y-78872500D02*
G01*
X143750000Y-78632500D01*
X144080000Y-78392500D01*
X144080000Y-78872500D01*
G37*
%TO.C,CP5*%
X133653000Y-90196113D02*
X133653000Y-89696113D01*
X133903000Y-89946113D02*
X133403000Y-89946113D01*
X134088000Y-92740888D02*
X132559000Y-92740888D01*
X134088000Y-92780888D02*
X132563000Y-92780888D01*
X134088000Y-92820888D02*
X132567000Y-92820888D01*
X134088000Y-92860888D02*
X132572000Y-92860888D01*
X134088000Y-92900888D02*
X132578000Y-92900888D01*
X134088000Y-92940888D02*
X132585000Y-92940888D01*
X134088000Y-92980888D02*
X132592000Y-92980888D01*
X134088000Y-93020888D02*
X132600000Y-93020888D01*
X134088000Y-93060888D02*
X132608000Y-93060888D01*
X134088000Y-93100888D02*
X132617000Y-93100888D01*
X134088000Y-93140888D02*
X132627000Y-93140888D01*
X134088000Y-93180888D02*
X132637000Y-93180888D01*
X134088000Y-93221888D02*
X132648000Y-93221888D01*
X134088000Y-93261888D02*
X132660000Y-93261888D01*
X134088000Y-93301888D02*
X132673000Y-93301888D01*
X134088000Y-93341888D02*
X132686000Y-93341888D01*
X134088000Y-93381888D02*
X132700000Y-93381888D01*
X134088000Y-93421888D02*
X132714000Y-93421888D01*
X134088000Y-93461888D02*
X132730000Y-93461888D01*
X134088000Y-93501888D02*
X132746000Y-93501888D01*
X134088000Y-93541888D02*
X132763000Y-93541888D01*
X134088000Y-93581888D02*
X132780000Y-93581888D01*
X134088000Y-93621888D02*
X132799000Y-93621888D01*
X134088000Y-93661888D02*
X132818000Y-93661888D01*
X134088000Y-93701888D02*
X132838000Y-93701888D01*
X134088000Y-93741888D02*
X132860000Y-93741888D01*
X134088000Y-93781888D02*
X132881000Y-93781888D01*
X134088000Y-93821888D02*
X132904000Y-93821888D01*
X134088000Y-93861888D02*
X132928000Y-93861888D01*
X134088000Y-93901888D02*
X132953000Y-93901888D01*
X134088000Y-93941888D02*
X132979000Y-93941888D01*
X134088000Y-93981888D02*
X133006000Y-93981888D01*
X134088000Y-94021888D02*
X133033000Y-94021888D01*
X134088000Y-94061888D02*
X133063000Y-94061888D01*
X134088000Y-94101888D02*
X133093000Y-94101888D01*
X134088000Y-94141888D02*
X133124000Y-94141888D01*
X134088000Y-94181888D02*
X133157000Y-94181888D01*
X134088000Y-94221888D02*
X133191000Y-94221888D01*
X134088000Y-94261888D02*
X133227000Y-94261888D01*
X134088000Y-94301888D02*
X133264000Y-94301888D01*
X134088000Y-94341888D02*
X133302000Y-94341888D01*
X134088000Y-94381888D02*
X133343000Y-94381888D01*
X134088000Y-94421888D02*
X133385000Y-94421888D01*
X134088000Y-94461888D02*
X133429000Y-94461888D01*
X134088000Y-94501888D02*
X133475000Y-94501888D01*
X134088000Y-94541888D02*
X133523000Y-94541888D01*
X134088000Y-94581888D02*
X133574000Y-94581888D01*
X134088000Y-94621888D02*
X133628000Y-94621888D01*
X134088000Y-94661888D02*
X133685000Y-94661888D01*
X134088000Y-94701888D02*
X133745000Y-94701888D01*
X134088000Y-94741888D02*
X133809000Y-94741888D01*
X134088000Y-94781888D02*
X133877000Y-94781888D01*
X135412000Y-95101888D02*
X134844000Y-95101888D01*
X135646000Y-95061888D02*
X134610000Y-95061888D01*
X135805000Y-95021888D02*
X134451000Y-95021888D01*
X135933000Y-94981888D02*
X134323000Y-94981888D01*
X136043000Y-94941888D02*
X134213000Y-94941888D01*
X136139000Y-94901888D02*
X134117000Y-94901888D01*
X136226000Y-94861888D02*
X134030000Y-94861888D01*
X136306000Y-94821888D02*
X133950000Y-94821888D01*
X136379000Y-94781888D02*
X136168000Y-94781888D01*
X136447000Y-94741888D02*
X136168000Y-94741888D01*
X136511000Y-94701888D02*
X136168000Y-94701888D01*
X136571000Y-94661888D02*
X136168000Y-94661888D01*
X136628000Y-94621888D02*
X136168000Y-94621888D01*
X136682000Y-94581888D02*
X136168000Y-94581888D01*
X136733000Y-94541888D02*
X136168000Y-94541888D01*
X136781000Y-94501888D02*
X136168000Y-94501888D01*
X136827000Y-94461888D02*
X136168000Y-94461888D01*
X136871000Y-94421888D02*
X136168000Y-94421888D01*
X136913000Y-94381888D02*
X136168000Y-94381888D01*
X136954000Y-94341888D02*
X136168000Y-94341888D01*
X136992000Y-94301888D02*
X136168000Y-94301888D01*
X137029000Y-94261888D02*
X136168000Y-94261888D01*
X137065000Y-94221888D02*
X136168000Y-94221888D01*
X137099000Y-94181888D02*
X136168000Y-94181888D01*
X137132000Y-94141888D02*
X136168000Y-94141888D01*
X137163000Y-94101888D02*
X136168000Y-94101888D01*
X137193000Y-94061888D02*
X136168000Y-94061888D01*
X137223000Y-94021888D02*
X136168000Y-94021888D01*
X137250000Y-93981888D02*
X136168000Y-93981888D01*
X137277000Y-93941888D02*
X136168000Y-93941888D01*
X137303000Y-93901888D02*
X136168000Y-93901888D01*
X137328000Y-93861888D02*
X136168000Y-93861888D01*
X137352000Y-93821888D02*
X136168000Y-93821888D01*
X137375000Y-93781888D02*
X136168000Y-93781888D01*
X137396000Y-93741888D02*
X136168000Y-93741888D01*
X137418000Y-93701888D02*
X136168000Y-93701888D01*
X137438000Y-93661888D02*
X136168000Y-93661888D01*
X137457000Y-93621888D02*
X136168000Y-93621888D01*
X137476000Y-93581888D02*
X136168000Y-93581888D01*
X137493000Y-93541888D02*
X136168000Y-93541888D01*
X137510000Y-93501888D02*
X136168000Y-93501888D01*
X137526000Y-93461888D02*
X136168000Y-93461888D01*
X137542000Y-93421888D02*
X136168000Y-93421888D01*
X137556000Y-93381888D02*
X136168000Y-93381888D01*
X137570000Y-93341888D02*
X136168000Y-93341888D01*
X137583000Y-93301888D02*
X136168000Y-93301888D01*
X137596000Y-93261888D02*
X136168000Y-93261888D01*
X137608000Y-93221888D02*
X136168000Y-93221888D01*
X137619000Y-93180888D02*
X136168000Y-93180888D01*
X137629000Y-93140888D02*
X136168000Y-93140888D01*
X137639000Y-93100888D02*
X136168000Y-93100888D01*
X137648000Y-93060888D02*
X136168000Y-93060888D01*
X137656000Y-93020888D02*
X136168000Y-93020888D01*
X137664000Y-92980888D02*
X136168000Y-92980888D01*
X137671000Y-92940888D02*
X136168000Y-92940888D01*
X137678000Y-92900888D02*
X136168000Y-92900888D01*
X137684000Y-92860888D02*
X136168000Y-92860888D01*
X137689000Y-92820888D02*
X136168000Y-92820888D01*
X137693000Y-92780888D02*
X136168000Y-92780888D01*
X137697000Y-92740888D02*
X136168000Y-92740888D01*
X137701000Y-92700888D02*
X132555000Y-92700888D01*
X137704000Y-92660888D02*
X132552000Y-92660888D01*
X137706000Y-92620888D02*
X132550000Y-92620888D01*
X137707000Y-92580888D02*
X132549000Y-92580888D01*
X137708000Y-92500888D02*
X132548000Y-92500888D01*
X137708000Y-92540888D02*
X132548000Y-92540888D01*
X137748000Y-92500888D02*
G75*
G02*
X132508000Y-92500888I-2620000J0D01*
G01*
X132508000Y-92500888D02*
G75*
G02*
X137748000Y-92500888I2620000J0D01*
G01*
%TO.C,CP3*%
X138898000Y-92396000D02*
X144058000Y-92396000D01*
X138898000Y-92436000D02*
X144058000Y-92436000D01*
X138899000Y-92356000D02*
X144057000Y-92356000D01*
X138900000Y-92316000D02*
X144056000Y-92316000D01*
X138902000Y-92276000D02*
X144054000Y-92276000D01*
X138905000Y-92236000D02*
X144051000Y-92236000D01*
X138909000Y-92196000D02*
X140438000Y-92196000D01*
X138913000Y-92156000D02*
X140438000Y-92156000D01*
X138917000Y-92116000D02*
X140438000Y-92116000D01*
X138922000Y-92076000D02*
X140438000Y-92076000D01*
X138928000Y-92036000D02*
X140438000Y-92036000D01*
X138935000Y-91996000D02*
X140438000Y-91996000D01*
X138942000Y-91956000D02*
X140438000Y-91956000D01*
X138950000Y-91916000D02*
X140438000Y-91916000D01*
X138958000Y-91876000D02*
X140438000Y-91876000D01*
X138967000Y-91836000D02*
X140438000Y-91836000D01*
X138977000Y-91796000D02*
X140438000Y-91796000D01*
X138987000Y-91756000D02*
X140438000Y-91756000D01*
X138998000Y-91715000D02*
X140438000Y-91715000D01*
X139010000Y-91675000D02*
X140438000Y-91675000D01*
X139023000Y-91635000D02*
X140438000Y-91635000D01*
X139036000Y-91595000D02*
X140438000Y-91595000D01*
X139050000Y-91555000D02*
X140438000Y-91555000D01*
X139064000Y-91515000D02*
X140438000Y-91515000D01*
X139080000Y-91475000D02*
X140438000Y-91475000D01*
X139096000Y-91435000D02*
X140438000Y-91435000D01*
X139113000Y-91395000D02*
X140438000Y-91395000D01*
X139130000Y-91355000D02*
X140438000Y-91355000D01*
X139149000Y-91315000D02*
X140438000Y-91315000D01*
X139168000Y-91275000D02*
X140438000Y-91275000D01*
X139188000Y-91235000D02*
X140438000Y-91235000D01*
X139210000Y-91195000D02*
X140438000Y-91195000D01*
X139231000Y-91155000D02*
X140438000Y-91155000D01*
X139254000Y-91115000D02*
X140438000Y-91115000D01*
X139278000Y-91075000D02*
X140438000Y-91075000D01*
X139303000Y-91035000D02*
X140438000Y-91035000D01*
X139329000Y-90995000D02*
X140438000Y-90995000D01*
X139356000Y-90955000D02*
X140438000Y-90955000D01*
X139383000Y-90915000D02*
X140438000Y-90915000D01*
X139413000Y-90875000D02*
X140438000Y-90875000D01*
X139443000Y-90835000D02*
X140438000Y-90835000D01*
X139474000Y-90795000D02*
X140438000Y-90795000D01*
X139507000Y-90755000D02*
X140438000Y-90755000D01*
X139541000Y-90715000D02*
X140438000Y-90715000D01*
X139577000Y-90675000D02*
X140438000Y-90675000D01*
X139614000Y-90635000D02*
X140438000Y-90635000D01*
X139652000Y-90595000D02*
X140438000Y-90595000D01*
X139693000Y-90555000D02*
X140438000Y-90555000D01*
X139735000Y-90515000D02*
X140438000Y-90515000D01*
X139779000Y-90475000D02*
X140438000Y-90475000D01*
X139825000Y-90435000D02*
X140438000Y-90435000D01*
X139873000Y-90395000D02*
X140438000Y-90395000D01*
X139924000Y-90355000D02*
X140438000Y-90355000D01*
X139978000Y-90315000D02*
X140438000Y-90315000D01*
X140035000Y-90275000D02*
X140438000Y-90275000D01*
X140095000Y-90235000D02*
X140438000Y-90235000D01*
X140159000Y-90195000D02*
X140438000Y-90195000D01*
X140227000Y-90155000D02*
X140438000Y-90155000D01*
X140300000Y-90115000D02*
X142656000Y-90115000D01*
X140380000Y-90075000D02*
X142576000Y-90075000D01*
X140467000Y-90035000D02*
X142489000Y-90035000D01*
X140563000Y-89995000D02*
X142393000Y-89995000D01*
X140673000Y-89955000D02*
X142283000Y-89955000D01*
X140801000Y-89915000D02*
X142155000Y-89915000D01*
X140960000Y-89875000D02*
X141996000Y-89875000D01*
X141194000Y-89835000D02*
X141762000Y-89835000D01*
X142518000Y-90155000D02*
X142729000Y-90155000D01*
X142518000Y-90195000D02*
X142797000Y-90195000D01*
X142518000Y-90235000D02*
X142861000Y-90235000D01*
X142518000Y-90275000D02*
X142921000Y-90275000D01*
X142518000Y-90315000D02*
X142978000Y-90315000D01*
X142518000Y-90355000D02*
X143032000Y-90355000D01*
X142518000Y-90395000D02*
X143083000Y-90395000D01*
X142518000Y-90435000D02*
X143131000Y-90435000D01*
X142518000Y-90475000D02*
X143177000Y-90475000D01*
X142518000Y-90515000D02*
X143221000Y-90515000D01*
X142518000Y-90555000D02*
X143263000Y-90555000D01*
X142518000Y-90595000D02*
X143304000Y-90595000D01*
X142518000Y-90635000D02*
X143342000Y-90635000D01*
X142518000Y-90675000D02*
X143379000Y-90675000D01*
X142518000Y-90715000D02*
X143415000Y-90715000D01*
X142518000Y-90755000D02*
X143449000Y-90755000D01*
X142518000Y-90795000D02*
X143482000Y-90795000D01*
X142518000Y-90835000D02*
X143513000Y-90835000D01*
X142518000Y-90875000D02*
X143543000Y-90875000D01*
X142518000Y-90915000D02*
X143573000Y-90915000D01*
X142518000Y-90955000D02*
X143600000Y-90955000D01*
X142518000Y-90995000D02*
X143627000Y-90995000D01*
X142518000Y-91035000D02*
X143653000Y-91035000D01*
X142518000Y-91075000D02*
X143678000Y-91075000D01*
X142518000Y-91115000D02*
X143702000Y-91115000D01*
X142518000Y-91155000D02*
X143725000Y-91155000D01*
X142518000Y-91195000D02*
X143746000Y-91195000D01*
X142518000Y-91235000D02*
X143768000Y-91235000D01*
X142518000Y-91275000D02*
X143788000Y-91275000D01*
X142518000Y-91315000D02*
X143807000Y-91315000D01*
X142518000Y-91355000D02*
X143826000Y-91355000D01*
X142518000Y-91395000D02*
X143843000Y-91395000D01*
X142518000Y-91435000D02*
X143860000Y-91435000D01*
X142518000Y-91475000D02*
X143876000Y-91475000D01*
X142518000Y-91515000D02*
X143892000Y-91515000D01*
X142518000Y-91555000D02*
X143906000Y-91555000D01*
X142518000Y-91595000D02*
X143920000Y-91595000D01*
X142518000Y-91635000D02*
X143933000Y-91635000D01*
X142518000Y-91675000D02*
X143946000Y-91675000D01*
X142518000Y-91715000D02*
X143958000Y-91715000D01*
X142518000Y-91756000D02*
X143969000Y-91756000D01*
X142518000Y-91796000D02*
X143979000Y-91796000D01*
X142518000Y-91836000D02*
X143989000Y-91836000D01*
X142518000Y-91876000D02*
X143998000Y-91876000D01*
X142518000Y-91916000D02*
X144006000Y-91916000D01*
X142518000Y-91956000D02*
X144014000Y-91956000D01*
X142518000Y-91996000D02*
X144021000Y-91996000D01*
X142518000Y-92036000D02*
X144028000Y-92036000D01*
X142518000Y-92076000D02*
X144034000Y-92076000D01*
X142518000Y-92116000D02*
X144039000Y-92116000D01*
X142518000Y-92156000D02*
X144043000Y-92156000D01*
X142518000Y-92196000D02*
X144047000Y-92196000D01*
X142703000Y-94990775D02*
X143203000Y-94990775D01*
X142953000Y-94740775D02*
X142953000Y-95240775D01*
X144098000Y-92436000D02*
G75*
G02*
X138858000Y-92436000I-2620000J0D01*
G01*
X138858000Y-92436000D02*
G75*
G02*
X144098000Y-92436000I2620000J0D01*
G01*
%TO.C,R21*%
X160005500Y-89297742D02*
X160005500Y-89772258D01*
X161050500Y-89297742D02*
X161050500Y-89772258D01*
%TO.C,R33*%
X168406542Y-79589100D02*
X168881058Y-79589100D01*
X168406542Y-80634100D02*
X168881058Y-80634100D01*
%TO.C,CP4*%
X117816000Y-85513113D02*
X122976000Y-85513113D01*
X117816000Y-85553113D02*
X122976000Y-85553113D01*
X117817000Y-85473113D02*
X122975000Y-85473113D01*
X117818000Y-85433113D02*
X122974000Y-85433113D01*
X117820000Y-85393113D02*
X122972000Y-85393113D01*
X117823000Y-85353113D02*
X122969000Y-85353113D01*
X117827000Y-85313113D02*
X119356000Y-85313113D01*
X117831000Y-85273113D02*
X119356000Y-85273113D01*
X117835000Y-85233113D02*
X119356000Y-85233113D01*
X117840000Y-85193113D02*
X119356000Y-85193113D01*
X117846000Y-85153113D02*
X119356000Y-85153113D01*
X117853000Y-85113113D02*
X119356000Y-85113113D01*
X117860000Y-85073113D02*
X119356000Y-85073113D01*
X117868000Y-85033113D02*
X119356000Y-85033113D01*
X117876000Y-84993113D02*
X119356000Y-84993113D01*
X117885000Y-84953113D02*
X119356000Y-84953113D01*
X117895000Y-84913113D02*
X119356000Y-84913113D01*
X117905000Y-84873113D02*
X119356000Y-84873113D01*
X117916000Y-84832113D02*
X119356000Y-84832113D01*
X117928000Y-84792113D02*
X119356000Y-84792113D01*
X117941000Y-84752113D02*
X119356000Y-84752113D01*
X117954000Y-84712113D02*
X119356000Y-84712113D01*
X117968000Y-84672113D02*
X119356000Y-84672113D01*
X117982000Y-84632113D02*
X119356000Y-84632113D01*
X117998000Y-84592113D02*
X119356000Y-84592113D01*
X118014000Y-84552113D02*
X119356000Y-84552113D01*
X118031000Y-84512113D02*
X119356000Y-84512113D01*
X118048000Y-84472113D02*
X119356000Y-84472113D01*
X118067000Y-84432113D02*
X119356000Y-84432113D01*
X118086000Y-84392113D02*
X119356000Y-84392113D01*
X118106000Y-84352113D02*
X119356000Y-84352113D01*
X118128000Y-84312113D02*
X119356000Y-84312113D01*
X118149000Y-84272113D02*
X119356000Y-84272113D01*
X118172000Y-84232113D02*
X119356000Y-84232113D01*
X118196000Y-84192113D02*
X119356000Y-84192113D01*
X118221000Y-84152113D02*
X119356000Y-84152113D01*
X118247000Y-84112113D02*
X119356000Y-84112113D01*
X118274000Y-84072113D02*
X119356000Y-84072113D01*
X118301000Y-84032113D02*
X119356000Y-84032113D01*
X118331000Y-83992113D02*
X119356000Y-83992113D01*
X118361000Y-83952113D02*
X119356000Y-83952113D01*
X118392000Y-83912113D02*
X119356000Y-83912113D01*
X118425000Y-83872113D02*
X119356000Y-83872113D01*
X118459000Y-83832113D02*
X119356000Y-83832113D01*
X118495000Y-83792113D02*
X119356000Y-83792113D01*
X118532000Y-83752113D02*
X119356000Y-83752113D01*
X118570000Y-83712113D02*
X119356000Y-83712113D01*
X118611000Y-83672113D02*
X119356000Y-83672113D01*
X118653000Y-83632113D02*
X119356000Y-83632113D01*
X118697000Y-83592113D02*
X119356000Y-83592113D01*
X118743000Y-83552113D02*
X119356000Y-83552113D01*
X118791000Y-83512113D02*
X119356000Y-83512113D01*
X118842000Y-83472113D02*
X119356000Y-83472113D01*
X118896000Y-83432113D02*
X119356000Y-83432113D01*
X118953000Y-83392113D02*
X119356000Y-83392113D01*
X119013000Y-83352113D02*
X119356000Y-83352113D01*
X119077000Y-83312113D02*
X119356000Y-83312113D01*
X119145000Y-83272113D02*
X119356000Y-83272113D01*
X119218000Y-83232113D02*
X121574000Y-83232113D01*
X119298000Y-83192113D02*
X121494000Y-83192113D01*
X119385000Y-83152113D02*
X121407000Y-83152113D01*
X119481000Y-83112113D02*
X121311000Y-83112113D01*
X119591000Y-83072113D02*
X121201000Y-83072113D01*
X119719000Y-83032113D02*
X121073000Y-83032113D01*
X119878000Y-82992113D02*
X120914000Y-82992113D01*
X120112000Y-82952113D02*
X120680000Y-82952113D01*
X121436000Y-83272113D02*
X121647000Y-83272113D01*
X121436000Y-83312113D02*
X121715000Y-83312113D01*
X121436000Y-83352113D02*
X121779000Y-83352113D01*
X121436000Y-83392113D02*
X121839000Y-83392113D01*
X121436000Y-83432113D02*
X121896000Y-83432113D01*
X121436000Y-83472113D02*
X121950000Y-83472113D01*
X121436000Y-83512113D02*
X122001000Y-83512113D01*
X121436000Y-83552113D02*
X122049000Y-83552113D01*
X121436000Y-83592113D02*
X122095000Y-83592113D01*
X121436000Y-83632113D02*
X122139000Y-83632113D01*
X121436000Y-83672113D02*
X122181000Y-83672113D01*
X121436000Y-83712113D02*
X122222000Y-83712113D01*
X121436000Y-83752113D02*
X122260000Y-83752113D01*
X121436000Y-83792113D02*
X122297000Y-83792113D01*
X121436000Y-83832113D02*
X122333000Y-83832113D01*
X121436000Y-83872113D02*
X122367000Y-83872113D01*
X121436000Y-83912113D02*
X122400000Y-83912113D01*
X121436000Y-83952113D02*
X122431000Y-83952113D01*
X121436000Y-83992113D02*
X122461000Y-83992113D01*
X121436000Y-84032113D02*
X122491000Y-84032113D01*
X121436000Y-84072113D02*
X122518000Y-84072113D01*
X121436000Y-84112113D02*
X122545000Y-84112113D01*
X121436000Y-84152113D02*
X122571000Y-84152113D01*
X121436000Y-84192113D02*
X122596000Y-84192113D01*
X121436000Y-84232113D02*
X122620000Y-84232113D01*
X121436000Y-84272113D02*
X122643000Y-84272113D01*
X121436000Y-84312113D02*
X122664000Y-84312113D01*
X121436000Y-84352113D02*
X122686000Y-84352113D01*
X121436000Y-84392113D02*
X122706000Y-84392113D01*
X121436000Y-84432113D02*
X122725000Y-84432113D01*
X121436000Y-84472113D02*
X122744000Y-84472113D01*
X121436000Y-84512113D02*
X122761000Y-84512113D01*
X121436000Y-84552113D02*
X122778000Y-84552113D01*
X121436000Y-84592113D02*
X122794000Y-84592113D01*
X121436000Y-84632113D02*
X122810000Y-84632113D01*
X121436000Y-84672113D02*
X122824000Y-84672113D01*
X121436000Y-84712113D02*
X122838000Y-84712113D01*
X121436000Y-84752113D02*
X122851000Y-84752113D01*
X121436000Y-84792113D02*
X122864000Y-84792113D01*
X121436000Y-84832113D02*
X122876000Y-84832113D01*
X121436000Y-84873113D02*
X122887000Y-84873113D01*
X121436000Y-84913113D02*
X122897000Y-84913113D01*
X121436000Y-84953113D02*
X122907000Y-84953113D01*
X121436000Y-84993113D02*
X122916000Y-84993113D01*
X121436000Y-85033113D02*
X122924000Y-85033113D01*
X121436000Y-85073113D02*
X122932000Y-85073113D01*
X121436000Y-85113113D02*
X122939000Y-85113113D01*
X121436000Y-85153113D02*
X122946000Y-85153113D01*
X121436000Y-85193113D02*
X122952000Y-85193113D01*
X121436000Y-85233113D02*
X122957000Y-85233113D01*
X121436000Y-85273113D02*
X122961000Y-85273113D01*
X121436000Y-85313113D02*
X122965000Y-85313113D01*
X121621000Y-88107888D02*
X122121000Y-88107888D01*
X121871000Y-87857888D02*
X121871000Y-88357888D01*
X123016000Y-85553113D02*
G75*
G02*
X117776000Y-85553113I-2620000J0D01*
G01*
X117776000Y-85553113D02*
G75*
G02*
X123016000Y-85553113I2620000J0D01*
G01*
%TO.C,R30*%
X145703058Y-77658700D02*
X145228542Y-77658700D01*
X145703058Y-78703700D02*
X145228542Y-78703700D01*
%TO.C,SCK*%
X181036000Y-76708000D02*
G75*
G02*
X179136000Y-76708000I-950000J0D01*
G01*
X179136000Y-76708000D02*
G75*
G02*
X181036000Y-76708000I950000J0D01*
G01*
%TO.C,C4*%
X129665000Y-79729420D02*
X129665000Y-80010580D01*
X130685000Y-79729420D02*
X130685000Y-80010580D01*
%TO.C,R24*%
X173213500Y-74438742D02*
X173213500Y-74913258D01*
X174258500Y-74438742D02*
X174258500Y-74913258D01*
%TO.C,R31*%
X157463258Y-79665300D02*
X156988742Y-79665300D01*
X157463258Y-80710300D02*
X156988742Y-80710300D01*
%TO.C,R28*%
X165593500Y-76369142D02*
X165593500Y-76843658D01*
X166638500Y-76369142D02*
X166638500Y-76843658D01*
%TO.C,MISO*%
X177988000Y-76708000D02*
G75*
G02*
X176088000Y-76708000I-950000J0D01*
G01*
X176088000Y-76708000D02*
G75*
G02*
X177988000Y-76708000I950000J0D01*
G01*
%TO.C,QT3*%
X167096000Y-76741500D02*
X167096000Y-77391500D01*
X167096000Y-78041500D02*
X167096000Y-77391500D01*
X170216000Y-76741500D02*
X170216000Y-77391500D01*
X170216000Y-78041500D02*
X170216000Y-77391500D01*
X170496000Y-78794000D02*
X170166000Y-78554000D01*
X170496000Y-78314000D01*
X170496000Y-78794000D01*
G36*
X170496000Y-78794000D02*
G01*
X170166000Y-78554000D01*
X170496000Y-78314000D01*
X170496000Y-78794000D01*
G37*
%TO.C,RV1*%
X128770000Y-98404000D02*
X128870000Y-98404000D01*
X128770000Y-99094000D02*
X128770000Y-98404000D01*
X128770000Y-104114000D02*
X128770000Y-100134000D01*
X128870000Y-98204000D02*
X130290000Y-98204000D01*
X128870000Y-98404000D02*
X128870000Y-98204000D01*
X130290000Y-98204000D02*
X130290000Y-98404000D01*
X130290000Y-98404000D02*
X133870000Y-98404000D01*
X131570000Y-105424000D02*
X130080000Y-105424000D01*
X133870000Y-98204000D02*
X133870000Y-98404000D01*
X133870000Y-98204000D02*
X135290000Y-98204000D01*
X134080000Y-105424000D02*
X132590000Y-105424000D01*
X135290000Y-98404000D02*
X135290000Y-98204000D01*
X135390000Y-98404000D02*
X135290000Y-98404000D01*
X135390000Y-98654000D02*
X135390000Y-98404000D01*
X135390000Y-100574000D02*
X135390000Y-104114000D01*
X130080000Y-105424000D02*
G75*
G02*
X128770000Y-104114000I0J1310000D01*
G01*
X135390000Y-104114000D02*
G75*
G02*
X134080000Y-105424000I-1310000J0D01*
G01*
%TO.C,R27*%
X163053500Y-89297742D02*
X163053500Y-89772258D01*
X164098500Y-89297742D02*
X164098500Y-89772258D01*
%TO.C,Test*%
X121892000Y-94518000D02*
G75*
G02*
X118392000Y-94518000I-1750000J0D01*
G01*
X118392000Y-94518000D02*
G75*
G02*
X121892000Y-94518000I1750000J0D01*
G01*
X121892000Y-99568000D02*
G75*
G02*
X118392000Y-99568000I-1750000J0D01*
G01*
X118392000Y-99568000D02*
G75*
G02*
X121892000Y-99568000I1750000J0D01*
G01*
%TO.C,R25*%
X170673500Y-89297742D02*
X170673500Y-89772258D01*
X171718500Y-89297742D02*
X171718500Y-89772258D01*
%TO.C,C3*%
X131316000Y-79729420D02*
X131316000Y-80010580D01*
X132336000Y-79729420D02*
X132336000Y-80010580D01*
%TO.C,R7*%
X137905258Y-101585500D02*
X137430742Y-101585500D01*
X137905258Y-102630500D02*
X137430742Y-102630500D01*
%TO.C,GND*%
X133830000Y-71120000D02*
G75*
G02*
X130330000Y-71120000I-1750000J0D01*
G01*
X130330000Y-71120000D02*
G75*
G02*
X133830000Y-71120000I1750000J0D01*
G01*
%TO.C,Vin*%
X128496000Y-71120000D02*
G75*
G02*
X124996000Y-71120000I-1750000J0D01*
G01*
X124996000Y-71120000D02*
G75*
G02*
X128496000Y-71120000I1750000J0D01*
G01*
%TO.C,GND*%
X177988000Y-79756000D02*
G75*
G02*
X176088000Y-79756000I-950000J0D01*
G01*
X176088000Y-79756000D02*
G75*
G02*
X177988000Y-79756000I950000J0D01*
G01*
%TO.C,R26*%
X165593500Y-89233742D02*
X165593500Y-89708258D01*
X166638500Y-89233742D02*
X166638500Y-89708258D01*
%TO.C,CP1*%
X118921000Y-77750113D02*
X118921000Y-77250113D01*
X119171000Y-77500113D02*
X118671000Y-77500113D01*
X119356000Y-80294888D02*
X117827000Y-80294888D01*
X119356000Y-80334888D02*
X117831000Y-80334888D01*
X119356000Y-80374888D02*
X117835000Y-80374888D01*
X119356000Y-80414888D02*
X117840000Y-80414888D01*
X119356000Y-80454888D02*
X117846000Y-80454888D01*
X119356000Y-80494888D02*
X117853000Y-80494888D01*
X119356000Y-80534888D02*
X117860000Y-80534888D01*
X119356000Y-80574888D02*
X117868000Y-80574888D01*
X119356000Y-80614888D02*
X117876000Y-80614888D01*
X119356000Y-80654888D02*
X117885000Y-80654888D01*
X119356000Y-80694888D02*
X117895000Y-80694888D01*
X119356000Y-80734888D02*
X117905000Y-80734888D01*
X119356000Y-80775888D02*
X117916000Y-80775888D01*
X119356000Y-80815888D02*
X117928000Y-80815888D01*
X119356000Y-80855888D02*
X117941000Y-80855888D01*
X119356000Y-80895888D02*
X117954000Y-80895888D01*
X119356000Y-80935888D02*
X117968000Y-80935888D01*
X119356000Y-80975888D02*
X117982000Y-80975888D01*
X119356000Y-81015888D02*
X117998000Y-81015888D01*
X119356000Y-81055888D02*
X118014000Y-81055888D01*
X119356000Y-81095888D02*
X118031000Y-81095888D01*
X119356000Y-81135888D02*
X118048000Y-81135888D01*
X119356000Y-81175888D02*
X118067000Y-81175888D01*
X119356000Y-81215888D02*
X118086000Y-81215888D01*
X119356000Y-81255888D02*
X118106000Y-81255888D01*
X119356000Y-81295888D02*
X118128000Y-81295888D01*
X119356000Y-81335888D02*
X118149000Y-81335888D01*
X119356000Y-81375888D02*
X118172000Y-81375888D01*
X119356000Y-81415888D02*
X118196000Y-81415888D01*
X119356000Y-81455888D02*
X118221000Y-81455888D01*
X119356000Y-81495888D02*
X118247000Y-81495888D01*
X119356000Y-81535888D02*
X118274000Y-81535888D01*
X119356000Y-81575888D02*
X118301000Y-81575888D01*
X119356000Y-81615888D02*
X118331000Y-81615888D01*
X119356000Y-81655888D02*
X118361000Y-81655888D01*
X119356000Y-81695888D02*
X118392000Y-81695888D01*
X119356000Y-81735888D02*
X118425000Y-81735888D01*
X119356000Y-81775888D02*
X118459000Y-81775888D01*
X119356000Y-81815888D02*
X118495000Y-81815888D01*
X119356000Y-81855888D02*
X118532000Y-81855888D01*
X119356000Y-81895888D02*
X118570000Y-81895888D01*
X119356000Y-81935888D02*
X118611000Y-81935888D01*
X119356000Y-81975888D02*
X118653000Y-81975888D01*
X119356000Y-82015888D02*
X118697000Y-82015888D01*
X119356000Y-82055888D02*
X118743000Y-82055888D01*
X119356000Y-82095888D02*
X118791000Y-82095888D01*
X119356000Y-82135888D02*
X118842000Y-82135888D01*
X119356000Y-82175888D02*
X118896000Y-82175888D01*
X119356000Y-82215888D02*
X118953000Y-82215888D01*
X119356000Y-82255888D02*
X119013000Y-82255888D01*
X119356000Y-82295888D02*
X119077000Y-82295888D01*
X119356000Y-82335888D02*
X119145000Y-82335888D01*
X120680000Y-82655888D02*
X120112000Y-82655888D01*
X120914000Y-82615888D02*
X119878000Y-82615888D01*
X121073000Y-82575888D02*
X119719000Y-82575888D01*
X121201000Y-82535888D02*
X119591000Y-82535888D01*
X121311000Y-82495888D02*
X119481000Y-82495888D01*
X121407000Y-82455888D02*
X119385000Y-82455888D01*
X121494000Y-82415888D02*
X119298000Y-82415888D01*
X121574000Y-82375888D02*
X119218000Y-82375888D01*
X121647000Y-82335888D02*
X121436000Y-82335888D01*
X121715000Y-82295888D02*
X121436000Y-82295888D01*
X121779000Y-82255888D02*
X121436000Y-82255888D01*
X121839000Y-82215888D02*
X121436000Y-82215888D01*
X121896000Y-82175888D02*
X121436000Y-82175888D01*
X121950000Y-82135888D02*
X121436000Y-82135888D01*
X122001000Y-82095888D02*
X121436000Y-82095888D01*
X122049000Y-82055888D02*
X121436000Y-82055888D01*
X122095000Y-82015888D02*
X121436000Y-82015888D01*
X122139000Y-81975888D02*
X121436000Y-81975888D01*
X122181000Y-81935888D02*
X121436000Y-81935888D01*
X122222000Y-81895888D02*
X121436000Y-81895888D01*
X122260000Y-81855888D02*
X121436000Y-81855888D01*
X122297000Y-81815888D02*
X121436000Y-81815888D01*
X122333000Y-81775888D02*
X121436000Y-81775888D01*
X122367000Y-81735888D02*
X121436000Y-81735888D01*
X122400000Y-81695888D02*
X121436000Y-81695888D01*
X122431000Y-81655888D02*
X121436000Y-81655888D01*
X122461000Y-81615888D02*
X121436000Y-81615888D01*
X122491000Y-81575888D02*
X121436000Y-81575888D01*
X122518000Y-81535888D02*
X121436000Y-81535888D01*
X122545000Y-81495888D02*
X121436000Y-81495888D01*
X122571000Y-81455888D02*
X121436000Y-81455888D01*
X122596000Y-81415888D02*
X121436000Y-81415888D01*
X122620000Y-81375888D02*
X121436000Y-81375888D01*
X122643000Y-81335888D02*
X121436000Y-81335888D01*
X122664000Y-81295888D02*
X121436000Y-81295888D01*
X122686000Y-81255888D02*
X121436000Y-81255888D01*
X122706000Y-81215888D02*
X121436000Y-81215888D01*
X122725000Y-81175888D02*
X121436000Y-81175888D01*
X122744000Y-81135888D02*
X121436000Y-81135888D01*
X122761000Y-81095888D02*
X121436000Y-81095888D01*
X122778000Y-81055888D02*
X121436000Y-81055888D01*
X122794000Y-81015888D02*
X121436000Y-81015888D01*
X122810000Y-80975888D02*
X121436000Y-80975888D01*
X122824000Y-80935888D02*
X121436000Y-80935888D01*
X122838000Y-80895888D02*
X121436000Y-80895888D01*
X122851000Y-80855888D02*
X121436000Y-80855888D01*
X122864000Y-80815888D02*
X121436000Y-80815888D01*
X122876000Y-80775888D02*
X121436000Y-80775888D01*
X122887000Y-80734888D02*
X121436000Y-80734888D01*
X122897000Y-80694888D02*
X121436000Y-80694888D01*
X122907000Y-80654888D02*
X121436000Y-80654888D01*
X122916000Y-80614888D02*
X121436000Y-80614888D01*
X122924000Y-80574888D02*
X121436000Y-80574888D01*
X122932000Y-80534888D02*
X121436000Y-80534888D01*
X122939000Y-80494888D02*
X121436000Y-80494888D01*
X122946000Y-80454888D02*
X121436000Y-80454888D01*
X122952000Y-80414888D02*
X121436000Y-80414888D01*
X122957000Y-80374888D02*
X121436000Y-80374888D01*
X122961000Y-80334888D02*
X121436000Y-80334888D01*
X122965000Y-80294888D02*
X121436000Y-80294888D01*
X122969000Y-80254888D02*
X117823000Y-80254888D01*
X122972000Y-80214888D02*
X117820000Y-80214888D01*
X122974000Y-80174888D02*
X117818000Y-80174888D01*
X122975000Y-80134888D02*
X117817000Y-80134888D01*
X122976000Y-80054888D02*
X117816000Y-80054888D01*
X122976000Y-80094888D02*
X117816000Y-80094888D01*
X123016000Y-80054888D02*
G75*
G02*
X117776000Y-80054888I-2620000J0D01*
G01*
X117776000Y-80054888D02*
G75*
G02*
X123016000Y-80054888I2620000J0D01*
G01*
%TO.C,R29*%
X163053500Y-75962742D02*
X163053500Y-76437258D01*
X164098500Y-75962742D02*
X164098500Y-76437258D01*
%TD*%
M02*
