%TF.GenerationSoftware,KiCad,Pcbnew,8.0.5*%
%TF.CreationDate,2025-08-20T10:32:40+03:00*%
%TF.ProjectId,esr_pr4_n,6573725f-7072-4345-9f6e-2e6b69636164,rev?*%
%TF.SameCoordinates,Original*%
%TF.FileFunction,Soldermask,Bot*%
%TF.FilePolarity,Negative*%
%FSLAX46Y46*%
G04 Gerber Fmt 4.6, Leading zero omitted, Abs format (unit mm)*
G04 Created by KiCad (PCBNEW 8.0.5) date 2025-08-20 10:32:40*
%MOMM*%
%LPD*%
G01*
G04 APERTURE LIST*
G04 Aperture macros list*
%AMRoundRect*
0 Rectangle with rounded corners*
0 $1 Rounding radius*
0 $2 $3 $4 $5 $6 $7 $8 $9 X,Y pos of 4 corners*
0 Add a 4 corners polygon primitive as box body*
4,1,4,$2,$3,$4,$5,$6,$7,$8,$9,$2,$3,0*
0 Add four circle primitives for the rounded corners*
1,1,$1+$1,$2,$3*
1,1,$1+$1,$4,$5*
1,1,$1+$1,$6,$7*
1,1,$1+$1,$8,$9*
0 Add four rect primitives between the rounded corners*
20,1,$1+$1,$2,$3,$4,$5,0*
20,1,$1+$1,$4,$5,$6,$7,0*
20,1,$1+$1,$6,$7,$8,$9,0*
20,1,$1+$1,$8,$9,$2,$3,0*%
G04 Aperture macros list end*
%ADD10R,2.600000X2.600000*%
%ADD11O,2.600000X2.600000*%
%ADD12R,1.524000X2.524000*%
%ADD13O,1.524000X2.524000*%
%ADD14R,2.200000X2.200000*%
%ADD15O,2.200000X2.200000*%
%ADD16C,2.000000*%
%ADD17C,3.600000*%
%ADD18C,5.600000*%
%ADD19C,1.500000*%
%ADD20RoundRect,0.200000X0.275000X-0.200000X0.275000X0.200000X-0.275000X0.200000X-0.275000X-0.200000X0*%
%ADD21RoundRect,0.150000X0.150000X-0.587500X0.150000X0.587500X-0.150000X0.587500X-0.150000X-0.587500X0*%
%ADD22R,1.600000X1.600000*%
%ADD23C,1.600000*%
%ADD24RoundRect,0.200000X0.200000X0.275000X-0.200000X0.275000X-0.200000X-0.275000X0.200000X-0.275000X0*%
%ADD25RoundRect,0.200000X-0.200000X-0.275000X0.200000X-0.275000X0.200000X0.275000X-0.200000X0.275000X0*%
%ADD26RoundRect,0.225000X0.250000X-0.225000X0.250000X0.225000X-0.250000X0.225000X-0.250000X-0.225000X0*%
%ADD27R,1.560000X1.560000*%
%ADD28C,1.560000*%
%ADD29C,3.000000*%
G04 APERTURE END LIST*
D10*
%TO.C,D2*%
X125984000Y-104902000D03*
D11*
X138684000Y-104902000D03*
%TD*%
D12*
%TO.C,AFF2*%
X150368000Y-86360000D03*
D13*
X152908000Y-86360000D03*
X155448000Y-86360000D03*
X157988000Y-86360000D03*
X160528000Y-86360000D03*
X160528000Y-71120000D03*
X157988000Y-71120000D03*
X155448000Y-71120000D03*
X152908000Y-71120000D03*
X150368000Y-71120000D03*
%TD*%
D12*
%TO.C,AFF1*%
X137160000Y-86360000D03*
D13*
X139700000Y-86360000D03*
X142240000Y-86360000D03*
X144780000Y-86360000D03*
X147320000Y-86360000D03*
X147320000Y-71120000D03*
X144780000Y-71120000D03*
X142240000Y-71120000D03*
X139700000Y-71120000D03*
X137160000Y-71120000D03*
%TD*%
D14*
%TO.C,D7*%
X134112000Y-75946000D03*
D15*
X123952000Y-75946000D03*
%TD*%
D10*
%TO.C,D1*%
X138684000Y-99060000D03*
D11*
X125984000Y-99060000D03*
%TD*%
D16*
%TO.C,SW1*%
X174752000Y-98298000D03*
X174752000Y-91798000D03*
X179252000Y-98298000D03*
X179252000Y-91798000D03*
%TD*%
D17*
%TO.C,H3*%
X178562000Y-105156000D03*
D18*
X178562000Y-105156000D03*
%TD*%
D17*
%TO.C,H2*%
X120650000Y-105156000D03*
D18*
X120650000Y-105156000D03*
%TD*%
D17*
%TO.C,H1*%
X120650000Y-71882000D03*
D18*
X120650000Y-71882000D03*
%TD*%
D12*
%TO.C,AFF3*%
X163576000Y-86360000D03*
D13*
X166116000Y-86360000D03*
X168656000Y-86360000D03*
X171196000Y-86360000D03*
X173736000Y-86360000D03*
X173736000Y-71120000D03*
X171196000Y-71120000D03*
X168656000Y-71120000D03*
X166116000Y-71120000D03*
X163576000Y-71120000D03*
%TD*%
D17*
%TO.C,H4*%
X178562000Y-71882000D03*
D18*
X178562000Y-71882000D03*
%TD*%
D19*
%TO.C,+5V*%
X177038000Y-82804000D03*
%TD*%
D20*
%TO.C,R23*%
X171196000Y-77978000D03*
X171196000Y-76328000D03*
%TD*%
D19*
%TO.C,RST*%
X180086000Y-82804000D03*
%TD*%
%TO.C,MOSI*%
X180086000Y-79756000D03*
%TD*%
D21*
%TO.C,QT2*%
X156398000Y-78329000D03*
X154498000Y-78329000D03*
X155448000Y-76454000D03*
%TD*%
D22*
%TO.C,CP2*%
X128346000Y-92466614D03*
X126746000Y-91795677D03*
D23*
X126746000Y-89295677D03*
X125146000Y-88624740D03*
%TD*%
D21*
%TO.C,QT1*%
X143190000Y-78407500D03*
X141290000Y-78407500D03*
X142240000Y-76532500D03*
%TD*%
D22*
%TO.C,CP5*%
X135128000Y-91250888D03*
D23*
X135128000Y-93750888D03*
%TD*%
D22*
%TO.C,CP3*%
X141478000Y-93686000D03*
D23*
X141478000Y-91186000D03*
%TD*%
D20*
%TO.C,R21*%
X160528000Y-90360000D03*
X160528000Y-88710000D03*
%TD*%
D24*
%TO.C,R33*%
X169468800Y-80111600D03*
X167818800Y-80111600D03*
%TD*%
D22*
%TO.C,CP4*%
X120396000Y-86803113D03*
D23*
X120396000Y-84303113D03*
%TD*%
D25*
%TO.C,R30*%
X144640800Y-78181200D03*
X146290800Y-78181200D03*
%TD*%
D19*
%TO.C,SCK*%
X180086000Y-76708000D03*
%TD*%
D26*
%TO.C,C4*%
X130175000Y-80645000D03*
X130175000Y-79095000D03*
%TD*%
D20*
%TO.C,R24*%
X173736000Y-75501000D03*
X173736000Y-73851000D03*
%TD*%
D25*
%TO.C,R31*%
X156401000Y-80187800D03*
X158051000Y-80187800D03*
%TD*%
D20*
%TO.C,R28*%
X166116000Y-77431400D03*
X166116000Y-75781400D03*
%TD*%
D19*
%TO.C,MISO*%
X177038000Y-76708000D03*
%TD*%
D21*
%TO.C,QT3*%
X169606000Y-78329000D03*
X167706000Y-78329000D03*
X168656000Y-76454000D03*
%TD*%
D27*
%TO.C,RV1*%
X134580000Y-99614000D03*
D28*
X132080000Y-104614000D03*
X129580000Y-99614000D03*
%TD*%
D20*
%TO.C,R27*%
X163576000Y-90360000D03*
X163576000Y-88710000D03*
%TD*%
D29*
%TO.C,Test*%
X120142000Y-94518000D03*
%TD*%
%TO.C,Test*%
X120142000Y-99568000D03*
%TD*%
D20*
%TO.C,R25*%
X171196000Y-90360000D03*
X171196000Y-88710000D03*
%TD*%
D26*
%TO.C,C3*%
X131826000Y-80645000D03*
X131826000Y-79095000D03*
%TD*%
D25*
%TO.C,R7*%
X136843000Y-102108000D03*
X138493000Y-102108000D03*
%TD*%
D29*
%TO.C,GND*%
X132080000Y-71120000D03*
%TD*%
%TO.C,Vin*%
X126746000Y-71120000D03*
%TD*%
D19*
%TO.C,GND*%
X177038000Y-79756000D03*
%TD*%
D20*
%TO.C,R26*%
X166116000Y-90296000D03*
X166116000Y-88646000D03*
%TD*%
D22*
%TO.C,CP1*%
X120396000Y-78804888D03*
D23*
X120396000Y-81304888D03*
%TD*%
D20*
%TO.C,R29*%
X163576000Y-77025000D03*
X163576000Y-75375000D03*
%TD*%
M02*
