%TF.GenerationSoftware,KiCad,Pcbnew,8.0.5*%
%TF.CreationDate,2025-08-20T10:32:38+03:00*%
%TF.ProjectId,esr_pr4_n,6573725f-7072-4345-9f6e-2e6b69636164,rev?*%
%TF.SameCoordinates,Original*%
%TF.FileFunction,Legend,Top*%
%TF.FilePolarity,Positive*%
%FSLAX46Y46*%
G04 Gerber Fmt 4.6, Leading zero omitted, Abs format (unit mm)*
G04 Created by KiCad (PCBNEW 8.0.5) date 2025-08-20 10:32:38*
%MOMM*%
%LPD*%
G01*
G04 APERTURE LIST*
%ADD10C,0.150000*%
%ADD11C,0.120000*%
G04 APERTURE END LIST*
D10*
X153092209Y-93755657D02*
X152996971Y-93708038D01*
X152996971Y-93708038D02*
X152901733Y-93612800D01*
X152901733Y-93612800D02*
X152758876Y-93469942D01*
X152758876Y-93469942D02*
X152663638Y-93422323D01*
X152663638Y-93422323D02*
X152568400Y-93422323D01*
X152616019Y-93660419D02*
X152520781Y-93612800D01*
X152520781Y-93612800D02*
X152425543Y-93517561D01*
X152425543Y-93517561D02*
X152377924Y-93327085D01*
X152377924Y-93327085D02*
X152377924Y-92993752D01*
X152377924Y-92993752D02*
X152425543Y-92803276D01*
X152425543Y-92803276D02*
X152520781Y-92708038D01*
X152520781Y-92708038D02*
X152616019Y-92660419D01*
X152616019Y-92660419D02*
X152806495Y-92660419D01*
X152806495Y-92660419D02*
X152901733Y-92708038D01*
X152901733Y-92708038D02*
X152996971Y-92803276D01*
X152996971Y-92803276D02*
X153044590Y-92993752D01*
X153044590Y-92993752D02*
X153044590Y-93327085D01*
X153044590Y-93327085D02*
X152996971Y-93517561D01*
X152996971Y-93517561D02*
X152901733Y-93612800D01*
X152901733Y-93612800D02*
X152806495Y-93660419D01*
X152806495Y-93660419D02*
X152616019Y-93660419D01*
X153330305Y-92660419D02*
X153901733Y-92660419D01*
X153616019Y-93660419D02*
X153616019Y-92660419D01*
X154711257Y-92660419D02*
X154235067Y-92660419D01*
X154235067Y-92660419D02*
X154187448Y-93136609D01*
X154187448Y-93136609D02*
X154235067Y-93088990D01*
X154235067Y-93088990D02*
X154330305Y-93041371D01*
X154330305Y-93041371D02*
X154568400Y-93041371D01*
X154568400Y-93041371D02*
X154663638Y-93088990D01*
X154663638Y-93088990D02*
X154711257Y-93136609D01*
X154711257Y-93136609D02*
X154758876Y-93231847D01*
X154758876Y-93231847D02*
X154758876Y-93469942D01*
X154758876Y-93469942D02*
X154711257Y-93565180D01*
X154711257Y-93565180D02*
X154663638Y-93612800D01*
X154663638Y-93612800D02*
X154568400Y-93660419D01*
X154568400Y-93660419D02*
X154330305Y-93660419D01*
X154330305Y-93660419D02*
X154235067Y-93612800D01*
X154235067Y-93612800D02*
X154187448Y-93565180D01*
X127836705Y-97482819D02*
X127836705Y-96482819D01*
X127836705Y-96482819D02*
X128074800Y-96482819D01*
X128074800Y-96482819D02*
X128217657Y-96530438D01*
X128217657Y-96530438D02*
X128312895Y-96625676D01*
X128312895Y-96625676D02*
X128360514Y-96720914D01*
X128360514Y-96720914D02*
X128408133Y-96911390D01*
X128408133Y-96911390D02*
X128408133Y-97054247D01*
X128408133Y-97054247D02*
X128360514Y-97244723D01*
X128360514Y-97244723D02*
X128312895Y-97339961D01*
X128312895Y-97339961D02*
X128217657Y-97435200D01*
X128217657Y-97435200D02*
X128074800Y-97482819D01*
X128074800Y-97482819D02*
X127836705Y-97482819D01*
X128789086Y-96578057D02*
X128836705Y-96530438D01*
X128836705Y-96530438D02*
X128931943Y-96482819D01*
X128931943Y-96482819D02*
X129170038Y-96482819D01*
X129170038Y-96482819D02*
X129265276Y-96530438D01*
X129265276Y-96530438D02*
X129312895Y-96578057D01*
X129312895Y-96578057D02*
X129360514Y-96673295D01*
X129360514Y-96673295D02*
X129360514Y-96768533D01*
X129360514Y-96768533D02*
X129312895Y-96911390D01*
X129312895Y-96911390D02*
X128741467Y-97482819D01*
X128741467Y-97482819D02*
X129360514Y-97482819D01*
X144447733Y-90681019D02*
X144114400Y-90204828D01*
X143876305Y-90681019D02*
X143876305Y-89681019D01*
X143876305Y-89681019D02*
X144257257Y-89681019D01*
X144257257Y-89681019D02*
X144352495Y-89728638D01*
X144352495Y-89728638D02*
X144400114Y-89776257D01*
X144400114Y-89776257D02*
X144447733Y-89871495D01*
X144447733Y-89871495D02*
X144447733Y-90014352D01*
X144447733Y-90014352D02*
X144400114Y-90109590D01*
X144400114Y-90109590D02*
X144352495Y-90157209D01*
X144352495Y-90157209D02*
X144257257Y-90204828D01*
X144257257Y-90204828D02*
X143876305Y-90204828D01*
X145019162Y-90109590D02*
X144923924Y-90061971D01*
X144923924Y-90061971D02*
X144876305Y-90014352D01*
X144876305Y-90014352D02*
X144828686Y-89919114D01*
X144828686Y-89919114D02*
X144828686Y-89871495D01*
X144828686Y-89871495D02*
X144876305Y-89776257D01*
X144876305Y-89776257D02*
X144923924Y-89728638D01*
X144923924Y-89728638D02*
X145019162Y-89681019D01*
X145019162Y-89681019D02*
X145209638Y-89681019D01*
X145209638Y-89681019D02*
X145304876Y-89728638D01*
X145304876Y-89728638D02*
X145352495Y-89776257D01*
X145352495Y-89776257D02*
X145400114Y-89871495D01*
X145400114Y-89871495D02*
X145400114Y-89919114D01*
X145400114Y-89919114D02*
X145352495Y-90014352D01*
X145352495Y-90014352D02*
X145304876Y-90061971D01*
X145304876Y-90061971D02*
X145209638Y-90109590D01*
X145209638Y-90109590D02*
X145019162Y-90109590D01*
X145019162Y-90109590D02*
X144923924Y-90157209D01*
X144923924Y-90157209D02*
X144876305Y-90204828D01*
X144876305Y-90204828D02*
X144828686Y-90300066D01*
X144828686Y-90300066D02*
X144828686Y-90490542D01*
X144828686Y-90490542D02*
X144876305Y-90585780D01*
X144876305Y-90585780D02*
X144923924Y-90633400D01*
X144923924Y-90633400D02*
X145019162Y-90681019D01*
X145019162Y-90681019D02*
X145209638Y-90681019D01*
X145209638Y-90681019D02*
X145304876Y-90633400D01*
X145304876Y-90633400D02*
X145352495Y-90585780D01*
X145352495Y-90585780D02*
X145400114Y-90490542D01*
X145400114Y-90490542D02*
X145400114Y-90300066D01*
X145400114Y-90300066D02*
X145352495Y-90204828D01*
X145352495Y-90204828D02*
X145304876Y-90157209D01*
X145304876Y-90157209D02*
X145209638Y-90109590D01*
X150348961Y-93704857D02*
X150253723Y-93657238D01*
X150253723Y-93657238D02*
X150158485Y-93562000D01*
X150158485Y-93562000D02*
X150015628Y-93419142D01*
X150015628Y-93419142D02*
X149920390Y-93371523D01*
X149920390Y-93371523D02*
X149825152Y-93371523D01*
X149872771Y-93609619D02*
X149777533Y-93562000D01*
X149777533Y-93562000D02*
X149682295Y-93466761D01*
X149682295Y-93466761D02*
X149634676Y-93276285D01*
X149634676Y-93276285D02*
X149634676Y-92942952D01*
X149634676Y-92942952D02*
X149682295Y-92752476D01*
X149682295Y-92752476D02*
X149777533Y-92657238D01*
X149777533Y-92657238D02*
X149872771Y-92609619D01*
X149872771Y-92609619D02*
X150063247Y-92609619D01*
X150063247Y-92609619D02*
X150158485Y-92657238D01*
X150158485Y-92657238D02*
X150253723Y-92752476D01*
X150253723Y-92752476D02*
X150301342Y-92942952D01*
X150301342Y-92942952D02*
X150301342Y-93276285D01*
X150301342Y-93276285D02*
X150253723Y-93466761D01*
X150253723Y-93466761D02*
X150158485Y-93562000D01*
X150158485Y-93562000D02*
X150063247Y-93609619D01*
X150063247Y-93609619D02*
X149872771Y-93609619D01*
X151158485Y-92942952D02*
X151158485Y-93609619D01*
X150920390Y-92562000D02*
X150682295Y-93276285D01*
X150682295Y-93276285D02*
X151301342Y-93276285D01*
X145057905Y-99768819D02*
X145057905Y-98768819D01*
X145057905Y-98768819D02*
X145296000Y-98768819D01*
X145296000Y-98768819D02*
X145438857Y-98816438D01*
X145438857Y-98816438D02*
X145534095Y-98911676D01*
X145534095Y-98911676D02*
X145581714Y-99006914D01*
X145581714Y-99006914D02*
X145629333Y-99197390D01*
X145629333Y-99197390D02*
X145629333Y-99340247D01*
X145629333Y-99340247D02*
X145581714Y-99530723D01*
X145581714Y-99530723D02*
X145534095Y-99625961D01*
X145534095Y-99625961D02*
X145438857Y-99721200D01*
X145438857Y-99721200D02*
X145296000Y-99768819D01*
X145296000Y-99768819D02*
X145057905Y-99768819D01*
X146534095Y-98768819D02*
X146057905Y-98768819D01*
X146057905Y-98768819D02*
X146010286Y-99245009D01*
X146010286Y-99245009D02*
X146057905Y-99197390D01*
X146057905Y-99197390D02*
X146153143Y-99149771D01*
X146153143Y-99149771D02*
X146391238Y-99149771D01*
X146391238Y-99149771D02*
X146486476Y-99197390D01*
X146486476Y-99197390D02*
X146534095Y-99245009D01*
X146534095Y-99245009D02*
X146581714Y-99340247D01*
X146581714Y-99340247D02*
X146581714Y-99578342D01*
X146581714Y-99578342D02*
X146534095Y-99673580D01*
X146534095Y-99673580D02*
X146486476Y-99721200D01*
X146486476Y-99721200D02*
X146391238Y-99768819D01*
X146391238Y-99768819D02*
X146153143Y-99768819D01*
X146153143Y-99768819D02*
X146057905Y-99721200D01*
X146057905Y-99721200D02*
X146010286Y-99673580D01*
X146035733Y-101877019D02*
X145702400Y-101400828D01*
X145464305Y-101877019D02*
X145464305Y-100877019D01*
X145464305Y-100877019D02*
X145845257Y-100877019D01*
X145845257Y-100877019D02*
X145940495Y-100924638D01*
X145940495Y-100924638D02*
X145988114Y-100972257D01*
X145988114Y-100972257D02*
X146035733Y-101067495D01*
X146035733Y-101067495D02*
X146035733Y-101210352D01*
X146035733Y-101210352D02*
X145988114Y-101305590D01*
X145988114Y-101305590D02*
X145940495Y-101353209D01*
X145940495Y-101353209D02*
X145845257Y-101400828D01*
X145845257Y-101400828D02*
X145464305Y-101400828D01*
X146416686Y-100972257D02*
X146464305Y-100924638D01*
X146464305Y-100924638D02*
X146559543Y-100877019D01*
X146559543Y-100877019D02*
X146797638Y-100877019D01*
X146797638Y-100877019D02*
X146892876Y-100924638D01*
X146892876Y-100924638D02*
X146940495Y-100972257D01*
X146940495Y-100972257D02*
X146988114Y-101067495D01*
X146988114Y-101067495D02*
X146988114Y-101162733D01*
X146988114Y-101162733D02*
X146940495Y-101305590D01*
X146940495Y-101305590D02*
X146369067Y-101877019D01*
X146369067Y-101877019D02*
X146988114Y-101877019D01*
X169232342Y-102562819D02*
X168899009Y-102086628D01*
X168660914Y-102562819D02*
X168660914Y-101562819D01*
X168660914Y-101562819D02*
X169041866Y-101562819D01*
X169041866Y-101562819D02*
X169137104Y-101610438D01*
X169137104Y-101610438D02*
X169184723Y-101658057D01*
X169184723Y-101658057D02*
X169232342Y-101753295D01*
X169232342Y-101753295D02*
X169232342Y-101896152D01*
X169232342Y-101896152D02*
X169184723Y-101991390D01*
X169184723Y-101991390D02*
X169137104Y-102039009D01*
X169137104Y-102039009D02*
X169041866Y-102086628D01*
X169041866Y-102086628D02*
X168660914Y-102086628D01*
X170184723Y-102562819D02*
X169613295Y-102562819D01*
X169899009Y-102562819D02*
X169899009Y-101562819D01*
X169899009Y-101562819D02*
X169803771Y-101705676D01*
X169803771Y-101705676D02*
X169708533Y-101800914D01*
X169708533Y-101800914D02*
X169613295Y-101848533D01*
X170660914Y-102562819D02*
X170851390Y-102562819D01*
X170851390Y-102562819D02*
X170946628Y-102515200D01*
X170946628Y-102515200D02*
X170994247Y-102467580D01*
X170994247Y-102467580D02*
X171089485Y-102324723D01*
X171089485Y-102324723D02*
X171137104Y-102134247D01*
X171137104Y-102134247D02*
X171137104Y-101753295D01*
X171137104Y-101753295D02*
X171089485Y-101658057D01*
X171089485Y-101658057D02*
X171041866Y-101610438D01*
X171041866Y-101610438D02*
X170946628Y-101562819D01*
X170946628Y-101562819D02*
X170756152Y-101562819D01*
X170756152Y-101562819D02*
X170660914Y-101610438D01*
X170660914Y-101610438D02*
X170613295Y-101658057D01*
X170613295Y-101658057D02*
X170565676Y-101753295D01*
X170565676Y-101753295D02*
X170565676Y-101991390D01*
X170565676Y-101991390D02*
X170613295Y-102086628D01*
X170613295Y-102086628D02*
X170660914Y-102134247D01*
X170660914Y-102134247D02*
X170756152Y-102181866D01*
X170756152Y-102181866D02*
X170946628Y-102181866D01*
X170946628Y-102181866D02*
X171041866Y-102134247D01*
X171041866Y-102134247D02*
X171089485Y-102086628D01*
X171089485Y-102086628D02*
X171137104Y-101991390D01*
X143089333Y-101883380D02*
X143041714Y-101931000D01*
X143041714Y-101931000D02*
X142898857Y-101978619D01*
X142898857Y-101978619D02*
X142803619Y-101978619D01*
X142803619Y-101978619D02*
X142660762Y-101931000D01*
X142660762Y-101931000D02*
X142565524Y-101835761D01*
X142565524Y-101835761D02*
X142517905Y-101740523D01*
X142517905Y-101740523D02*
X142470286Y-101550047D01*
X142470286Y-101550047D02*
X142470286Y-101407190D01*
X142470286Y-101407190D02*
X142517905Y-101216714D01*
X142517905Y-101216714D02*
X142565524Y-101121476D01*
X142565524Y-101121476D02*
X142660762Y-101026238D01*
X142660762Y-101026238D02*
X142803619Y-100978619D01*
X142803619Y-100978619D02*
X142898857Y-100978619D01*
X142898857Y-100978619D02*
X143041714Y-101026238D01*
X143041714Y-101026238D02*
X143089333Y-101073857D01*
X144041714Y-101978619D02*
X143470286Y-101978619D01*
X143756000Y-101978619D02*
X143756000Y-100978619D01*
X143756000Y-100978619D02*
X143660762Y-101121476D01*
X143660762Y-101121476D02*
X143565524Y-101216714D01*
X143565524Y-101216714D02*
X143470286Y-101264333D01*
X159871580Y-92622666D02*
X159919200Y-92670285D01*
X159919200Y-92670285D02*
X159966819Y-92813142D01*
X159966819Y-92813142D02*
X159966819Y-92908380D01*
X159966819Y-92908380D02*
X159919200Y-93051237D01*
X159919200Y-93051237D02*
X159823961Y-93146475D01*
X159823961Y-93146475D02*
X159728723Y-93194094D01*
X159728723Y-93194094D02*
X159538247Y-93241713D01*
X159538247Y-93241713D02*
X159395390Y-93241713D01*
X159395390Y-93241713D02*
X159204914Y-93194094D01*
X159204914Y-93194094D02*
X159109676Y-93146475D01*
X159109676Y-93146475D02*
X159014438Y-93051237D01*
X159014438Y-93051237D02*
X158966819Y-92908380D01*
X158966819Y-92908380D02*
X158966819Y-92813142D01*
X158966819Y-92813142D02*
X159014438Y-92670285D01*
X159014438Y-92670285D02*
X159062057Y-92622666D01*
X159966819Y-92146475D02*
X159966819Y-91955999D01*
X159966819Y-91955999D02*
X159919200Y-91860761D01*
X159919200Y-91860761D02*
X159871580Y-91813142D01*
X159871580Y-91813142D02*
X159728723Y-91717904D01*
X159728723Y-91717904D02*
X159538247Y-91670285D01*
X159538247Y-91670285D02*
X159157295Y-91670285D01*
X159157295Y-91670285D02*
X159062057Y-91717904D01*
X159062057Y-91717904D02*
X159014438Y-91765523D01*
X159014438Y-91765523D02*
X158966819Y-91860761D01*
X158966819Y-91860761D02*
X158966819Y-92051237D01*
X158966819Y-92051237D02*
X159014438Y-92146475D01*
X159014438Y-92146475D02*
X159062057Y-92194094D01*
X159062057Y-92194094D02*
X159157295Y-92241713D01*
X159157295Y-92241713D02*
X159395390Y-92241713D01*
X159395390Y-92241713D02*
X159490628Y-92194094D01*
X159490628Y-92194094D02*
X159538247Y-92146475D01*
X159538247Y-92146475D02*
X159585866Y-92051237D01*
X159585866Y-92051237D02*
X159585866Y-91860761D01*
X159585866Y-91860761D02*
X159538247Y-91765523D01*
X159538247Y-91765523D02*
X159490628Y-91717904D01*
X159490628Y-91717904D02*
X159395390Y-91670285D01*
X172229542Y-102555219D02*
X171896209Y-102079028D01*
X171658114Y-102555219D02*
X171658114Y-101555219D01*
X171658114Y-101555219D02*
X172039066Y-101555219D01*
X172039066Y-101555219D02*
X172134304Y-101602838D01*
X172134304Y-101602838D02*
X172181923Y-101650457D01*
X172181923Y-101650457D02*
X172229542Y-101745695D01*
X172229542Y-101745695D02*
X172229542Y-101888552D01*
X172229542Y-101888552D02*
X172181923Y-101983790D01*
X172181923Y-101983790D02*
X172134304Y-102031409D01*
X172134304Y-102031409D02*
X172039066Y-102079028D01*
X172039066Y-102079028D02*
X171658114Y-102079028D01*
X172610495Y-101650457D02*
X172658114Y-101602838D01*
X172658114Y-101602838D02*
X172753352Y-101555219D01*
X172753352Y-101555219D02*
X172991447Y-101555219D01*
X172991447Y-101555219D02*
X173086685Y-101602838D01*
X173086685Y-101602838D02*
X173134304Y-101650457D01*
X173134304Y-101650457D02*
X173181923Y-101745695D01*
X173181923Y-101745695D02*
X173181923Y-101840933D01*
X173181923Y-101840933D02*
X173134304Y-101983790D01*
X173134304Y-101983790D02*
X172562876Y-102555219D01*
X172562876Y-102555219D02*
X173181923Y-102555219D01*
X173562876Y-101650457D02*
X173610495Y-101602838D01*
X173610495Y-101602838D02*
X173705733Y-101555219D01*
X173705733Y-101555219D02*
X173943828Y-101555219D01*
X173943828Y-101555219D02*
X174039066Y-101602838D01*
X174039066Y-101602838D02*
X174086685Y-101650457D01*
X174086685Y-101650457D02*
X174134304Y-101745695D01*
X174134304Y-101745695D02*
X174134304Y-101840933D01*
X174134304Y-101840933D02*
X174086685Y-101983790D01*
X174086685Y-101983790D02*
X173515257Y-102555219D01*
X173515257Y-102555219D02*
X174134304Y-102555219D01*
X161047580Y-102528666D02*
X161095200Y-102576285D01*
X161095200Y-102576285D02*
X161142819Y-102719142D01*
X161142819Y-102719142D02*
X161142819Y-102814380D01*
X161142819Y-102814380D02*
X161095200Y-102957237D01*
X161095200Y-102957237D02*
X160999961Y-103052475D01*
X160999961Y-103052475D02*
X160904723Y-103100094D01*
X160904723Y-103100094D02*
X160714247Y-103147713D01*
X160714247Y-103147713D02*
X160571390Y-103147713D01*
X160571390Y-103147713D02*
X160380914Y-103100094D01*
X160380914Y-103100094D02*
X160285676Y-103052475D01*
X160285676Y-103052475D02*
X160190438Y-102957237D01*
X160190438Y-102957237D02*
X160142819Y-102814380D01*
X160142819Y-102814380D02*
X160142819Y-102719142D01*
X160142819Y-102719142D02*
X160190438Y-102576285D01*
X160190438Y-102576285D02*
X160238057Y-102528666D01*
X160142819Y-101623904D02*
X160142819Y-102100094D01*
X160142819Y-102100094D02*
X160619009Y-102147713D01*
X160619009Y-102147713D02*
X160571390Y-102100094D01*
X160571390Y-102100094D02*
X160523771Y-102004856D01*
X160523771Y-102004856D02*
X160523771Y-101766761D01*
X160523771Y-101766761D02*
X160571390Y-101671523D01*
X160571390Y-101671523D02*
X160619009Y-101623904D01*
X160619009Y-101623904D02*
X160714247Y-101576285D01*
X160714247Y-101576285D02*
X160952342Y-101576285D01*
X160952342Y-101576285D02*
X161047580Y-101623904D01*
X161047580Y-101623904D02*
X161095200Y-101671523D01*
X161095200Y-101671523D02*
X161142819Y-101766761D01*
X161142819Y-101766761D02*
X161142819Y-102004856D01*
X161142819Y-102004856D02*
X161095200Y-102100094D01*
X161095200Y-102100094D02*
X161047580Y-102147713D01*
X153744705Y-99756419D02*
X153744705Y-98756419D01*
X153744705Y-98756419D02*
X153982800Y-98756419D01*
X153982800Y-98756419D02*
X154125657Y-98804038D01*
X154125657Y-98804038D02*
X154220895Y-98899276D01*
X154220895Y-98899276D02*
X154268514Y-98994514D01*
X154268514Y-98994514D02*
X154316133Y-99184990D01*
X154316133Y-99184990D02*
X154316133Y-99327847D01*
X154316133Y-99327847D02*
X154268514Y-99518323D01*
X154268514Y-99518323D02*
X154220895Y-99613561D01*
X154220895Y-99613561D02*
X154125657Y-99708800D01*
X154125657Y-99708800D02*
X153982800Y-99756419D01*
X153982800Y-99756419D02*
X153744705Y-99756419D01*
X155173276Y-98756419D02*
X154982800Y-98756419D01*
X154982800Y-98756419D02*
X154887562Y-98804038D01*
X154887562Y-98804038D02*
X154839943Y-98851657D01*
X154839943Y-98851657D02*
X154744705Y-98994514D01*
X154744705Y-98994514D02*
X154697086Y-99184990D01*
X154697086Y-99184990D02*
X154697086Y-99565942D01*
X154697086Y-99565942D02*
X154744705Y-99661180D01*
X154744705Y-99661180D02*
X154792324Y-99708800D01*
X154792324Y-99708800D02*
X154887562Y-99756419D01*
X154887562Y-99756419D02*
X155078038Y-99756419D01*
X155078038Y-99756419D02*
X155173276Y-99708800D01*
X155173276Y-99708800D02*
X155220895Y-99661180D01*
X155220895Y-99661180D02*
X155268514Y-99565942D01*
X155268514Y-99565942D02*
X155268514Y-99327847D01*
X155268514Y-99327847D02*
X155220895Y-99232609D01*
X155220895Y-99232609D02*
X155173276Y-99184990D01*
X155173276Y-99184990D02*
X155078038Y-99137371D01*
X155078038Y-99137371D02*
X154887562Y-99137371D01*
X154887562Y-99137371D02*
X154792324Y-99184990D01*
X154792324Y-99184990D02*
X154744705Y-99232609D01*
X154744705Y-99232609D02*
X154697086Y-99327847D01*
X126454819Y-83057904D02*
X127264342Y-83057904D01*
X127264342Y-83057904D02*
X127359580Y-83010285D01*
X127359580Y-83010285D02*
X127407200Y-82962666D01*
X127407200Y-82962666D02*
X127454819Y-82867428D01*
X127454819Y-82867428D02*
X127454819Y-82676952D01*
X127454819Y-82676952D02*
X127407200Y-82581714D01*
X127407200Y-82581714D02*
X127359580Y-82534095D01*
X127359580Y-82534095D02*
X127264342Y-82486476D01*
X127264342Y-82486476D02*
X126454819Y-82486476D01*
X127454819Y-81486476D02*
X127454819Y-82057904D01*
X127454819Y-81772190D02*
X126454819Y-81772190D01*
X126454819Y-81772190D02*
X126597676Y-81867428D01*
X126597676Y-81867428D02*
X126692914Y-81962666D01*
X126692914Y-81962666D02*
X126740533Y-82057904D01*
X143025905Y-106880819D02*
X143025905Y-105880819D01*
X143025905Y-105880819D02*
X143264000Y-105880819D01*
X143264000Y-105880819D02*
X143406857Y-105928438D01*
X143406857Y-105928438D02*
X143502095Y-106023676D01*
X143502095Y-106023676D02*
X143549714Y-106118914D01*
X143549714Y-106118914D02*
X143597333Y-106309390D01*
X143597333Y-106309390D02*
X143597333Y-106452247D01*
X143597333Y-106452247D02*
X143549714Y-106642723D01*
X143549714Y-106642723D02*
X143502095Y-106737961D01*
X143502095Y-106737961D02*
X143406857Y-106833200D01*
X143406857Y-106833200D02*
X143264000Y-106880819D01*
X143264000Y-106880819D02*
X143025905Y-106880819D01*
X144454476Y-106214152D02*
X144454476Y-106880819D01*
X144216381Y-105833200D02*
X143978286Y-106547485D01*
X143978286Y-106547485D02*
X144597333Y-106547485D01*
X156506057Y-104997238D02*
X156458438Y-105092476D01*
X156458438Y-105092476D02*
X156363200Y-105187714D01*
X156363200Y-105187714D02*
X156220342Y-105330571D01*
X156220342Y-105330571D02*
X156172723Y-105425809D01*
X156172723Y-105425809D02*
X156172723Y-105521047D01*
X156410819Y-105473428D02*
X156363200Y-105568666D01*
X156363200Y-105568666D02*
X156267961Y-105663904D01*
X156267961Y-105663904D02*
X156077485Y-105711523D01*
X156077485Y-105711523D02*
X155744152Y-105711523D01*
X155744152Y-105711523D02*
X155553676Y-105663904D01*
X155553676Y-105663904D02*
X155458438Y-105568666D01*
X155458438Y-105568666D02*
X155410819Y-105473428D01*
X155410819Y-105473428D02*
X155410819Y-105282952D01*
X155410819Y-105282952D02*
X155458438Y-105187714D01*
X155458438Y-105187714D02*
X155553676Y-105092476D01*
X155553676Y-105092476D02*
X155744152Y-105044857D01*
X155744152Y-105044857D02*
X156077485Y-105044857D01*
X156077485Y-105044857D02*
X156267961Y-105092476D01*
X156267961Y-105092476D02*
X156363200Y-105187714D01*
X156363200Y-105187714D02*
X156410819Y-105282952D01*
X156410819Y-105282952D02*
X156410819Y-105473428D01*
X155506057Y-104663904D02*
X155458438Y-104616285D01*
X155458438Y-104616285D02*
X155410819Y-104521047D01*
X155410819Y-104521047D02*
X155410819Y-104282952D01*
X155410819Y-104282952D02*
X155458438Y-104187714D01*
X155458438Y-104187714D02*
X155506057Y-104140095D01*
X155506057Y-104140095D02*
X155601295Y-104092476D01*
X155601295Y-104092476D02*
X155696533Y-104092476D01*
X155696533Y-104092476D02*
X155839390Y-104140095D01*
X155839390Y-104140095D02*
X156410819Y-104711523D01*
X156410819Y-104711523D02*
X156410819Y-104092476D01*
X172596980Y-92673466D02*
X172644600Y-92721085D01*
X172644600Y-92721085D02*
X172692219Y-92863942D01*
X172692219Y-92863942D02*
X172692219Y-92959180D01*
X172692219Y-92959180D02*
X172644600Y-93102037D01*
X172644600Y-93102037D02*
X172549361Y-93197275D01*
X172549361Y-93197275D02*
X172454123Y-93244894D01*
X172454123Y-93244894D02*
X172263647Y-93292513D01*
X172263647Y-93292513D02*
X172120790Y-93292513D01*
X172120790Y-93292513D02*
X171930314Y-93244894D01*
X171930314Y-93244894D02*
X171835076Y-93197275D01*
X171835076Y-93197275D02*
X171739838Y-93102037D01*
X171739838Y-93102037D02*
X171692219Y-92959180D01*
X171692219Y-92959180D02*
X171692219Y-92863942D01*
X171692219Y-92863942D02*
X171739838Y-92721085D01*
X171739838Y-92721085D02*
X171787457Y-92673466D01*
X171692219Y-91816323D02*
X171692219Y-92006799D01*
X171692219Y-92006799D02*
X171739838Y-92102037D01*
X171739838Y-92102037D02*
X171787457Y-92149656D01*
X171787457Y-92149656D02*
X171930314Y-92244894D01*
X171930314Y-92244894D02*
X172120790Y-92292513D01*
X172120790Y-92292513D02*
X172501742Y-92292513D01*
X172501742Y-92292513D02*
X172596980Y-92244894D01*
X172596980Y-92244894D02*
X172644600Y-92197275D01*
X172644600Y-92197275D02*
X172692219Y-92102037D01*
X172692219Y-92102037D02*
X172692219Y-91911561D01*
X172692219Y-91911561D02*
X172644600Y-91816323D01*
X172644600Y-91816323D02*
X172596980Y-91768704D01*
X172596980Y-91768704D02*
X172501742Y-91721085D01*
X172501742Y-91721085D02*
X172263647Y-91721085D01*
X172263647Y-91721085D02*
X172168409Y-91768704D01*
X172168409Y-91768704D02*
X172120790Y-91816323D01*
X172120790Y-91816323D02*
X172073171Y-91911561D01*
X172073171Y-91911561D02*
X172073171Y-92102037D01*
X172073171Y-92102037D02*
X172120790Y-92197275D01*
X172120790Y-92197275D02*
X172168409Y-92244894D01*
X172168409Y-92244894D02*
X172263647Y-92292513D01*
X155324371Y-74972104D02*
X155800561Y-74972104D01*
X155229133Y-75257819D02*
X155562466Y-74257819D01*
X155562466Y-74257819D02*
X155895799Y-75257819D01*
X156562466Y-74734009D02*
X156229133Y-74734009D01*
X156229133Y-75257819D02*
X156229133Y-74257819D01*
X156229133Y-74257819D02*
X156705323Y-74257819D01*
X157419609Y-74734009D02*
X157086276Y-74734009D01*
X157086276Y-75257819D02*
X157086276Y-74257819D01*
X157086276Y-74257819D02*
X157562466Y-74257819D01*
X157895800Y-74353057D02*
X157943419Y-74305438D01*
X157943419Y-74305438D02*
X158038657Y-74257819D01*
X158038657Y-74257819D02*
X158276752Y-74257819D01*
X158276752Y-74257819D02*
X158371990Y-74305438D01*
X158371990Y-74305438D02*
X158419609Y-74353057D01*
X158419609Y-74353057D02*
X158467228Y-74448295D01*
X158467228Y-74448295D02*
X158467228Y-74543533D01*
X158467228Y-74543533D02*
X158419609Y-74686390D01*
X158419609Y-74686390D02*
X157848181Y-75257819D01*
X157848181Y-75257819D02*
X158467228Y-75257819D01*
X150963333Y-101947180D02*
X150915714Y-101994800D01*
X150915714Y-101994800D02*
X150772857Y-102042419D01*
X150772857Y-102042419D02*
X150677619Y-102042419D01*
X150677619Y-102042419D02*
X150534762Y-101994800D01*
X150534762Y-101994800D02*
X150439524Y-101899561D01*
X150439524Y-101899561D02*
X150391905Y-101804323D01*
X150391905Y-101804323D02*
X150344286Y-101613847D01*
X150344286Y-101613847D02*
X150344286Y-101470990D01*
X150344286Y-101470990D02*
X150391905Y-101280514D01*
X150391905Y-101280514D02*
X150439524Y-101185276D01*
X150439524Y-101185276D02*
X150534762Y-101090038D01*
X150534762Y-101090038D02*
X150677619Y-101042419D01*
X150677619Y-101042419D02*
X150772857Y-101042419D01*
X150772857Y-101042419D02*
X150915714Y-101090038D01*
X150915714Y-101090038D02*
X150963333Y-101137657D01*
X151344286Y-101137657D02*
X151391905Y-101090038D01*
X151391905Y-101090038D02*
X151487143Y-101042419D01*
X151487143Y-101042419D02*
X151725238Y-101042419D01*
X151725238Y-101042419D02*
X151820476Y-101090038D01*
X151820476Y-101090038D02*
X151868095Y-101137657D01*
X151868095Y-101137657D02*
X151915714Y-101232895D01*
X151915714Y-101232895D02*
X151915714Y-101328133D01*
X151915714Y-101328133D02*
X151868095Y-101470990D01*
X151868095Y-101470990D02*
X151296667Y-102042419D01*
X151296667Y-102042419D02*
X151915714Y-102042419D01*
X142548171Y-74768904D02*
X143024361Y-74768904D01*
X142452933Y-75054619D02*
X142786266Y-74054619D01*
X142786266Y-74054619D02*
X143119599Y-75054619D01*
X143786266Y-74530809D02*
X143452933Y-74530809D01*
X143452933Y-75054619D02*
X143452933Y-74054619D01*
X143452933Y-74054619D02*
X143929123Y-74054619D01*
X144643409Y-74530809D02*
X144310076Y-74530809D01*
X144310076Y-75054619D02*
X144310076Y-74054619D01*
X144310076Y-74054619D02*
X144786266Y-74054619D01*
X145691028Y-75054619D02*
X145119600Y-75054619D01*
X145405314Y-75054619D02*
X145405314Y-74054619D01*
X145405314Y-74054619D02*
X145310076Y-74197476D01*
X145310076Y-74197476D02*
X145214838Y-74292714D01*
X145214838Y-74292714D02*
X145119600Y-74340333D01*
X127531905Y-73860819D02*
X127531905Y-72860819D01*
X127531905Y-72860819D02*
X127770000Y-72860819D01*
X127770000Y-72860819D02*
X127912857Y-72908438D01*
X127912857Y-72908438D02*
X128008095Y-73003676D01*
X128008095Y-73003676D02*
X128055714Y-73098914D01*
X128055714Y-73098914D02*
X128103333Y-73289390D01*
X128103333Y-73289390D02*
X128103333Y-73432247D01*
X128103333Y-73432247D02*
X128055714Y-73622723D01*
X128055714Y-73622723D02*
X128008095Y-73717961D01*
X128008095Y-73717961D02*
X127912857Y-73813200D01*
X127912857Y-73813200D02*
X127770000Y-73860819D01*
X127770000Y-73860819D02*
X127531905Y-73860819D01*
X128436667Y-72860819D02*
X129103333Y-72860819D01*
X129103333Y-72860819D02*
X128674762Y-73860819D01*
X129563905Y-107388819D02*
X129563905Y-106388819D01*
X129563905Y-106388819D02*
X129802000Y-106388819D01*
X129802000Y-106388819D02*
X129944857Y-106436438D01*
X129944857Y-106436438D02*
X130040095Y-106531676D01*
X130040095Y-106531676D02*
X130087714Y-106626914D01*
X130087714Y-106626914D02*
X130135333Y-106817390D01*
X130135333Y-106817390D02*
X130135333Y-106960247D01*
X130135333Y-106960247D02*
X130087714Y-107150723D01*
X130087714Y-107150723D02*
X130040095Y-107245961D01*
X130040095Y-107245961D02*
X129944857Y-107341200D01*
X129944857Y-107341200D02*
X129802000Y-107388819D01*
X129802000Y-107388819D02*
X129563905Y-107388819D01*
X131087714Y-107388819D02*
X130516286Y-107388819D01*
X130802000Y-107388819D02*
X130802000Y-106388819D01*
X130802000Y-106388819D02*
X130706762Y-106531676D01*
X130706762Y-106531676D02*
X130611524Y-106626914D01*
X130611524Y-106626914D02*
X130516286Y-106674533D01*
X175780867Y-95682600D02*
X175923724Y-95730219D01*
X175923724Y-95730219D02*
X176161819Y-95730219D01*
X176161819Y-95730219D02*
X176257057Y-95682600D01*
X176257057Y-95682600D02*
X176304676Y-95634980D01*
X176304676Y-95634980D02*
X176352295Y-95539742D01*
X176352295Y-95539742D02*
X176352295Y-95444504D01*
X176352295Y-95444504D02*
X176304676Y-95349266D01*
X176304676Y-95349266D02*
X176257057Y-95301647D01*
X176257057Y-95301647D02*
X176161819Y-95254028D01*
X176161819Y-95254028D02*
X175971343Y-95206409D01*
X175971343Y-95206409D02*
X175876105Y-95158790D01*
X175876105Y-95158790D02*
X175828486Y-95111171D01*
X175828486Y-95111171D02*
X175780867Y-95015933D01*
X175780867Y-95015933D02*
X175780867Y-94920695D01*
X175780867Y-94920695D02*
X175828486Y-94825457D01*
X175828486Y-94825457D02*
X175876105Y-94777838D01*
X175876105Y-94777838D02*
X175971343Y-94730219D01*
X175971343Y-94730219D02*
X176209438Y-94730219D01*
X176209438Y-94730219D02*
X176352295Y-94777838D01*
X176685629Y-94730219D02*
X176923724Y-95730219D01*
X176923724Y-95730219D02*
X177114200Y-95015933D01*
X177114200Y-95015933D02*
X177304676Y-95730219D01*
X177304676Y-95730219D02*
X177542772Y-94730219D01*
X178447533Y-95730219D02*
X177876105Y-95730219D01*
X178161819Y-95730219D02*
X178161819Y-94730219D01*
X178161819Y-94730219D02*
X178066581Y-94873076D01*
X178066581Y-94873076D02*
X177971343Y-94968314D01*
X177971343Y-94968314D02*
X177876105Y-95015933D01*
X143152019Y-97487066D02*
X142675828Y-97820399D01*
X143152019Y-98058494D02*
X142152019Y-98058494D01*
X142152019Y-98058494D02*
X142152019Y-97677542D01*
X142152019Y-97677542D02*
X142199638Y-97582304D01*
X142199638Y-97582304D02*
X142247257Y-97534685D01*
X142247257Y-97534685D02*
X142342495Y-97487066D01*
X142342495Y-97487066D02*
X142485352Y-97487066D01*
X142485352Y-97487066D02*
X142580590Y-97534685D01*
X142580590Y-97534685D02*
X142628209Y-97582304D01*
X142628209Y-97582304D02*
X142675828Y-97677542D01*
X142675828Y-97677542D02*
X142675828Y-98058494D01*
X142152019Y-96582304D02*
X142152019Y-97058494D01*
X142152019Y-97058494D02*
X142628209Y-97106113D01*
X142628209Y-97106113D02*
X142580590Y-97058494D01*
X142580590Y-97058494D02*
X142532971Y-96963256D01*
X142532971Y-96963256D02*
X142532971Y-96725161D01*
X142532971Y-96725161D02*
X142580590Y-96629923D01*
X142580590Y-96629923D02*
X142628209Y-96582304D01*
X142628209Y-96582304D02*
X142723447Y-96534685D01*
X142723447Y-96534685D02*
X142961542Y-96534685D01*
X142961542Y-96534685D02*
X143056780Y-96582304D01*
X143056780Y-96582304D02*
X143104400Y-96629923D01*
X143104400Y-96629923D02*
X143152019Y-96725161D01*
X143152019Y-96725161D02*
X143152019Y-96963256D01*
X143152019Y-96963256D02*
X143104400Y-97058494D01*
X143104400Y-97058494D02*
X143056780Y-97106113D01*
X154576542Y-90714019D02*
X154243209Y-90237828D01*
X154005114Y-90714019D02*
X154005114Y-89714019D01*
X154005114Y-89714019D02*
X154386066Y-89714019D01*
X154386066Y-89714019D02*
X154481304Y-89761638D01*
X154481304Y-89761638D02*
X154528923Y-89809257D01*
X154528923Y-89809257D02*
X154576542Y-89904495D01*
X154576542Y-89904495D02*
X154576542Y-90047352D01*
X154576542Y-90047352D02*
X154528923Y-90142590D01*
X154528923Y-90142590D02*
X154481304Y-90190209D01*
X154481304Y-90190209D02*
X154386066Y-90237828D01*
X154386066Y-90237828D02*
X154005114Y-90237828D01*
X155528923Y-90714019D02*
X154957495Y-90714019D01*
X155243209Y-90714019D02*
X155243209Y-89714019D01*
X155243209Y-89714019D02*
X155147971Y-89856876D01*
X155147971Y-89856876D02*
X155052733Y-89952114D01*
X155052733Y-89952114D02*
X154957495Y-89999733D01*
X156433685Y-89714019D02*
X155957495Y-89714019D01*
X155957495Y-89714019D02*
X155909876Y-90190209D01*
X155909876Y-90190209D02*
X155957495Y-90142590D01*
X155957495Y-90142590D02*
X156052733Y-90094971D01*
X156052733Y-90094971D02*
X156290828Y-90094971D01*
X156290828Y-90094971D02*
X156386066Y-90142590D01*
X156386066Y-90142590D02*
X156433685Y-90190209D01*
X156433685Y-90190209D02*
X156481304Y-90285447D01*
X156481304Y-90285447D02*
X156481304Y-90523542D01*
X156481304Y-90523542D02*
X156433685Y-90618780D01*
X156433685Y-90618780D02*
X156386066Y-90666400D01*
X156386066Y-90666400D02*
X156290828Y-90714019D01*
X156290828Y-90714019D02*
X156052733Y-90714019D01*
X156052733Y-90714019D02*
X155957495Y-90666400D01*
X155957495Y-90666400D02*
X155909876Y-90618780D01*
X167682057Y-104489238D02*
X167634438Y-104584476D01*
X167634438Y-104584476D02*
X167539200Y-104679714D01*
X167539200Y-104679714D02*
X167396342Y-104822571D01*
X167396342Y-104822571D02*
X167348723Y-104917809D01*
X167348723Y-104917809D02*
X167348723Y-105013047D01*
X167586819Y-104965428D02*
X167539200Y-105060666D01*
X167539200Y-105060666D02*
X167443961Y-105155904D01*
X167443961Y-105155904D02*
X167253485Y-105203523D01*
X167253485Y-105203523D02*
X166920152Y-105203523D01*
X166920152Y-105203523D02*
X166729676Y-105155904D01*
X166729676Y-105155904D02*
X166634438Y-105060666D01*
X166634438Y-105060666D02*
X166586819Y-104965428D01*
X166586819Y-104965428D02*
X166586819Y-104774952D01*
X166586819Y-104774952D02*
X166634438Y-104679714D01*
X166634438Y-104679714D02*
X166729676Y-104584476D01*
X166729676Y-104584476D02*
X166920152Y-104536857D01*
X166920152Y-104536857D02*
X167253485Y-104536857D01*
X167253485Y-104536857D02*
X167443961Y-104584476D01*
X167443961Y-104584476D02*
X167539200Y-104679714D01*
X167539200Y-104679714D02*
X167586819Y-104774952D01*
X167586819Y-104774952D02*
X167586819Y-104965428D01*
X166586819Y-103632095D02*
X166586819Y-104108285D01*
X166586819Y-104108285D02*
X167063009Y-104155904D01*
X167063009Y-104155904D02*
X167015390Y-104108285D01*
X167015390Y-104108285D02*
X166967771Y-104013047D01*
X166967771Y-104013047D02*
X166967771Y-103774952D01*
X166967771Y-103774952D02*
X167015390Y-103679714D01*
X167015390Y-103679714D02*
X167063009Y-103632095D01*
X167063009Y-103632095D02*
X167158247Y-103584476D01*
X167158247Y-103584476D02*
X167396342Y-103584476D01*
X167396342Y-103584476D02*
X167491580Y-103632095D01*
X167491580Y-103632095D02*
X167539200Y-103679714D01*
X167539200Y-103679714D02*
X167586819Y-103774952D01*
X167586819Y-103774952D02*
X167586819Y-104013047D01*
X167586819Y-104013047D02*
X167539200Y-104108285D01*
X167539200Y-104108285D02*
X167491580Y-104155904D01*
X151083542Y-90681019D02*
X150750209Y-90204828D01*
X150512114Y-90681019D02*
X150512114Y-89681019D01*
X150512114Y-89681019D02*
X150893066Y-89681019D01*
X150893066Y-89681019D02*
X150988304Y-89728638D01*
X150988304Y-89728638D02*
X151035923Y-89776257D01*
X151035923Y-89776257D02*
X151083542Y-89871495D01*
X151083542Y-89871495D02*
X151083542Y-90014352D01*
X151083542Y-90014352D02*
X151035923Y-90109590D01*
X151035923Y-90109590D02*
X150988304Y-90157209D01*
X150988304Y-90157209D02*
X150893066Y-90204828D01*
X150893066Y-90204828D02*
X150512114Y-90204828D01*
X152035923Y-90681019D02*
X151464495Y-90681019D01*
X151750209Y-90681019D02*
X151750209Y-89681019D01*
X151750209Y-89681019D02*
X151654971Y-89823876D01*
X151654971Y-89823876D02*
X151559733Y-89919114D01*
X151559733Y-89919114D02*
X151464495Y-89966733D01*
X152607352Y-90109590D02*
X152512114Y-90061971D01*
X152512114Y-90061971D02*
X152464495Y-90014352D01*
X152464495Y-90014352D02*
X152416876Y-89919114D01*
X152416876Y-89919114D02*
X152416876Y-89871495D01*
X152416876Y-89871495D02*
X152464495Y-89776257D01*
X152464495Y-89776257D02*
X152512114Y-89728638D01*
X152512114Y-89728638D02*
X152607352Y-89681019D01*
X152607352Y-89681019D02*
X152797828Y-89681019D01*
X152797828Y-89681019D02*
X152893066Y-89728638D01*
X152893066Y-89728638D02*
X152940685Y-89776257D01*
X152940685Y-89776257D02*
X152988304Y-89871495D01*
X152988304Y-89871495D02*
X152988304Y-89919114D01*
X152988304Y-89919114D02*
X152940685Y-90014352D01*
X152940685Y-90014352D02*
X152893066Y-90061971D01*
X152893066Y-90061971D02*
X152797828Y-90109590D01*
X152797828Y-90109590D02*
X152607352Y-90109590D01*
X152607352Y-90109590D02*
X152512114Y-90157209D01*
X152512114Y-90157209D02*
X152464495Y-90204828D01*
X152464495Y-90204828D02*
X152416876Y-90300066D01*
X152416876Y-90300066D02*
X152416876Y-90490542D01*
X152416876Y-90490542D02*
X152464495Y-90585780D01*
X152464495Y-90585780D02*
X152512114Y-90633400D01*
X152512114Y-90633400D02*
X152607352Y-90681019D01*
X152607352Y-90681019D02*
X152797828Y-90681019D01*
X152797828Y-90681019D02*
X152893066Y-90633400D01*
X152893066Y-90633400D02*
X152940685Y-90585780D01*
X152940685Y-90585780D02*
X152988304Y-90490542D01*
X152988304Y-90490542D02*
X152988304Y-90300066D01*
X152988304Y-90300066D02*
X152940685Y-90204828D01*
X152940685Y-90204828D02*
X152893066Y-90157209D01*
X152893066Y-90157209D02*
X152797828Y-90109590D01*
X168989571Y-74819704D02*
X169465761Y-74819704D01*
X168894333Y-75105419D02*
X169227666Y-74105419D01*
X169227666Y-74105419D02*
X169560999Y-75105419D01*
X170227666Y-74581609D02*
X169894333Y-74581609D01*
X169894333Y-75105419D02*
X169894333Y-74105419D01*
X169894333Y-74105419D02*
X170370523Y-74105419D01*
X171084809Y-74581609D02*
X170751476Y-74581609D01*
X170751476Y-75105419D02*
X170751476Y-74105419D01*
X170751476Y-74105419D02*
X171227666Y-74105419D01*
X171513381Y-74105419D02*
X172132428Y-74105419D01*
X172132428Y-74105419D02*
X171799095Y-74486371D01*
X171799095Y-74486371D02*
X171941952Y-74486371D01*
X171941952Y-74486371D02*
X172037190Y-74533990D01*
X172037190Y-74533990D02*
X172084809Y-74581609D01*
X172084809Y-74581609D02*
X172132428Y-74676847D01*
X172132428Y-74676847D02*
X172132428Y-74914942D01*
X172132428Y-74914942D02*
X172084809Y-75010180D01*
X172084809Y-75010180D02*
X172037190Y-75057800D01*
X172037190Y-75057800D02*
X171941952Y-75105419D01*
X171941952Y-75105419D02*
X171656238Y-75105419D01*
X171656238Y-75105419D02*
X171561000Y-75057800D01*
X171561000Y-75057800D02*
X171513381Y-75010180D01*
X146818361Y-93679457D02*
X146723123Y-93631838D01*
X146723123Y-93631838D02*
X146627885Y-93536600D01*
X146627885Y-93536600D02*
X146485028Y-93393742D01*
X146485028Y-93393742D02*
X146389790Y-93346123D01*
X146389790Y-93346123D02*
X146294552Y-93346123D01*
X146342171Y-93584219D02*
X146246933Y-93536600D01*
X146246933Y-93536600D02*
X146151695Y-93441361D01*
X146151695Y-93441361D02*
X146104076Y-93250885D01*
X146104076Y-93250885D02*
X146104076Y-92917552D01*
X146104076Y-92917552D02*
X146151695Y-92727076D01*
X146151695Y-92727076D02*
X146246933Y-92631838D01*
X146246933Y-92631838D02*
X146342171Y-92584219D01*
X146342171Y-92584219D02*
X146532647Y-92584219D01*
X146532647Y-92584219D02*
X146627885Y-92631838D01*
X146627885Y-92631838D02*
X146723123Y-92727076D01*
X146723123Y-92727076D02*
X146770742Y-92917552D01*
X146770742Y-92917552D02*
X146770742Y-93250885D01*
X146770742Y-93250885D02*
X146723123Y-93441361D01*
X146723123Y-93441361D02*
X146627885Y-93536600D01*
X146627885Y-93536600D02*
X146532647Y-93584219D01*
X146532647Y-93584219D02*
X146342171Y-93584219D01*
X147104076Y-92584219D02*
X147723123Y-92584219D01*
X147723123Y-92584219D02*
X147389790Y-92965171D01*
X147389790Y-92965171D02*
X147532647Y-92965171D01*
X147532647Y-92965171D02*
X147627885Y-93012790D01*
X147627885Y-93012790D02*
X147675504Y-93060409D01*
X147675504Y-93060409D02*
X147723123Y-93155647D01*
X147723123Y-93155647D02*
X147723123Y-93393742D01*
X147723123Y-93393742D02*
X147675504Y-93488980D01*
X147675504Y-93488980D02*
X147627885Y-93536600D01*
X147627885Y-93536600D02*
X147532647Y-93584219D01*
X147532647Y-93584219D02*
X147246933Y-93584219D01*
X147246933Y-93584219D02*
X147151695Y-93536600D01*
X147151695Y-93536600D02*
X147104076Y-93488980D01*
X147527542Y-90681019D02*
X147194209Y-90204828D01*
X146956114Y-90681019D02*
X146956114Y-89681019D01*
X146956114Y-89681019D02*
X147337066Y-89681019D01*
X147337066Y-89681019D02*
X147432304Y-89728638D01*
X147432304Y-89728638D02*
X147479923Y-89776257D01*
X147479923Y-89776257D02*
X147527542Y-89871495D01*
X147527542Y-89871495D02*
X147527542Y-90014352D01*
X147527542Y-90014352D02*
X147479923Y-90109590D01*
X147479923Y-90109590D02*
X147432304Y-90157209D01*
X147432304Y-90157209D02*
X147337066Y-90204828D01*
X147337066Y-90204828D02*
X146956114Y-90204828D01*
X148479923Y-90681019D02*
X147908495Y-90681019D01*
X148194209Y-90681019D02*
X148194209Y-89681019D01*
X148194209Y-89681019D02*
X148098971Y-89823876D01*
X148098971Y-89823876D02*
X148003733Y-89919114D01*
X148003733Y-89919114D02*
X147908495Y-89966733D01*
X149337066Y-90014352D02*
X149337066Y-90681019D01*
X149098971Y-89633400D02*
X148860876Y-90347685D01*
X148860876Y-90347685D02*
X149479923Y-90347685D01*
X157833219Y-107297457D02*
X157357028Y-107630790D01*
X157833219Y-107868885D02*
X156833219Y-107868885D01*
X156833219Y-107868885D02*
X156833219Y-107487933D01*
X156833219Y-107487933D02*
X156880838Y-107392695D01*
X156880838Y-107392695D02*
X156928457Y-107345076D01*
X156928457Y-107345076D02*
X157023695Y-107297457D01*
X157023695Y-107297457D02*
X157166552Y-107297457D01*
X157166552Y-107297457D02*
X157261790Y-107345076D01*
X157261790Y-107345076D02*
X157309409Y-107392695D01*
X157309409Y-107392695D02*
X157357028Y-107487933D01*
X157357028Y-107487933D02*
X157357028Y-107868885D01*
X156833219Y-106964123D02*
X156833219Y-106345076D01*
X156833219Y-106345076D02*
X157214171Y-106678409D01*
X157214171Y-106678409D02*
X157214171Y-106535552D01*
X157214171Y-106535552D02*
X157261790Y-106440314D01*
X157261790Y-106440314D02*
X157309409Y-106392695D01*
X157309409Y-106392695D02*
X157404647Y-106345076D01*
X157404647Y-106345076D02*
X157642742Y-106345076D01*
X157642742Y-106345076D02*
X157737980Y-106392695D01*
X157737980Y-106392695D02*
X157785600Y-106440314D01*
X157785600Y-106440314D02*
X157833219Y-106535552D01*
X157833219Y-106535552D02*
X157833219Y-106821266D01*
X157833219Y-106821266D02*
X157785600Y-106916504D01*
X157785600Y-106916504D02*
X157737980Y-106964123D01*
X156928457Y-105964123D02*
X156880838Y-105916504D01*
X156880838Y-105916504D02*
X156833219Y-105821266D01*
X156833219Y-105821266D02*
X156833219Y-105583171D01*
X156833219Y-105583171D02*
X156880838Y-105487933D01*
X156880838Y-105487933D02*
X156928457Y-105440314D01*
X156928457Y-105440314D02*
X157023695Y-105392695D01*
X157023695Y-105392695D02*
X157118933Y-105392695D01*
X157118933Y-105392695D02*
X157261790Y-105440314D01*
X157261790Y-105440314D02*
X157833219Y-106011742D01*
X157833219Y-106011742D02*
X157833219Y-105392695D01*
X147597905Y-106880819D02*
X147597905Y-105880819D01*
X147597905Y-105880819D02*
X147836000Y-105880819D01*
X147836000Y-105880819D02*
X147978857Y-105928438D01*
X147978857Y-105928438D02*
X148074095Y-106023676D01*
X148074095Y-106023676D02*
X148121714Y-106118914D01*
X148121714Y-106118914D02*
X148169333Y-106309390D01*
X148169333Y-106309390D02*
X148169333Y-106452247D01*
X148169333Y-106452247D02*
X148121714Y-106642723D01*
X148121714Y-106642723D02*
X148074095Y-106737961D01*
X148074095Y-106737961D02*
X147978857Y-106833200D01*
X147978857Y-106833200D02*
X147836000Y-106880819D01*
X147836000Y-106880819D02*
X147597905Y-106880819D01*
X148502667Y-105880819D02*
X149121714Y-105880819D01*
X149121714Y-105880819D02*
X148788381Y-106261771D01*
X148788381Y-106261771D02*
X148931238Y-106261771D01*
X148931238Y-106261771D02*
X149026476Y-106309390D01*
X149026476Y-106309390D02*
X149074095Y-106357009D01*
X149074095Y-106357009D02*
X149121714Y-106452247D01*
X149121714Y-106452247D02*
X149121714Y-106690342D01*
X149121714Y-106690342D02*
X149074095Y-106785580D01*
X149074095Y-106785580D02*
X149026476Y-106833200D01*
X149026476Y-106833200D02*
X148931238Y-106880819D01*
X148931238Y-106880819D02*
X148645524Y-106880819D01*
X148645524Y-106880819D02*
X148550286Y-106833200D01*
X148550286Y-106833200D02*
X148502667Y-106785580D01*
X165348095Y-88722819D02*
X165348095Y-89532342D01*
X165348095Y-89532342D02*
X165395714Y-89627580D01*
X165395714Y-89627580D02*
X165443333Y-89675200D01*
X165443333Y-89675200D02*
X165538571Y-89722819D01*
X165538571Y-89722819D02*
X165729047Y-89722819D01*
X165729047Y-89722819D02*
X165824285Y-89675200D01*
X165824285Y-89675200D02*
X165871904Y-89627580D01*
X165871904Y-89627580D02*
X165919523Y-89532342D01*
X165919523Y-89532342D02*
X165919523Y-88722819D01*
X166348095Y-88818057D02*
X166395714Y-88770438D01*
X166395714Y-88770438D02*
X166490952Y-88722819D01*
X166490952Y-88722819D02*
X166729047Y-88722819D01*
X166729047Y-88722819D02*
X166824285Y-88770438D01*
X166824285Y-88770438D02*
X166871904Y-88818057D01*
X166871904Y-88818057D02*
X166919523Y-88913295D01*
X166919523Y-88913295D02*
X166919523Y-89008533D01*
X166919523Y-89008533D02*
X166871904Y-89151390D01*
X166871904Y-89151390D02*
X166300476Y-89722819D01*
X166300476Y-89722819D02*
X166919523Y-89722819D01*
X143160761Y-93628657D02*
X143065523Y-93581038D01*
X143065523Y-93581038D02*
X142970285Y-93485800D01*
X142970285Y-93485800D02*
X142827428Y-93342942D01*
X142827428Y-93342942D02*
X142732190Y-93295323D01*
X142732190Y-93295323D02*
X142636952Y-93295323D01*
X142684571Y-93533419D02*
X142589333Y-93485800D01*
X142589333Y-93485800D02*
X142494095Y-93390561D01*
X142494095Y-93390561D02*
X142446476Y-93200085D01*
X142446476Y-93200085D02*
X142446476Y-92866752D01*
X142446476Y-92866752D02*
X142494095Y-92676276D01*
X142494095Y-92676276D02*
X142589333Y-92581038D01*
X142589333Y-92581038D02*
X142684571Y-92533419D01*
X142684571Y-92533419D02*
X142875047Y-92533419D01*
X142875047Y-92533419D02*
X142970285Y-92581038D01*
X142970285Y-92581038D02*
X143065523Y-92676276D01*
X143065523Y-92676276D02*
X143113142Y-92866752D01*
X143113142Y-92866752D02*
X143113142Y-93200085D01*
X143113142Y-93200085D02*
X143065523Y-93390561D01*
X143065523Y-93390561D02*
X142970285Y-93485800D01*
X142970285Y-93485800D02*
X142875047Y-93533419D01*
X142875047Y-93533419D02*
X142684571Y-93533419D01*
X144065523Y-93533419D02*
X143494095Y-93533419D01*
X143779809Y-93533419D02*
X143779809Y-92533419D01*
X143779809Y-92533419D02*
X143684571Y-92676276D01*
X143684571Y-92676276D02*
X143589333Y-92771514D01*
X143589333Y-92771514D02*
X143494095Y-92819133D01*
X159052419Y-107297457D02*
X158576228Y-107630790D01*
X159052419Y-107868885D02*
X158052419Y-107868885D01*
X158052419Y-107868885D02*
X158052419Y-107487933D01*
X158052419Y-107487933D02*
X158100038Y-107392695D01*
X158100038Y-107392695D02*
X158147657Y-107345076D01*
X158147657Y-107345076D02*
X158242895Y-107297457D01*
X158242895Y-107297457D02*
X158385752Y-107297457D01*
X158385752Y-107297457D02*
X158480990Y-107345076D01*
X158480990Y-107345076D02*
X158528609Y-107392695D01*
X158528609Y-107392695D02*
X158576228Y-107487933D01*
X158576228Y-107487933D02*
X158576228Y-107868885D01*
X158147657Y-106916504D02*
X158100038Y-106868885D01*
X158100038Y-106868885D02*
X158052419Y-106773647D01*
X158052419Y-106773647D02*
X158052419Y-106535552D01*
X158052419Y-106535552D02*
X158100038Y-106440314D01*
X158100038Y-106440314D02*
X158147657Y-106392695D01*
X158147657Y-106392695D02*
X158242895Y-106345076D01*
X158242895Y-106345076D02*
X158338133Y-106345076D01*
X158338133Y-106345076D02*
X158480990Y-106392695D01*
X158480990Y-106392695D02*
X159052419Y-106964123D01*
X159052419Y-106964123D02*
X159052419Y-106345076D01*
X158052419Y-105726028D02*
X158052419Y-105630790D01*
X158052419Y-105630790D02*
X158100038Y-105535552D01*
X158100038Y-105535552D02*
X158147657Y-105487933D01*
X158147657Y-105487933D02*
X158242895Y-105440314D01*
X158242895Y-105440314D02*
X158433371Y-105392695D01*
X158433371Y-105392695D02*
X158671466Y-105392695D01*
X158671466Y-105392695D02*
X158861942Y-105440314D01*
X158861942Y-105440314D02*
X158957180Y-105487933D01*
X158957180Y-105487933D02*
X159004800Y-105535552D01*
X159004800Y-105535552D02*
X159052419Y-105630790D01*
X159052419Y-105630790D02*
X159052419Y-105726028D01*
X159052419Y-105726028D02*
X159004800Y-105821266D01*
X159004800Y-105821266D02*
X158957180Y-105868885D01*
X158957180Y-105868885D02*
X158861942Y-105916504D01*
X158861942Y-105916504D02*
X158671466Y-105964123D01*
X158671466Y-105964123D02*
X158433371Y-105964123D01*
X158433371Y-105964123D02*
X158242895Y-105916504D01*
X158242895Y-105916504D02*
X158147657Y-105868885D01*
X158147657Y-105868885D02*
X158100038Y-105821266D01*
X158100038Y-105821266D02*
X158052419Y-105726028D01*
X159871580Y-96178666D02*
X159919200Y-96226285D01*
X159919200Y-96226285D02*
X159966819Y-96369142D01*
X159966819Y-96369142D02*
X159966819Y-96464380D01*
X159966819Y-96464380D02*
X159919200Y-96607237D01*
X159919200Y-96607237D02*
X159823961Y-96702475D01*
X159823961Y-96702475D02*
X159728723Y-96750094D01*
X159728723Y-96750094D02*
X159538247Y-96797713D01*
X159538247Y-96797713D02*
X159395390Y-96797713D01*
X159395390Y-96797713D02*
X159204914Y-96750094D01*
X159204914Y-96750094D02*
X159109676Y-96702475D01*
X159109676Y-96702475D02*
X159014438Y-96607237D01*
X159014438Y-96607237D02*
X158966819Y-96464380D01*
X158966819Y-96464380D02*
X158966819Y-96369142D01*
X158966819Y-96369142D02*
X159014438Y-96226285D01*
X159014438Y-96226285D02*
X159062057Y-96178666D01*
X158966819Y-95845332D02*
X158966819Y-95178666D01*
X158966819Y-95178666D02*
X159966819Y-95607237D01*
D11*
%TO.C,QT5*%
X153722400Y-94450200D02*
X153722400Y-95100200D01*
X153722400Y-94450200D02*
X153722400Y-93800200D01*
X156842400Y-94450200D02*
X156842400Y-95100200D01*
X156842400Y-94450200D02*
X156842400Y-93800200D01*
X153772400Y-95612700D02*
X153442400Y-95852700D01*
X153442400Y-95372700D01*
X153772400Y-95612700D01*
G36*
X153772400Y-95612700D02*
G01*
X153442400Y-95852700D01*
X153442400Y-95372700D01*
X153772400Y-95612700D01*
G37*
%TO.C,D2*%
X127449000Y-102177000D02*
X137219000Y-102177000D01*
X127449000Y-103362000D02*
X127449000Y-102177000D01*
X127449000Y-106442000D02*
X127449000Y-107627000D01*
X127449000Y-107627000D02*
X137219000Y-107627000D01*
X128878500Y-102177000D02*
X128878500Y-107627000D01*
X128998500Y-102177000D02*
X128998500Y-107627000D01*
X129118500Y-102177000D02*
X129118500Y-107627000D01*
X137219000Y-102177000D02*
X137219000Y-103362000D01*
X137219000Y-107627000D02*
X137219000Y-106442000D01*
%TO.C,R8*%
X144377142Y-91133700D02*
X144851658Y-91133700D01*
X144377142Y-92178700D02*
X144851658Y-92178700D01*
%TO.C,Q4*%
X150166400Y-94450200D02*
X150166400Y-93800200D01*
X150166400Y-94450200D02*
X150166400Y-95100200D01*
X153286400Y-94450200D02*
X153286400Y-93800200D01*
X153286400Y-94450200D02*
X153286400Y-95100200D01*
X150216400Y-95612700D02*
X149886400Y-95852700D01*
X149886400Y-95372700D01*
X150216400Y-95612700D01*
G36*
X150216400Y-95612700D02*
G01*
X149886400Y-95852700D01*
X149886400Y-95372700D01*
X150216400Y-95612700D01*
G37*
%TO.C,QT6*%
X164162500Y-104424000D02*
X163512500Y-104424000D01*
X164162500Y-104424000D02*
X164812500Y-104424000D01*
X164162500Y-107544000D02*
X163512500Y-107544000D01*
X164162500Y-107544000D02*
X164812500Y-107544000D01*
X165565000Y-107824000D02*
X165085000Y-107824000D01*
X165325000Y-107494000D01*
X165565000Y-107824000D01*
G36*
X165565000Y-107824000D02*
G01*
X165085000Y-107824000D01*
X165325000Y-107494000D01*
X165565000Y-107824000D01*
G37*
%TO.C,D5*%
X143461400Y-98276200D02*
X143461400Y-100276200D01*
X143461400Y-98276200D02*
X147471400Y-98276200D01*
X143461400Y-100276200D02*
X147471400Y-100276200D01*
%TO.C,R2*%
X146554258Y-102093500D02*
X146079742Y-102093500D01*
X146554258Y-103138500D02*
X146079742Y-103138500D01*
%TO.C,R19*%
X170087058Y-103007900D02*
X169612542Y-103007900D01*
X170087058Y-104052900D02*
X169612542Y-104052900D01*
%TO.C,R11*%
X155110142Y-96721700D02*
X155584658Y-96721700D01*
X155110142Y-97766700D02*
X155584658Y-97766700D01*
%TO.C,C1*%
X143269580Y-102106000D02*
X142988420Y-102106000D01*
X143269580Y-103126000D02*
X142988420Y-103126000D01*
%TO.C,C9*%
X157554200Y-92327820D02*
X157554200Y-92608980D01*
X158574200Y-92327820D02*
X158574200Y-92608980D01*
%TO.C,R22*%
X172635142Y-103007900D02*
X173109658Y-103007900D01*
X172635142Y-104052900D02*
X173109658Y-104052900D01*
%TO.C,C5*%
X158748000Y-102196020D02*
X158748000Y-102477180D01*
X159768000Y-102196020D02*
X159768000Y-102477180D01*
%TO.C,QT4*%
X150289500Y-102072000D02*
X149639500Y-102072000D01*
X150289500Y-102072000D02*
X150939500Y-102072000D01*
X150289500Y-105192000D02*
X149639500Y-105192000D01*
X150289500Y-105192000D02*
X150939500Y-105192000D01*
X149127000Y-102122000D02*
X148887000Y-101792000D01*
X149367000Y-101792000D01*
X149127000Y-102122000D01*
G36*
X149127000Y-102122000D02*
G01*
X148887000Y-101792000D01*
X149367000Y-101792000D01*
X149127000Y-102122000D01*
G37*
%TO.C,D6*%
X151969400Y-98276200D02*
X151969400Y-100276200D01*
X151969400Y-98276200D02*
X155979400Y-98276200D01*
X151969400Y-100276200D02*
X155979400Y-100276200D01*
%TO.C,U1*%
X127654000Y-80954000D02*
X127654000Y-84714000D01*
X127654000Y-84714000D02*
X128914000Y-84714000D01*
X134474000Y-80954000D02*
X134474000Y-84714000D01*
X134474000Y-84714000D02*
X133214000Y-84714000D01*
X134704000Y-79914000D02*
X134374000Y-79674000D01*
X134704000Y-79434000D01*
X134704000Y-79914000D01*
G36*
X134704000Y-79914000D02*
G01*
X134374000Y-79674000D01*
X134704000Y-79434000D01*
X134704000Y-79914000D01*
G37*
%TO.C,D4*%
X146022400Y-105426000D02*
X142012400Y-105426000D01*
X146022400Y-107426000D02*
X142012400Y-107426000D01*
X146022400Y-107426000D02*
X146022400Y-105426000D01*
%TO.C,Q2*%
X154432000Y-102072000D02*
X153782000Y-102072000D01*
X154432000Y-102072000D02*
X155082000Y-102072000D01*
X154432000Y-105192000D02*
X153782000Y-105192000D01*
X154432000Y-105192000D02*
X155082000Y-105192000D01*
X153269500Y-102122000D02*
X153029500Y-101792000D01*
X153509500Y-101792000D01*
X153269500Y-102122000D01*
G36*
X153269500Y-102122000D02*
G01*
X153029500Y-101792000D01*
X153509500Y-101792000D01*
X153269500Y-102122000D01*
G37*
%TO.C,C6*%
X171727400Y-95085780D02*
X171727400Y-94804620D01*
X172747400Y-95085780D02*
X172747400Y-94804620D01*
%TO.C,R3*%
X146604258Y-103871500D02*
X146129742Y-103871500D01*
X146604258Y-104916500D02*
X146129742Y-104916500D01*
%TO.C,R16*%
X151617142Y-96721700D02*
X152091658Y-96721700D01*
X151617142Y-97766700D02*
X152091658Y-97766700D01*
%TO.C,AFF2*%
X149038000Y-84455000D02*
X149038000Y-73025000D01*
X150148000Y-88375000D02*
X161748000Y-88375000D01*
X150448000Y-83740000D02*
X157448000Y-83740000D01*
X151448000Y-78740000D02*
X150448000Y-83740000D01*
X152448000Y-73740000D02*
X151448000Y-78740000D01*
X152448000Y-73740000D02*
X159448000Y-73740000D01*
X157448000Y-83740000D02*
X158448000Y-78740000D01*
X158448000Y-78740000D02*
X151448000Y-78740000D01*
X159448000Y-73740000D02*
X158448000Y-78740000D01*
X161748000Y-69105000D02*
X149148000Y-69105000D01*
X161858000Y-84455000D02*
X161858000Y-73025000D01*
X159895214Y-83740000D02*
G75*
G02*
X159000786Y-83740000I-447214J0D01*
G01*
X159000786Y-83740000D02*
G75*
G02*
X159895214Y-83740000I447214J0D01*
G01*
%TO.C,C2*%
X150645400Y-99516620D02*
X150645400Y-99797780D01*
X151665400Y-99516620D02*
X151665400Y-99797780D01*
%TO.C,AFF1*%
X135830000Y-84455000D02*
X135830000Y-73025000D01*
X136940000Y-88375000D02*
X148540000Y-88375000D01*
X137240000Y-83740000D02*
X144240000Y-83740000D01*
X138240000Y-78740000D02*
X137240000Y-83740000D01*
X139240000Y-73740000D02*
X138240000Y-78740000D01*
X139240000Y-73740000D02*
X146240000Y-73740000D01*
X144240000Y-83740000D02*
X145240000Y-78740000D01*
X145240000Y-78740000D02*
X138240000Y-78740000D01*
X146240000Y-73740000D02*
X145240000Y-78740000D01*
X148540000Y-69105000D02*
X135940000Y-69105000D01*
X148650000Y-84455000D02*
X148650000Y-73025000D01*
X146687214Y-83740000D02*
G75*
G02*
X145792786Y-83740000I-447214J0D01*
G01*
X145792786Y-83740000D02*
G75*
G02*
X146687214Y-83740000I447214J0D01*
G01*
%TO.C,R9*%
X155748258Y-106157500D02*
X155273742Y-106157500D01*
X155748258Y-107202500D02*
X155273742Y-107202500D01*
%TO.C,R6*%
X152700258Y-106157500D02*
X152225742Y-106157500D01*
X152700258Y-107202500D02*
X152225742Y-107202500D01*
%TO.C,D7*%
X125292000Y-75946000D02*
X126312000Y-75946000D01*
X126312000Y-74476000D02*
X126312000Y-77416000D01*
X126312000Y-77416000D02*
X131752000Y-77416000D01*
X130732000Y-77416000D02*
X130732000Y-74476000D01*
X130852000Y-77416000D02*
X130852000Y-74476000D01*
X130972000Y-77416000D02*
X130972000Y-74476000D01*
X131752000Y-74476000D02*
X126312000Y-74476000D01*
X131752000Y-77416000D02*
X131752000Y-74476000D01*
X132772000Y-75946000D02*
X131752000Y-75946000D01*
%TO.C,D1*%
X127449000Y-96335000D02*
X127449000Y-97520000D01*
X127449000Y-101785000D02*
X127449000Y-100600000D01*
X135549500Y-101785000D02*
X135549500Y-96335000D01*
X135669500Y-101785000D02*
X135669500Y-96335000D01*
X135789500Y-101785000D02*
X135789500Y-96335000D01*
X137219000Y-96335000D02*
X127449000Y-96335000D01*
X137219000Y-97520000D02*
X137219000Y-96335000D01*
X137219000Y-100600000D02*
X137219000Y-101785000D01*
X137219000Y-101785000D02*
X127449000Y-101785000D01*
%TO.C,SW1*%
X173752000Y-92798000D02*
X173752000Y-97298000D01*
X176252000Y-98548000D02*
X177752000Y-98548000D01*
X177752000Y-91548000D02*
X176252000Y-91548000D01*
X180252000Y-97298000D02*
X180252000Y-92798000D01*
%TO.C,R5*%
X144505142Y-96721700D02*
X144979658Y-96721700D01*
X144505142Y-97766700D02*
X144979658Y-97766700D01*
%TO.C,C8*%
X164172020Y-102995000D02*
X164453180Y-102995000D01*
X164172020Y-104015000D02*
X164453180Y-104015000D01*
%TO.C,R15*%
X155519658Y-91133700D02*
X155045142Y-91133700D01*
X155519658Y-92178700D02*
X155045142Y-92178700D01*
%TO.C,R17*%
X156957500Y-99572342D02*
X156957500Y-100046858D01*
X158002500Y-99572342D02*
X158002500Y-100046858D01*
%TO.C,Q5*%
X168226500Y-104424000D02*
X167576500Y-104424000D01*
X168226500Y-104424000D02*
X168876500Y-104424000D01*
X168226500Y-107544000D02*
X167576500Y-107544000D01*
X168226500Y-107544000D02*
X168876500Y-107544000D01*
X169629000Y-107824000D02*
X169149000Y-107824000D01*
X169389000Y-107494000D01*
X169629000Y-107824000D01*
G36*
X169629000Y-107824000D02*
G01*
X169149000Y-107824000D01*
X169389000Y-107494000D01*
X169629000Y-107824000D01*
G37*
%TO.C,R18*%
X151489142Y-91133700D02*
X151963658Y-91133700D01*
X151489142Y-92178700D02*
X151963658Y-92178700D01*
%TO.C,Q6*%
X172290500Y-104424000D02*
X171640500Y-104424000D01*
X172290500Y-104424000D02*
X172940500Y-104424000D01*
X172290500Y-107544000D02*
X171640500Y-107544000D01*
X172290500Y-107544000D02*
X172940500Y-107544000D01*
X173693000Y-107824000D02*
X173213000Y-107824000D01*
X173453000Y-107494000D01*
X173693000Y-107824000D01*
G36*
X173693000Y-107824000D02*
G01*
X173213000Y-107824000D01*
X173453000Y-107494000D01*
X173693000Y-107824000D01*
G37*
%TO.C,R4*%
X143302258Y-103871500D02*
X142827742Y-103871500D01*
X143302258Y-104916500D02*
X142827742Y-104916500D01*
%TO.C,AFF3*%
X162246000Y-84455000D02*
X162246000Y-73025000D01*
X163356000Y-88375000D02*
X174956000Y-88375000D01*
X163656000Y-83740000D02*
X170656000Y-83740000D01*
X164656000Y-78740000D02*
X163656000Y-83740000D01*
X165656000Y-73740000D02*
X164656000Y-78740000D01*
X165656000Y-73740000D02*
X172656000Y-73740000D01*
X170656000Y-83740000D02*
X171656000Y-78740000D01*
X171656000Y-78740000D02*
X164656000Y-78740000D01*
X172656000Y-73740000D02*
X171656000Y-78740000D01*
X174956000Y-69105000D02*
X162356000Y-69105000D01*
X175066000Y-84455000D02*
X175066000Y-73025000D01*
X173103214Y-83740000D02*
G75*
G02*
X172208786Y-83740000I-447214J0D01*
G01*
X172208786Y-83740000D02*
G75*
G02*
X173103214Y-83740000I447214J0D01*
G01*
%TO.C,R12*%
X154516858Y-100645700D02*
X154042342Y-100645700D01*
X154516858Y-101690700D02*
X154042342Y-101690700D01*
%TO.C,Q3*%
X146610400Y-94450200D02*
X146610400Y-93800200D01*
X146610400Y-94450200D02*
X146610400Y-95100200D01*
X149730400Y-94450200D02*
X149730400Y-93800200D01*
X149730400Y-94450200D02*
X149730400Y-95100200D01*
X146660400Y-95612700D02*
X146330400Y-95852700D01*
X146330400Y-95372700D01*
X146660400Y-95612700D01*
G36*
X146660400Y-95612700D02*
G01*
X146330400Y-95852700D01*
X146330400Y-95372700D01*
X146660400Y-95612700D01*
G37*
%TO.C,R14*%
X147933142Y-91133700D02*
X148407658Y-91133700D01*
X147933142Y-92178700D02*
X148407658Y-92178700D01*
%TO.C,R1*%
X148981900Y-99894458D02*
X148981900Y-99419942D01*
X150026900Y-99894458D02*
X150026900Y-99419942D01*
%TO.C,R13*%
X156957500Y-103648742D02*
X156957500Y-104123258D01*
X158002500Y-103648742D02*
X158002500Y-104123258D01*
%TO.C,R32*%
X159268900Y-106104458D02*
X159268900Y-105629942D01*
X160313900Y-106104458D02*
X160313900Y-105629942D01*
%TO.C,D3*%
X146255400Y-105451400D02*
X146255400Y-107451400D01*
X146255400Y-105451400D02*
X150265400Y-105451400D01*
X146255400Y-107451400D02*
X150265400Y-107451400D01*
D10*
%TO.C,U2*%
X162485000Y-91693000D02*
X162485000Y-91918000D01*
X162485000Y-91693000D02*
X162810000Y-91693000D01*
X162485000Y-98943000D02*
X162485000Y-98618000D01*
X162485000Y-98943000D02*
X162810000Y-98943000D01*
X169735000Y-91693000D02*
X169410000Y-91693000D01*
X169735000Y-91693000D02*
X169735000Y-92018000D01*
X169735000Y-98943000D02*
X169410000Y-98943000D01*
X169735000Y-98943000D02*
X169735000Y-98618000D01*
D11*
X161720000Y-91978000D02*
X161380000Y-91508000D01*
X162060000Y-91508000D01*
X161720000Y-91978000D01*
G36*
X161720000Y-91978000D02*
G01*
X161380000Y-91508000D01*
X162060000Y-91508000D01*
X161720000Y-91978000D01*
G37*
%TO.C,Q1*%
X143054400Y-94450200D02*
X143054400Y-93800200D01*
X143054400Y-94450200D02*
X143054400Y-95100200D01*
X146174400Y-94450200D02*
X146174400Y-93800200D01*
X146174400Y-94450200D02*
X146174400Y-95100200D01*
X143104400Y-95612700D02*
X142774400Y-95852700D01*
X142774400Y-95372700D01*
X143104400Y-95612700D01*
G36*
X143104400Y-95612700D02*
G01*
X142774400Y-95852700D01*
X142774400Y-95372700D01*
X143104400Y-95612700D01*
G37*
%TO.C,R20*%
X160818300Y-106104458D02*
X160818300Y-105629942D01*
X161863300Y-106104458D02*
X161863300Y-105629942D01*
%TO.C,C7*%
X157554200Y-95860180D02*
X157554200Y-95579020D01*
X158574200Y-95860180D02*
X158574200Y-95579020D01*
%TO.C,R10*%
X148535658Y-96721700D02*
X148061142Y-96721700D01*
X148535658Y-97766700D02*
X148061142Y-97766700D01*
%TD*%
M02*
